%TF.GenerationSoftware,KiCad,Pcbnew,10.0.4*%
%TF.CreationDate,2026-07-16T20:52:48+00:00*%
%TF.ProjectId,pcb-psu-led,7063622d-7073-4752-9d6c-65642e6b6963,PCB2-PCB-04R2*%
%TF.SameCoordinates,Original*%
%TF.FileFunction,Soldermask,Bot*%
%TF.FilePolarity,Negative*%
%FSLAX46Y46*%
G04 Gerber Fmt 4.6, Leading zero omitted, Abs format (unit mm)*
G04 Created by KiCad (PCBNEW 10.0.4) date 2026-07-16 20:52:48*
%MOMM*%
%LPD*%
G01*
G04 APERTURE LIST*
G04 APERTURE END LIST*
G36*
X7614441Y-70904932D02*
G01*
X7625535Y-70904932D01*
X7680164Y-70913584D01*
X7812102Y-70930954D01*
X7844296Y-70939580D01*
X7873513Y-70944208D01*
X7929698Y-70962463D01*
X8014237Y-70985116D01*
X8068178Y-71007459D01*
X8112293Y-71021793D01*
X8153618Y-71042849D01*
X8207566Y-71065195D01*
X8283375Y-71108963D01*
X8335998Y-71135776D01*
X8359922Y-71153157D01*
X8388794Y-71169827D01*
X8494392Y-71250856D01*
X8539117Y-71283350D01*
X8546957Y-71291190D01*
X8554810Y-71297216D01*
X8702783Y-71445189D01*
X8708808Y-71453041D01*
X8716650Y-71460883D01*
X8749147Y-71505612D01*
X8830172Y-71611205D01*
X8846840Y-71640075D01*
X8864224Y-71664002D01*
X8891039Y-71716631D01*
X8934804Y-71792433D01*
X8957147Y-71846375D01*
X8978207Y-71887707D01*
X8992542Y-71931827D01*
X9014883Y-71985762D01*
X9037531Y-72070288D01*
X9055792Y-72126487D01*
X9060420Y-72155709D01*
X9069045Y-72187897D01*
X9086414Y-72319827D01*
X9095068Y-72374465D01*
X9095068Y-72385558D01*
X9096360Y-72395372D01*
X9096360Y-72604627D01*
X9095068Y-72614440D01*
X9095068Y-72625535D01*
X9086413Y-72680177D01*
X9069045Y-72812102D01*
X9060420Y-72844287D01*
X9055792Y-72873513D01*
X9037530Y-72929716D01*
X9014883Y-73014237D01*
X8992544Y-73068167D01*
X8978207Y-73112293D01*
X8957145Y-73153629D01*
X8934804Y-73207566D01*
X8891044Y-73283360D01*
X8864224Y-73335998D01*
X8846837Y-73359928D01*
X8830172Y-73388794D01*
X8749161Y-73494368D01*
X8716650Y-73539117D01*
X8708805Y-73546961D01*
X8702783Y-73554810D01*
X8554810Y-73702783D01*
X8546961Y-73708805D01*
X8539117Y-73716650D01*
X8494368Y-73749161D01*
X8388794Y-73830172D01*
X8359928Y-73846837D01*
X8335998Y-73864224D01*
X8283360Y-73891044D01*
X8207566Y-73934804D01*
X8153629Y-73957145D01*
X8112293Y-73978207D01*
X8068167Y-73992544D01*
X8014237Y-74014883D01*
X7929716Y-74037530D01*
X7873513Y-74055792D01*
X7844287Y-74060420D01*
X7812102Y-74069045D01*
X7680177Y-74086413D01*
X7625535Y-74095068D01*
X7614441Y-74095068D01*
X7604627Y-74096360D01*
X7395373Y-74096360D01*
X7385559Y-74095068D01*
X7374465Y-74095068D01*
X7319824Y-74086413D01*
X7187897Y-74069045D01*
X7155709Y-74060420D01*
X7126487Y-74055792D01*
X7070288Y-74037531D01*
X6985762Y-74014883D01*
X6931827Y-73992542D01*
X6887707Y-73978207D01*
X6846375Y-73957147D01*
X6792433Y-73934804D01*
X6716631Y-73891039D01*
X6664002Y-73864224D01*
X6640075Y-73846840D01*
X6611205Y-73830172D01*
X6505612Y-73749147D01*
X6460883Y-73716650D01*
X6453041Y-73708808D01*
X6445189Y-73702783D01*
X6297216Y-73554810D01*
X6291190Y-73546957D01*
X6283350Y-73539117D01*
X6250856Y-73494392D01*
X6169827Y-73388794D01*
X6153157Y-73359922D01*
X6135776Y-73335998D01*
X6108963Y-73283375D01*
X6065195Y-73207566D01*
X6042849Y-73153618D01*
X6021793Y-73112293D01*
X6007459Y-73068178D01*
X5985116Y-73014237D01*
X5962463Y-72929698D01*
X5944208Y-72873513D01*
X5939580Y-72844296D01*
X5930954Y-72812102D01*
X5913584Y-72680164D01*
X5904932Y-72625535D01*
X5904932Y-72614440D01*
X5903640Y-72604627D01*
X5903640Y-72395372D01*
X5904932Y-72385558D01*
X5904932Y-72374465D01*
X5913583Y-72319840D01*
X5930954Y-72187897D01*
X5939580Y-72155700D01*
X5944208Y-72126487D01*
X5962462Y-72070306D01*
X5985116Y-71985762D01*
X6007460Y-71931816D01*
X6021793Y-71887707D01*
X6042847Y-71846385D01*
X6065195Y-71792433D01*
X6108967Y-71716616D01*
X6135776Y-71664002D01*
X6153154Y-71640081D01*
X6169827Y-71611205D01*
X6250869Y-71505588D01*
X6283350Y-71460883D01*
X6291187Y-71453045D01*
X6297216Y-71445189D01*
X6445189Y-71297216D01*
X6453045Y-71291187D01*
X6460883Y-71283350D01*
X6505588Y-71250869D01*
X6611205Y-71169827D01*
X6640081Y-71153154D01*
X6664002Y-71135776D01*
X6716616Y-71108967D01*
X6792433Y-71065195D01*
X6846385Y-71042847D01*
X6887707Y-71021793D01*
X6931816Y-71007460D01*
X6985762Y-70985116D01*
X7070306Y-70962462D01*
X7126487Y-70944208D01*
X7155700Y-70939580D01*
X7187897Y-70930954D01*
X7319837Y-70913584D01*
X7374465Y-70904932D01*
X7385559Y-70904932D01*
X7395373Y-70903640D01*
X7604627Y-70903640D01*
X7614441Y-70904932D01*
G37*
G36*
X132614441Y-70904932D02*
G01*
X132625535Y-70904932D01*
X132680164Y-70913584D01*
X132812102Y-70930954D01*
X132844296Y-70939580D01*
X132873513Y-70944208D01*
X132929698Y-70962463D01*
X133014237Y-70985116D01*
X133068178Y-71007459D01*
X133112293Y-71021793D01*
X133153618Y-71042849D01*
X133207566Y-71065195D01*
X133283375Y-71108963D01*
X133335998Y-71135776D01*
X133359922Y-71153157D01*
X133388794Y-71169827D01*
X133494392Y-71250856D01*
X133539117Y-71283350D01*
X133546957Y-71291190D01*
X133554810Y-71297216D01*
X133702783Y-71445189D01*
X133708808Y-71453041D01*
X133716650Y-71460883D01*
X133749147Y-71505612D01*
X133830172Y-71611205D01*
X133846840Y-71640075D01*
X133864224Y-71664002D01*
X133891039Y-71716631D01*
X133934804Y-71792433D01*
X133957147Y-71846375D01*
X133978207Y-71887707D01*
X133992542Y-71931827D01*
X134014883Y-71985762D01*
X134037531Y-72070288D01*
X134055792Y-72126487D01*
X134060420Y-72155709D01*
X134069045Y-72187897D01*
X134086414Y-72319827D01*
X134095068Y-72374465D01*
X134095068Y-72385558D01*
X134096360Y-72395372D01*
X134096360Y-72604627D01*
X134095068Y-72614440D01*
X134095068Y-72625535D01*
X134086413Y-72680177D01*
X134069045Y-72812102D01*
X134060420Y-72844287D01*
X134055792Y-72873513D01*
X134037530Y-72929716D01*
X134014883Y-73014237D01*
X133992544Y-73068167D01*
X133978207Y-73112293D01*
X133957145Y-73153629D01*
X133934804Y-73207566D01*
X133891044Y-73283360D01*
X133864224Y-73335998D01*
X133846837Y-73359928D01*
X133830172Y-73388794D01*
X133749161Y-73494368D01*
X133716650Y-73539117D01*
X133708805Y-73546961D01*
X133702783Y-73554810D01*
X133554810Y-73702783D01*
X133546961Y-73708805D01*
X133539117Y-73716650D01*
X133494368Y-73749161D01*
X133388794Y-73830172D01*
X133359928Y-73846837D01*
X133335998Y-73864224D01*
X133283360Y-73891044D01*
X133207566Y-73934804D01*
X133153629Y-73957145D01*
X133112293Y-73978207D01*
X133068167Y-73992544D01*
X133014237Y-74014883D01*
X132929716Y-74037530D01*
X132873513Y-74055792D01*
X132844287Y-74060420D01*
X132812102Y-74069045D01*
X132680177Y-74086413D01*
X132625535Y-74095068D01*
X132614441Y-74095068D01*
X132604627Y-74096360D01*
X132395373Y-74096360D01*
X132385559Y-74095068D01*
X132374465Y-74095068D01*
X132319824Y-74086413D01*
X132187897Y-74069045D01*
X132155709Y-74060420D01*
X132126487Y-74055792D01*
X132070288Y-74037531D01*
X131985762Y-74014883D01*
X131931827Y-73992542D01*
X131887707Y-73978207D01*
X131846375Y-73957147D01*
X131792433Y-73934804D01*
X131716631Y-73891039D01*
X131664002Y-73864224D01*
X131640075Y-73846840D01*
X131611205Y-73830172D01*
X131505612Y-73749147D01*
X131460883Y-73716650D01*
X131453041Y-73708808D01*
X131445189Y-73702783D01*
X131297216Y-73554810D01*
X131291190Y-73546957D01*
X131283350Y-73539117D01*
X131250856Y-73494392D01*
X131169827Y-73388794D01*
X131153157Y-73359922D01*
X131135776Y-73335998D01*
X131108963Y-73283375D01*
X131065195Y-73207566D01*
X131042849Y-73153618D01*
X131021793Y-73112293D01*
X131007459Y-73068178D01*
X130985116Y-73014237D01*
X130962463Y-72929698D01*
X130944208Y-72873513D01*
X130939580Y-72844296D01*
X130930954Y-72812102D01*
X130913584Y-72680164D01*
X130904932Y-72625535D01*
X130904932Y-72614440D01*
X130903640Y-72604627D01*
X130903640Y-72395372D01*
X130904932Y-72385558D01*
X130904932Y-72374465D01*
X130913583Y-72319840D01*
X130930954Y-72187897D01*
X130939580Y-72155700D01*
X130944208Y-72126487D01*
X130962462Y-72070306D01*
X130985116Y-71985762D01*
X131007460Y-71931816D01*
X131021793Y-71887707D01*
X131042847Y-71846385D01*
X131065195Y-71792433D01*
X131108967Y-71716616D01*
X131135776Y-71664002D01*
X131153154Y-71640081D01*
X131169827Y-71611205D01*
X131250869Y-71505588D01*
X131283350Y-71460883D01*
X131291187Y-71453045D01*
X131297216Y-71445189D01*
X131445189Y-71297216D01*
X131453045Y-71291187D01*
X131460883Y-71283350D01*
X131505588Y-71250869D01*
X131611205Y-71169827D01*
X131640081Y-71153154D01*
X131664002Y-71135776D01*
X131716616Y-71108967D01*
X131792433Y-71065195D01*
X131846385Y-71042847D01*
X131887707Y-71021793D01*
X131931816Y-71007460D01*
X131985762Y-70985116D01*
X132070306Y-70962462D01*
X132126487Y-70944208D01*
X132155700Y-70939580D01*
X132187897Y-70930954D01*
X132319837Y-70913584D01*
X132374465Y-70904932D01*
X132385559Y-70904932D01*
X132395373Y-70903640D01*
X132604627Y-70903640D01*
X132614441Y-70904932D01*
G37*
G36*
X37209005Y-67311003D02*
G01*
X37339406Y-67365017D01*
X37456763Y-67443432D01*
X37556568Y-67543237D01*
X37634983Y-67660594D01*
X37688997Y-67790995D01*
X37716533Y-67929428D01*
X37716533Y-68070572D01*
X37688997Y-68209005D01*
X37634983Y-68339406D01*
X37556568Y-68456763D01*
X37456763Y-68556568D01*
X37339406Y-68634983D01*
X37209005Y-68688997D01*
X37070572Y-68716533D01*
X36929428Y-68716533D01*
X36790995Y-68688997D01*
X36660594Y-68634983D01*
X36543237Y-68556568D01*
X36443432Y-68456763D01*
X36365017Y-68339406D01*
X36311003Y-68209005D01*
X36283467Y-68070572D01*
X36283467Y-67929428D01*
X36311003Y-67790995D01*
X36365017Y-67660594D01*
X36443432Y-67543237D01*
X36543237Y-67443432D01*
X36660594Y-67365017D01*
X36790995Y-67311003D01*
X36929428Y-67283467D01*
X37070572Y-67283467D01*
X37209005Y-67311003D01*
G37*
G36*
X119069828Y-63703944D02*
G01*
X119119985Y-63711251D01*
X119129192Y-63715752D01*
X119145671Y-63719030D01*
X119172322Y-63736838D01*
X119194465Y-63747663D01*
X119206428Y-63759626D01*
X119226777Y-63773223D01*
X119240373Y-63793571D01*
X119252336Y-63805534D01*
X119263160Y-63827674D01*
X119280970Y-63854329D01*
X119284248Y-63870809D01*
X119288748Y-63880014D01*
X119296053Y-63930157D01*
X119300000Y-63950000D01*
X119300000Y-66050000D01*
X119296052Y-66069847D01*
X119288748Y-66119985D01*
X119284248Y-66129188D01*
X119280970Y-66145671D01*
X119263158Y-66172328D01*
X119252336Y-66194465D01*
X119240375Y-66206425D01*
X119226777Y-66226777D01*
X119206425Y-66240375D01*
X119194465Y-66252336D01*
X119172328Y-66263158D01*
X119145671Y-66280970D01*
X119129188Y-66284248D01*
X119119985Y-66288748D01*
X119069845Y-66296052D01*
X119050000Y-66300000D01*
X116950000Y-66300000D01*
X116930155Y-66296052D01*
X116880014Y-66288748D01*
X116870809Y-66284248D01*
X116854329Y-66280970D01*
X116827674Y-66263160D01*
X116805534Y-66252336D01*
X116793571Y-66240373D01*
X116773223Y-66226777D01*
X116759626Y-66206428D01*
X116747663Y-66194465D01*
X116736838Y-66172322D01*
X116719030Y-66145671D01*
X116715752Y-66129192D01*
X116711251Y-66119985D01*
X116703943Y-66069826D01*
X116700000Y-66050000D01*
X116700000Y-63950000D01*
X116703943Y-63930174D01*
X116711251Y-63880014D01*
X116715752Y-63870806D01*
X116719030Y-63854329D01*
X116736836Y-63827679D01*
X116747663Y-63805534D01*
X116759628Y-63793568D01*
X116773223Y-63773223D01*
X116793568Y-63759628D01*
X116805534Y-63747663D01*
X116827679Y-63736836D01*
X116854329Y-63719030D01*
X116870806Y-63715752D01*
X116880014Y-63711251D01*
X116930175Y-63703943D01*
X116950000Y-63700000D01*
X119050000Y-63700000D01*
X119069828Y-63703944D01*
G37*
G36*
X123383479Y-63735919D02*
G01*
X123577488Y-63798957D01*
X123759248Y-63891568D01*
X123924282Y-64011472D01*
X124068528Y-64155718D01*
X124188432Y-64320752D01*
X124281043Y-64502512D01*
X124344081Y-64696521D01*
X124375993Y-64898003D01*
X124375993Y-65101997D01*
X124344081Y-65303479D01*
X124281043Y-65497488D01*
X124188432Y-65679248D01*
X124068528Y-65844282D01*
X123924282Y-65988528D01*
X123759248Y-66108432D01*
X123577488Y-66201043D01*
X123383479Y-66264081D01*
X123181997Y-66295993D01*
X122978003Y-66295993D01*
X122776521Y-66264081D01*
X122582512Y-66201043D01*
X122400752Y-66108432D01*
X122235718Y-65988528D01*
X122091472Y-65844282D01*
X121971568Y-65679248D01*
X121878957Y-65497488D01*
X121815919Y-65303479D01*
X121784007Y-65101997D01*
X121784007Y-64898003D01*
X121815919Y-64696521D01*
X121878957Y-64502512D01*
X121971568Y-64320752D01*
X122091472Y-64155718D01*
X122235718Y-64011472D01*
X122400752Y-63891568D01*
X122582512Y-63798957D01*
X122776521Y-63735919D01*
X122978003Y-63704007D01*
X123181997Y-63704007D01*
X123383479Y-63735919D01*
G37*
G36*
X39749005Y-64771003D02*
G01*
X39879406Y-64825017D01*
X39996763Y-64903432D01*
X40096568Y-65003237D01*
X40174983Y-65120594D01*
X40228997Y-65250995D01*
X40256533Y-65389428D01*
X40256533Y-65530572D01*
X40228997Y-65669005D01*
X40174983Y-65799406D01*
X40096568Y-65916763D01*
X39996763Y-66016568D01*
X39879406Y-66094983D01*
X39749005Y-66148997D01*
X39610572Y-66176533D01*
X39469428Y-66176533D01*
X39330995Y-66148997D01*
X39200594Y-66094983D01*
X39083237Y-66016568D01*
X38983432Y-65916763D01*
X38905017Y-65799406D01*
X38851003Y-65669005D01*
X38823467Y-65530572D01*
X38823467Y-65389428D01*
X38851003Y-65250995D01*
X38905017Y-65120594D01*
X38983432Y-65003237D01*
X39083237Y-64903432D01*
X39200594Y-64825017D01*
X39330995Y-64771003D01*
X39469428Y-64743467D01*
X39610572Y-64743467D01*
X39749005Y-64771003D01*
G37*
G36*
X37209005Y-62231003D02*
G01*
X37339406Y-62285017D01*
X37456763Y-62363432D01*
X37556568Y-62463237D01*
X37634983Y-62580594D01*
X37688997Y-62710995D01*
X37716533Y-62849428D01*
X37716533Y-62990572D01*
X37688997Y-63129005D01*
X37634983Y-63259406D01*
X37556568Y-63376763D01*
X37456763Y-63476568D01*
X37339406Y-63554983D01*
X37209005Y-63608997D01*
X37070572Y-63636533D01*
X36929428Y-63636533D01*
X36790995Y-63608997D01*
X36660594Y-63554983D01*
X36543237Y-63476568D01*
X36443432Y-63376763D01*
X36365017Y-63259406D01*
X36311003Y-63129005D01*
X36283467Y-62990572D01*
X36283467Y-62849428D01*
X36311003Y-62710995D01*
X36365017Y-62580594D01*
X36443432Y-62463237D01*
X36543237Y-62363432D01*
X36660594Y-62285017D01*
X36790995Y-62231003D01*
X36929428Y-62203467D01*
X37070572Y-62203467D01*
X37209005Y-62231003D01*
G37*
G36*
X10619828Y-59003944D02*
G01*
X10669985Y-59011251D01*
X10679192Y-59015752D01*
X10695671Y-59019030D01*
X10722322Y-59036838D01*
X10744465Y-59047663D01*
X10756428Y-59059626D01*
X10776777Y-59073223D01*
X10790373Y-59093571D01*
X10802336Y-59105534D01*
X10813160Y-59127674D01*
X10830970Y-59154329D01*
X10834248Y-59170809D01*
X10838748Y-59180014D01*
X10846053Y-59230157D01*
X10850000Y-59250000D01*
X10850000Y-60750000D01*
X10846052Y-60769847D01*
X10838748Y-60819985D01*
X10834248Y-60829188D01*
X10830970Y-60845671D01*
X10813158Y-60872328D01*
X10802336Y-60894465D01*
X10790375Y-60906425D01*
X10776777Y-60926777D01*
X10756425Y-60940375D01*
X10744465Y-60952336D01*
X10722328Y-60963158D01*
X10695671Y-60980970D01*
X10679188Y-60984248D01*
X10669985Y-60988748D01*
X10619845Y-60996052D01*
X10600000Y-61000000D01*
X9400000Y-61000000D01*
X9380155Y-60996052D01*
X9330014Y-60988748D01*
X9320809Y-60984248D01*
X9304329Y-60980970D01*
X9277674Y-60963160D01*
X9255534Y-60952336D01*
X9243571Y-60940373D01*
X9223223Y-60926777D01*
X9209626Y-60906428D01*
X9197663Y-60894465D01*
X9186838Y-60872322D01*
X9169030Y-60845671D01*
X9165752Y-60829192D01*
X9161251Y-60819985D01*
X9153943Y-60769826D01*
X9150000Y-60750000D01*
X9150000Y-59250000D01*
X9153943Y-59230174D01*
X9161251Y-59180014D01*
X9165752Y-59170806D01*
X9169030Y-59154329D01*
X9186836Y-59127679D01*
X9197663Y-59105534D01*
X9209628Y-59093568D01*
X9223223Y-59073223D01*
X9243568Y-59059628D01*
X9255534Y-59047663D01*
X9277679Y-59036836D01*
X9304329Y-59019030D01*
X9320806Y-59015752D01*
X9330014Y-59011251D01*
X9380175Y-59003943D01*
X9400000Y-59000000D01*
X10600000Y-59000000D01*
X10619828Y-59003944D01*
G37*
G36*
X20232228Y-59234448D02*
G01*
X20377117Y-59294463D01*
X20507515Y-59381592D01*
X20618408Y-59492485D01*
X20705537Y-59622883D01*
X20765552Y-59767772D01*
X20796148Y-59921586D01*
X20796148Y-60078414D01*
X20765552Y-60232228D01*
X20705537Y-60377117D01*
X20618408Y-60507515D01*
X20507515Y-60618408D01*
X20377117Y-60705537D01*
X20232228Y-60765552D01*
X20078414Y-60796148D01*
X19921586Y-60796148D01*
X19767772Y-60765552D01*
X19622883Y-60705537D01*
X19492485Y-60618408D01*
X19381592Y-60507515D01*
X19294463Y-60377117D01*
X19234448Y-60232228D01*
X19203852Y-60078414D01*
X19203852Y-59921586D01*
X19234448Y-59767772D01*
X19294463Y-59622883D01*
X19381592Y-59492485D01*
X19492485Y-59381592D01*
X19622883Y-59294463D01*
X19767772Y-59234448D01*
X19921586Y-59203852D01*
X20078414Y-59203852D01*
X20232228Y-59234448D01*
G37*
G36*
X30392228Y-59234448D02*
G01*
X30537117Y-59294463D01*
X30667515Y-59381592D01*
X30778408Y-59492485D01*
X30865537Y-59622883D01*
X30925552Y-59767772D01*
X30956148Y-59921586D01*
X30956148Y-60078414D01*
X30925552Y-60232228D01*
X30865537Y-60377117D01*
X30778408Y-60507515D01*
X30667515Y-60618408D01*
X30537117Y-60705537D01*
X30392228Y-60765552D01*
X30238414Y-60796148D01*
X30081586Y-60796148D01*
X29927772Y-60765552D01*
X29782883Y-60705537D01*
X29652485Y-60618408D01*
X29541592Y-60507515D01*
X29454463Y-60377117D01*
X29394448Y-60232228D01*
X29363852Y-60078414D01*
X29363852Y-59921586D01*
X29394448Y-59767772D01*
X29454463Y-59622883D01*
X29541592Y-59492485D01*
X29652485Y-59381592D01*
X29782883Y-59294463D01*
X29927772Y-59234448D01*
X30081586Y-59203852D01*
X30238414Y-59203852D01*
X30392228Y-59234448D01*
G37*
G36*
X57334441Y-56184932D02*
G01*
X57345535Y-56184932D01*
X57400164Y-56193584D01*
X57532102Y-56210954D01*
X57564296Y-56219580D01*
X57593513Y-56224208D01*
X57649698Y-56242463D01*
X57734237Y-56265116D01*
X57788178Y-56287459D01*
X57832293Y-56301793D01*
X57873618Y-56322849D01*
X57927566Y-56345195D01*
X58003375Y-56388963D01*
X58055998Y-56415776D01*
X58079922Y-56433157D01*
X58108794Y-56449827D01*
X58214392Y-56530856D01*
X58259117Y-56563350D01*
X58266957Y-56571190D01*
X58274810Y-56577216D01*
X58422783Y-56725189D01*
X58428808Y-56733041D01*
X58436650Y-56740883D01*
X58469147Y-56785612D01*
X58550172Y-56891205D01*
X58566840Y-56920075D01*
X58584224Y-56944002D01*
X58611039Y-56996631D01*
X58654804Y-57072433D01*
X58677147Y-57126375D01*
X58698207Y-57167707D01*
X58712542Y-57211827D01*
X58734883Y-57265762D01*
X58757531Y-57350288D01*
X58775792Y-57406487D01*
X58780420Y-57435709D01*
X58789045Y-57467897D01*
X58806414Y-57599827D01*
X58815068Y-57654465D01*
X58815068Y-57665558D01*
X58816360Y-57675372D01*
X58816360Y-57884627D01*
X58815068Y-57894440D01*
X58815068Y-57905535D01*
X58806413Y-57960177D01*
X58789045Y-58092102D01*
X58780420Y-58124287D01*
X58775792Y-58153513D01*
X58757530Y-58209716D01*
X58734883Y-58294237D01*
X58712544Y-58348167D01*
X58698207Y-58392293D01*
X58677145Y-58433629D01*
X58654804Y-58487566D01*
X58611044Y-58563360D01*
X58584224Y-58615998D01*
X58566837Y-58639928D01*
X58550172Y-58668794D01*
X58469161Y-58774368D01*
X58436650Y-58819117D01*
X58428805Y-58826961D01*
X58422783Y-58834810D01*
X58274810Y-58982783D01*
X58266961Y-58988805D01*
X58259117Y-58996650D01*
X58214368Y-59029161D01*
X58108794Y-59110172D01*
X58079928Y-59126837D01*
X58055998Y-59144224D01*
X58003360Y-59171044D01*
X57927566Y-59214804D01*
X57873629Y-59237145D01*
X57832293Y-59258207D01*
X57788167Y-59272544D01*
X57734237Y-59294883D01*
X57649716Y-59317530D01*
X57593513Y-59335792D01*
X57564287Y-59340420D01*
X57532102Y-59349045D01*
X57400177Y-59366413D01*
X57345535Y-59375068D01*
X57334441Y-59375068D01*
X57324627Y-59376360D01*
X57115373Y-59376360D01*
X57105559Y-59375068D01*
X57094465Y-59375068D01*
X57039824Y-59366413D01*
X56907897Y-59349045D01*
X56875709Y-59340420D01*
X56846487Y-59335792D01*
X56790288Y-59317531D01*
X56705762Y-59294883D01*
X56651827Y-59272542D01*
X56607707Y-59258207D01*
X56566375Y-59237147D01*
X56512433Y-59214804D01*
X56436631Y-59171039D01*
X56384002Y-59144224D01*
X56360075Y-59126840D01*
X56331205Y-59110172D01*
X56225612Y-59029147D01*
X56180883Y-58996650D01*
X56173041Y-58988808D01*
X56165189Y-58982783D01*
X56017216Y-58834810D01*
X56011190Y-58826957D01*
X56003350Y-58819117D01*
X55970856Y-58774392D01*
X55889827Y-58668794D01*
X55873157Y-58639922D01*
X55855776Y-58615998D01*
X55828963Y-58563375D01*
X55785195Y-58487566D01*
X55762849Y-58433618D01*
X55741793Y-58392293D01*
X55727459Y-58348178D01*
X55705116Y-58294237D01*
X55682463Y-58209698D01*
X55664208Y-58153513D01*
X55659580Y-58124296D01*
X55650954Y-58092102D01*
X55633584Y-57960164D01*
X55624932Y-57905535D01*
X55624932Y-57894440D01*
X55623640Y-57884627D01*
X55623640Y-57675372D01*
X55624932Y-57665558D01*
X55624932Y-57654465D01*
X55633583Y-57599840D01*
X55650954Y-57467897D01*
X55659580Y-57435700D01*
X55664208Y-57406487D01*
X55682462Y-57350306D01*
X55705116Y-57265762D01*
X55727460Y-57211816D01*
X55741793Y-57167707D01*
X55762847Y-57126385D01*
X55785195Y-57072433D01*
X55828967Y-56996616D01*
X55855776Y-56944002D01*
X55873154Y-56920081D01*
X55889827Y-56891205D01*
X55970869Y-56785588D01*
X56003350Y-56740883D01*
X56011187Y-56733045D01*
X56017216Y-56725189D01*
X56165189Y-56577216D01*
X56173045Y-56571187D01*
X56180883Y-56563350D01*
X56225588Y-56530869D01*
X56331205Y-56449827D01*
X56360081Y-56433154D01*
X56384002Y-56415776D01*
X56436616Y-56388967D01*
X56512433Y-56345195D01*
X56566385Y-56322847D01*
X56607707Y-56301793D01*
X56651816Y-56287460D01*
X56705762Y-56265116D01*
X56790306Y-56242462D01*
X56846487Y-56224208D01*
X56875700Y-56219580D01*
X56907897Y-56210954D01*
X57039837Y-56193584D01*
X57094465Y-56184932D01*
X57105559Y-56184932D01*
X57115373Y-56183640D01*
X57324627Y-56183640D01*
X57334441Y-56184932D01*
G37*
G36*
X92894441Y-56184932D02*
G01*
X92905535Y-56184932D01*
X92960164Y-56193584D01*
X93092102Y-56210954D01*
X93124296Y-56219580D01*
X93153513Y-56224208D01*
X93209698Y-56242463D01*
X93294237Y-56265116D01*
X93348178Y-56287459D01*
X93392293Y-56301793D01*
X93433618Y-56322849D01*
X93487566Y-56345195D01*
X93563375Y-56388963D01*
X93615998Y-56415776D01*
X93639922Y-56433157D01*
X93668794Y-56449827D01*
X93774392Y-56530856D01*
X93819117Y-56563350D01*
X93826957Y-56571190D01*
X93834810Y-56577216D01*
X93982783Y-56725189D01*
X93988808Y-56733041D01*
X93996650Y-56740883D01*
X94029147Y-56785612D01*
X94110172Y-56891205D01*
X94126840Y-56920075D01*
X94144224Y-56944002D01*
X94171039Y-56996631D01*
X94214804Y-57072433D01*
X94237147Y-57126375D01*
X94258207Y-57167707D01*
X94272542Y-57211827D01*
X94294883Y-57265762D01*
X94317531Y-57350288D01*
X94335792Y-57406487D01*
X94340420Y-57435709D01*
X94349045Y-57467897D01*
X94366414Y-57599827D01*
X94375068Y-57654465D01*
X94375068Y-57665558D01*
X94376360Y-57675372D01*
X94376360Y-57884627D01*
X94375068Y-57894440D01*
X94375068Y-57905535D01*
X94366413Y-57960177D01*
X94349045Y-58092102D01*
X94340420Y-58124287D01*
X94335792Y-58153513D01*
X94317530Y-58209716D01*
X94294883Y-58294237D01*
X94272544Y-58348167D01*
X94258207Y-58392293D01*
X94237145Y-58433629D01*
X94214804Y-58487566D01*
X94171044Y-58563360D01*
X94144224Y-58615998D01*
X94126837Y-58639928D01*
X94110172Y-58668794D01*
X94029161Y-58774368D01*
X93996650Y-58819117D01*
X93988805Y-58826961D01*
X93982783Y-58834810D01*
X93834810Y-58982783D01*
X93826961Y-58988805D01*
X93819117Y-58996650D01*
X93774368Y-59029161D01*
X93668794Y-59110172D01*
X93639928Y-59126837D01*
X93615998Y-59144224D01*
X93563360Y-59171044D01*
X93487566Y-59214804D01*
X93433629Y-59237145D01*
X93392293Y-59258207D01*
X93348167Y-59272544D01*
X93294237Y-59294883D01*
X93209716Y-59317530D01*
X93153513Y-59335792D01*
X93124287Y-59340420D01*
X93092102Y-59349045D01*
X92960177Y-59366413D01*
X92905535Y-59375068D01*
X92894441Y-59375068D01*
X92884627Y-59376360D01*
X92675373Y-59376360D01*
X92665559Y-59375068D01*
X92654465Y-59375068D01*
X92599824Y-59366413D01*
X92467897Y-59349045D01*
X92435709Y-59340420D01*
X92406487Y-59335792D01*
X92350288Y-59317531D01*
X92265762Y-59294883D01*
X92211827Y-59272542D01*
X92167707Y-59258207D01*
X92126375Y-59237147D01*
X92072433Y-59214804D01*
X91996631Y-59171039D01*
X91944002Y-59144224D01*
X91920075Y-59126840D01*
X91891205Y-59110172D01*
X91785612Y-59029147D01*
X91740883Y-58996650D01*
X91733041Y-58988808D01*
X91725189Y-58982783D01*
X91577216Y-58834810D01*
X91571190Y-58826957D01*
X91563350Y-58819117D01*
X91530856Y-58774392D01*
X91449827Y-58668794D01*
X91433157Y-58639922D01*
X91415776Y-58615998D01*
X91388963Y-58563375D01*
X91345195Y-58487566D01*
X91322849Y-58433618D01*
X91301793Y-58392293D01*
X91287459Y-58348178D01*
X91265116Y-58294237D01*
X91242463Y-58209698D01*
X91224208Y-58153513D01*
X91219580Y-58124296D01*
X91210954Y-58092102D01*
X91193584Y-57960164D01*
X91184932Y-57905535D01*
X91184932Y-57894440D01*
X91183640Y-57884627D01*
X91183640Y-57675372D01*
X91184932Y-57665558D01*
X91184932Y-57654465D01*
X91193583Y-57599840D01*
X91210954Y-57467897D01*
X91219580Y-57435700D01*
X91224208Y-57406487D01*
X91242462Y-57350306D01*
X91265116Y-57265762D01*
X91287460Y-57211816D01*
X91301793Y-57167707D01*
X91322847Y-57126385D01*
X91345195Y-57072433D01*
X91388967Y-56996616D01*
X91415776Y-56944002D01*
X91433154Y-56920081D01*
X91449827Y-56891205D01*
X91530869Y-56785588D01*
X91563350Y-56740883D01*
X91571187Y-56733045D01*
X91577216Y-56725189D01*
X91725189Y-56577216D01*
X91733045Y-56571187D01*
X91740883Y-56563350D01*
X91785588Y-56530869D01*
X91891205Y-56449827D01*
X91920081Y-56433154D01*
X91944002Y-56415776D01*
X91996616Y-56388967D01*
X92072433Y-56345195D01*
X92126385Y-56322847D01*
X92167707Y-56301793D01*
X92211816Y-56287460D01*
X92265762Y-56265116D01*
X92350306Y-56242462D01*
X92406487Y-56224208D01*
X92435700Y-56219580D01*
X92467897Y-56210954D01*
X92599837Y-56193584D01*
X92654465Y-56184932D01*
X92665559Y-56184932D01*
X92675373Y-56183640D01*
X92884627Y-56183640D01*
X92894441Y-56184932D01*
G37*
G36*
X35969824Y-56803943D02*
G01*
X36019985Y-56811251D01*
X36029192Y-56815752D01*
X36045670Y-56819030D01*
X36072317Y-56836835D01*
X36094465Y-56847663D01*
X36106433Y-56859631D01*
X36126776Y-56873224D01*
X36140368Y-56893566D01*
X36152336Y-56905534D01*
X36163162Y-56927679D01*
X36180970Y-56954330D01*
X36184247Y-56970808D01*
X36188748Y-56980014D01*
X36196057Y-57030187D01*
X36199999Y-57050002D01*
X36199999Y-57057238D01*
X36200000Y-57057245D01*
X36200000Y-58050460D01*
X36200000Y-58949999D01*
X36196054Y-58969833D01*
X36188748Y-59019985D01*
X36184248Y-59029189D01*
X36180970Y-59045670D01*
X36163160Y-59072322D01*
X36152336Y-59094465D01*
X36140370Y-59106430D01*
X36126776Y-59126776D01*
X36106430Y-59140370D01*
X36094465Y-59152336D01*
X36072322Y-59163160D01*
X36045670Y-59180970D01*
X36029189Y-59184247D01*
X36019985Y-59188748D01*
X35969813Y-59196057D01*
X35949998Y-59199999D01*
X35942761Y-59199999D01*
X35942755Y-59200000D01*
X34057245Y-59200000D01*
X34057244Y-59199999D01*
X34050001Y-59200000D01*
X34030169Y-59196055D01*
X33980014Y-59188748D01*
X33970809Y-59184247D01*
X33954330Y-59180970D01*
X33927679Y-59163162D01*
X33905534Y-59152336D01*
X33893566Y-59140368D01*
X33873224Y-59126776D01*
X33859631Y-59106433D01*
X33847663Y-59094465D01*
X33836835Y-59072317D01*
X33819030Y-59045670D01*
X33815752Y-59029193D01*
X33811251Y-59019985D01*
X33803941Y-58969808D01*
X33800001Y-58949998D01*
X33800000Y-58942760D01*
X33800000Y-58942754D01*
X33800000Y-57057245D01*
X33800000Y-57057244D01*
X33800000Y-57050001D01*
X33803943Y-57030175D01*
X33811251Y-56980014D01*
X33815752Y-56970805D01*
X33819030Y-56954330D01*
X33836833Y-56927685D01*
X33847663Y-56905534D01*
X33859633Y-56893563D01*
X33873224Y-56873224D01*
X33893563Y-56859633D01*
X33905534Y-56847663D01*
X33927685Y-56836833D01*
X33954330Y-56819030D01*
X33970804Y-56815753D01*
X33980014Y-56811251D01*
X34030193Y-56803940D01*
X34050002Y-56800001D01*
X34057238Y-56800000D01*
X34057245Y-56800000D01*
X35942755Y-56800000D01*
X35949999Y-56800000D01*
X35969824Y-56803943D01*
G37*
G36*
X45440134Y-56833156D02*
G01*
X45619220Y-56891345D01*
X45786998Y-56976832D01*
X45939338Y-57087513D01*
X46072487Y-57220662D01*
X46183168Y-57373002D01*
X46268655Y-57540780D01*
X46326844Y-57719866D01*
X46356301Y-57905849D01*
X46356301Y-58094151D01*
X46326844Y-58280134D01*
X46268655Y-58459220D01*
X46183168Y-58626998D01*
X46072487Y-58779338D01*
X45939338Y-58912487D01*
X45786998Y-59023168D01*
X45619220Y-59108655D01*
X45440134Y-59166844D01*
X45254151Y-59196301D01*
X45065849Y-59196301D01*
X44879866Y-59166844D01*
X44700780Y-59108655D01*
X44533002Y-59023168D01*
X44380662Y-58912487D01*
X44247513Y-58779338D01*
X44136832Y-58626998D01*
X44051345Y-58459220D01*
X43993156Y-58280134D01*
X43963699Y-58094151D01*
X43963699Y-57905849D01*
X43993156Y-57719866D01*
X44051345Y-57540780D01*
X44136832Y-57373002D01*
X44247513Y-57220662D01*
X44380662Y-57087513D01*
X44533002Y-56976832D01*
X44700780Y-56891345D01*
X44879866Y-56833156D01*
X45065849Y-56803699D01*
X45254151Y-56803699D01*
X45440134Y-56833156D01*
G37*
G36*
X10246742Y-56536601D02*
G01*
X10400687Y-56600367D01*
X10539234Y-56692941D01*
X10657059Y-56810766D01*
X10749633Y-56949313D01*
X10813399Y-57103258D01*
X10845907Y-57266685D01*
X10850000Y-57350000D01*
X10850000Y-57650000D01*
X10845907Y-57733315D01*
X10813399Y-57896742D01*
X10749633Y-58050687D01*
X10657059Y-58189234D01*
X10539234Y-58307059D01*
X10400687Y-58399633D01*
X10246742Y-58463399D01*
X10083315Y-58495907D01*
X9916685Y-58495907D01*
X9753258Y-58463399D01*
X9599313Y-58399633D01*
X9460766Y-58307059D01*
X9342941Y-58189234D01*
X9250367Y-58050687D01*
X9186601Y-57896742D01*
X9154093Y-57733315D01*
X9150000Y-57650000D01*
X9150000Y-57350000D01*
X9154093Y-57266685D01*
X9186601Y-57103258D01*
X9250367Y-56949313D01*
X9342941Y-56810766D01*
X9460766Y-56692941D01*
X9599313Y-56600367D01*
X9753258Y-56536601D01*
X9916685Y-56504093D01*
X10083315Y-56504093D01*
X10246742Y-56536601D01*
G37*
G36*
X57334441Y-51104932D02*
G01*
X57345535Y-51104932D01*
X57400164Y-51113584D01*
X57532102Y-51130954D01*
X57564296Y-51139580D01*
X57593513Y-51144208D01*
X57649698Y-51162463D01*
X57734237Y-51185116D01*
X57788178Y-51207459D01*
X57832293Y-51221793D01*
X57873618Y-51242849D01*
X57927566Y-51265195D01*
X58003375Y-51308963D01*
X58055998Y-51335776D01*
X58079922Y-51353157D01*
X58108794Y-51369827D01*
X58214392Y-51450856D01*
X58259117Y-51483350D01*
X58266957Y-51491190D01*
X58274810Y-51497216D01*
X58422783Y-51645189D01*
X58428808Y-51653041D01*
X58436650Y-51660883D01*
X58469147Y-51705612D01*
X58550172Y-51811205D01*
X58566840Y-51840075D01*
X58584224Y-51864002D01*
X58611039Y-51916631D01*
X58654804Y-51992433D01*
X58677147Y-52046375D01*
X58698207Y-52087707D01*
X58712542Y-52131827D01*
X58734883Y-52185762D01*
X58757531Y-52270288D01*
X58775792Y-52326487D01*
X58780420Y-52355709D01*
X58789045Y-52387897D01*
X58806414Y-52519827D01*
X58815068Y-52574465D01*
X58815068Y-52585558D01*
X58816360Y-52595372D01*
X58816360Y-52804627D01*
X58815068Y-52814440D01*
X58815068Y-52825535D01*
X58806413Y-52880177D01*
X58789045Y-53012102D01*
X58780420Y-53044287D01*
X58775792Y-53073513D01*
X58757530Y-53129716D01*
X58734883Y-53214237D01*
X58712544Y-53268167D01*
X58698207Y-53312293D01*
X58677145Y-53353629D01*
X58654804Y-53407566D01*
X58611044Y-53483360D01*
X58584224Y-53535998D01*
X58566837Y-53559928D01*
X58550172Y-53588794D01*
X58469161Y-53694368D01*
X58436650Y-53739117D01*
X58428805Y-53746961D01*
X58422783Y-53754810D01*
X58274810Y-53902783D01*
X58266961Y-53908805D01*
X58259117Y-53916650D01*
X58214368Y-53949161D01*
X58108794Y-54030172D01*
X58079928Y-54046837D01*
X58055998Y-54064224D01*
X58003360Y-54091044D01*
X57927566Y-54134804D01*
X57873629Y-54157145D01*
X57832293Y-54178207D01*
X57788167Y-54192544D01*
X57734237Y-54214883D01*
X57649716Y-54237530D01*
X57593513Y-54255792D01*
X57564287Y-54260420D01*
X57532102Y-54269045D01*
X57400177Y-54286413D01*
X57345535Y-54295068D01*
X57334441Y-54295068D01*
X57324627Y-54296360D01*
X57115373Y-54296360D01*
X57105559Y-54295068D01*
X57094465Y-54295068D01*
X57039824Y-54286413D01*
X56907897Y-54269045D01*
X56875709Y-54260420D01*
X56846487Y-54255792D01*
X56790288Y-54237531D01*
X56705762Y-54214883D01*
X56651827Y-54192542D01*
X56607707Y-54178207D01*
X56566375Y-54157147D01*
X56512433Y-54134804D01*
X56436631Y-54091039D01*
X56384002Y-54064224D01*
X56360075Y-54046840D01*
X56331205Y-54030172D01*
X56225612Y-53949147D01*
X56180883Y-53916650D01*
X56173041Y-53908808D01*
X56165189Y-53902783D01*
X56017216Y-53754810D01*
X56011190Y-53746957D01*
X56003350Y-53739117D01*
X55970856Y-53694392D01*
X55889827Y-53588794D01*
X55873157Y-53559922D01*
X55855776Y-53535998D01*
X55828963Y-53483375D01*
X55785195Y-53407566D01*
X55762849Y-53353618D01*
X55741793Y-53312293D01*
X55727459Y-53268178D01*
X55705116Y-53214237D01*
X55682463Y-53129698D01*
X55664208Y-53073513D01*
X55659580Y-53044296D01*
X55650954Y-53012102D01*
X55633584Y-52880164D01*
X55624932Y-52825535D01*
X55624932Y-52814440D01*
X55623640Y-52804627D01*
X55623640Y-52595372D01*
X55624932Y-52585558D01*
X55624932Y-52574465D01*
X55633583Y-52519840D01*
X55650954Y-52387897D01*
X55659580Y-52355700D01*
X55664208Y-52326487D01*
X55682462Y-52270306D01*
X55705116Y-52185762D01*
X55727460Y-52131816D01*
X55741793Y-52087707D01*
X55762847Y-52046385D01*
X55785195Y-51992433D01*
X55828967Y-51916616D01*
X55855776Y-51864002D01*
X55873154Y-51840081D01*
X55889827Y-51811205D01*
X55970869Y-51705588D01*
X56003350Y-51660883D01*
X56011187Y-51653045D01*
X56017216Y-51645189D01*
X56165189Y-51497216D01*
X56173045Y-51491187D01*
X56180883Y-51483350D01*
X56225588Y-51450869D01*
X56331205Y-51369827D01*
X56360081Y-51353154D01*
X56384002Y-51335776D01*
X56436616Y-51308967D01*
X56512433Y-51265195D01*
X56566385Y-51242847D01*
X56607707Y-51221793D01*
X56651816Y-51207460D01*
X56705762Y-51185116D01*
X56790306Y-51162462D01*
X56846487Y-51144208D01*
X56875700Y-51139580D01*
X56907897Y-51130954D01*
X57039837Y-51113584D01*
X57094465Y-51104932D01*
X57105559Y-51104932D01*
X57115373Y-51103640D01*
X57324627Y-51103640D01*
X57334441Y-51104932D01*
G37*
G36*
X92894441Y-51104932D02*
G01*
X92905535Y-51104932D01*
X92960164Y-51113584D01*
X93092102Y-51130954D01*
X93124296Y-51139580D01*
X93153513Y-51144208D01*
X93209698Y-51162463D01*
X93294237Y-51185116D01*
X93348178Y-51207459D01*
X93392293Y-51221793D01*
X93433618Y-51242849D01*
X93487566Y-51265195D01*
X93563375Y-51308963D01*
X93615998Y-51335776D01*
X93639922Y-51353157D01*
X93668794Y-51369827D01*
X93774392Y-51450856D01*
X93819117Y-51483350D01*
X93826957Y-51491190D01*
X93834810Y-51497216D01*
X93982783Y-51645189D01*
X93988808Y-51653041D01*
X93996650Y-51660883D01*
X94029147Y-51705612D01*
X94110172Y-51811205D01*
X94126840Y-51840075D01*
X94144224Y-51864002D01*
X94171039Y-51916631D01*
X94214804Y-51992433D01*
X94237147Y-52046375D01*
X94258207Y-52087707D01*
X94272542Y-52131827D01*
X94294883Y-52185762D01*
X94317531Y-52270288D01*
X94335792Y-52326487D01*
X94340420Y-52355709D01*
X94349045Y-52387897D01*
X94366414Y-52519827D01*
X94375068Y-52574465D01*
X94375068Y-52585558D01*
X94376360Y-52595372D01*
X94376360Y-52804627D01*
X94375068Y-52814440D01*
X94375068Y-52825535D01*
X94366413Y-52880177D01*
X94349045Y-53012102D01*
X94340420Y-53044287D01*
X94335792Y-53073513D01*
X94317530Y-53129716D01*
X94294883Y-53214237D01*
X94272544Y-53268167D01*
X94258207Y-53312293D01*
X94237145Y-53353629D01*
X94214804Y-53407566D01*
X94171044Y-53483360D01*
X94144224Y-53535998D01*
X94126837Y-53559928D01*
X94110172Y-53588794D01*
X94029161Y-53694368D01*
X93996650Y-53739117D01*
X93988805Y-53746961D01*
X93982783Y-53754810D01*
X93834810Y-53902783D01*
X93826961Y-53908805D01*
X93819117Y-53916650D01*
X93774368Y-53949161D01*
X93668794Y-54030172D01*
X93639928Y-54046837D01*
X93615998Y-54064224D01*
X93563360Y-54091044D01*
X93487566Y-54134804D01*
X93433629Y-54157145D01*
X93392293Y-54178207D01*
X93348167Y-54192544D01*
X93294237Y-54214883D01*
X93209716Y-54237530D01*
X93153513Y-54255792D01*
X93124287Y-54260420D01*
X93092102Y-54269045D01*
X92960177Y-54286413D01*
X92905535Y-54295068D01*
X92894441Y-54295068D01*
X92884627Y-54296360D01*
X92675373Y-54296360D01*
X92665559Y-54295068D01*
X92654465Y-54295068D01*
X92599824Y-54286413D01*
X92467897Y-54269045D01*
X92435709Y-54260420D01*
X92406487Y-54255792D01*
X92350288Y-54237531D01*
X92265762Y-54214883D01*
X92211827Y-54192542D01*
X92167707Y-54178207D01*
X92126375Y-54157147D01*
X92072433Y-54134804D01*
X91996631Y-54091039D01*
X91944002Y-54064224D01*
X91920075Y-54046840D01*
X91891205Y-54030172D01*
X91785612Y-53949147D01*
X91740883Y-53916650D01*
X91733041Y-53908808D01*
X91725189Y-53902783D01*
X91577216Y-53754810D01*
X91571190Y-53746957D01*
X91563350Y-53739117D01*
X91530856Y-53694392D01*
X91449827Y-53588794D01*
X91433157Y-53559922D01*
X91415776Y-53535998D01*
X91388963Y-53483375D01*
X91345195Y-53407566D01*
X91322849Y-53353618D01*
X91301793Y-53312293D01*
X91287459Y-53268178D01*
X91265116Y-53214237D01*
X91242463Y-53129698D01*
X91224208Y-53073513D01*
X91219580Y-53044296D01*
X91210954Y-53012102D01*
X91193584Y-52880164D01*
X91184932Y-52825535D01*
X91184932Y-52814440D01*
X91183640Y-52804627D01*
X91183640Y-52595372D01*
X91184932Y-52585558D01*
X91184932Y-52574465D01*
X91193583Y-52519840D01*
X91210954Y-52387897D01*
X91219580Y-52355700D01*
X91224208Y-52326487D01*
X91242462Y-52270306D01*
X91265116Y-52185762D01*
X91287460Y-52131816D01*
X91301793Y-52087707D01*
X91322847Y-52046385D01*
X91345195Y-51992433D01*
X91388967Y-51916616D01*
X91415776Y-51864002D01*
X91433154Y-51840081D01*
X91449827Y-51811205D01*
X91530869Y-51705588D01*
X91563350Y-51660883D01*
X91571187Y-51653045D01*
X91577216Y-51645189D01*
X91725189Y-51497216D01*
X91733045Y-51491187D01*
X91740883Y-51483350D01*
X91785588Y-51450869D01*
X91891205Y-51369827D01*
X91920081Y-51353154D01*
X91944002Y-51335776D01*
X91996616Y-51308967D01*
X92072433Y-51265195D01*
X92126385Y-51242847D01*
X92167707Y-51221793D01*
X92211816Y-51207460D01*
X92265762Y-51185116D01*
X92350306Y-51162462D01*
X92406487Y-51144208D01*
X92435700Y-51139580D01*
X92467897Y-51130954D01*
X92599837Y-51113584D01*
X92654465Y-51104932D01*
X92665559Y-51104932D01*
X92675373Y-51103640D01*
X92884627Y-51103640D01*
X92894441Y-51104932D01*
G37*
G36*
X36232228Y-45234448D02*
G01*
X36377117Y-45294463D01*
X36507515Y-45381592D01*
X36618408Y-45492485D01*
X36705537Y-45622883D01*
X36765552Y-45767772D01*
X36796148Y-45921586D01*
X36796148Y-46078414D01*
X36765552Y-46232228D01*
X36705537Y-46377117D01*
X36618408Y-46507515D01*
X36507515Y-46618408D01*
X36377117Y-46705537D01*
X36232228Y-46765552D01*
X36078414Y-46796148D01*
X35921586Y-46796148D01*
X35767772Y-46765552D01*
X35622883Y-46705537D01*
X35492485Y-46618408D01*
X35381592Y-46507515D01*
X35294463Y-46377117D01*
X35234448Y-46232228D01*
X35203852Y-46078414D01*
X35203852Y-45921586D01*
X35234448Y-45767772D01*
X35294463Y-45622883D01*
X35381592Y-45492485D01*
X35492485Y-45381592D01*
X35622883Y-45294463D01*
X35767772Y-45234448D01*
X35921586Y-45203852D01*
X36078414Y-45203852D01*
X36232228Y-45234448D01*
G37*
G36*
X38732228Y-45234448D02*
G01*
X38877117Y-45294463D01*
X39007515Y-45381592D01*
X39118408Y-45492485D01*
X39205537Y-45622883D01*
X39265552Y-45767772D01*
X39296148Y-45921586D01*
X39296148Y-46078414D01*
X39265552Y-46232228D01*
X39205537Y-46377117D01*
X39118408Y-46507515D01*
X39007515Y-46618408D01*
X38877117Y-46705537D01*
X38732228Y-46765552D01*
X38578414Y-46796148D01*
X38421586Y-46796148D01*
X38267772Y-46765552D01*
X38122883Y-46705537D01*
X37992485Y-46618408D01*
X37881592Y-46507515D01*
X37794463Y-46377117D01*
X37734448Y-46232228D01*
X37703852Y-46078414D01*
X37703852Y-45921586D01*
X37734448Y-45767772D01*
X37794463Y-45622883D01*
X37881592Y-45492485D01*
X37992485Y-45381592D01*
X38122883Y-45294463D01*
X38267772Y-45234448D01*
X38421586Y-45203852D01*
X38578414Y-45203852D01*
X38732228Y-45234448D01*
G37*
G36*
X75419444Y-37891312D02*
G01*
X75691095Y-37964100D01*
X75950921Y-38071724D01*
X76194476Y-38212340D01*
X76417594Y-38383544D01*
X76616456Y-38582406D01*
X76787660Y-38805524D01*
X76928276Y-39049079D01*
X77035900Y-39308905D01*
X77108688Y-39580556D01*
X77145397Y-39859383D01*
X77145397Y-40140617D01*
X77108688Y-40419444D01*
X77035900Y-40691095D01*
X76928276Y-40950921D01*
X76787660Y-41194476D01*
X76616456Y-41417594D01*
X76417594Y-41616456D01*
X76194476Y-41787660D01*
X75950921Y-41928276D01*
X75691095Y-42035900D01*
X75419444Y-42108688D01*
X75140617Y-42145397D01*
X74859383Y-42145397D01*
X74580556Y-42108688D01*
X74308905Y-42035900D01*
X74049079Y-41928276D01*
X73805524Y-41787660D01*
X73582406Y-41616456D01*
X73383544Y-41417594D01*
X73212340Y-41194476D01*
X73071724Y-40950921D01*
X72964100Y-40691095D01*
X72891312Y-40419444D01*
X72854603Y-40140617D01*
X72854603Y-39859383D01*
X72891312Y-39580556D01*
X72964100Y-39308905D01*
X73071724Y-39049079D01*
X73212340Y-38805524D01*
X73383544Y-38582406D01*
X73582406Y-38383544D01*
X73805524Y-38212340D01*
X74049079Y-38071724D01*
X74308905Y-37964100D01*
X74580556Y-37891312D01*
X74859383Y-37854603D01*
X75140617Y-37854603D01*
X75419444Y-37891312D01*
G37*
G36*
X28569828Y-39203944D02*
G01*
X28619985Y-39211251D01*
X28629192Y-39215752D01*
X28645671Y-39219030D01*
X28672322Y-39236838D01*
X28694465Y-39247663D01*
X28706428Y-39259626D01*
X28726777Y-39273223D01*
X28740373Y-39293571D01*
X28752336Y-39305534D01*
X28763160Y-39327674D01*
X28780970Y-39354329D01*
X28784248Y-39370809D01*
X28788748Y-39380014D01*
X28796053Y-39430157D01*
X28800000Y-39450000D01*
X28800000Y-40550000D01*
X28796052Y-40569847D01*
X28788748Y-40619985D01*
X28784248Y-40629188D01*
X28780970Y-40645671D01*
X28763158Y-40672328D01*
X28752336Y-40694465D01*
X28740375Y-40706425D01*
X28726777Y-40726777D01*
X28706425Y-40740375D01*
X28694465Y-40752336D01*
X28672328Y-40763158D01*
X28645671Y-40780970D01*
X28629188Y-40784248D01*
X28619985Y-40788748D01*
X28569845Y-40796052D01*
X28550000Y-40800000D01*
X27450000Y-40800000D01*
X27430155Y-40796052D01*
X27380014Y-40788748D01*
X27370809Y-40784248D01*
X27354329Y-40780970D01*
X27327674Y-40763160D01*
X27305534Y-40752336D01*
X27293571Y-40740373D01*
X27273223Y-40726777D01*
X27259626Y-40706428D01*
X27247663Y-40694465D01*
X27236838Y-40672322D01*
X27219030Y-40645671D01*
X27215752Y-40629192D01*
X27211251Y-40619985D01*
X27203943Y-40569826D01*
X27200000Y-40550000D01*
X27200000Y-39450000D01*
X27203943Y-39430174D01*
X27211251Y-39380014D01*
X27215752Y-39370806D01*
X27219030Y-39354329D01*
X27236836Y-39327679D01*
X27247663Y-39305534D01*
X27259628Y-39293568D01*
X27273223Y-39273223D01*
X27293568Y-39259628D01*
X27305534Y-39247663D01*
X27327679Y-39236836D01*
X27354329Y-39219030D01*
X27370806Y-39215752D01*
X27380014Y-39211251D01*
X27430175Y-39203943D01*
X27450000Y-39200000D01*
X28550000Y-39200000D01*
X28569828Y-39203944D01*
G37*
G36*
X30232228Y-39234448D02*
G01*
X30377117Y-39294463D01*
X30507515Y-39381592D01*
X30618408Y-39492485D01*
X30705537Y-39622883D01*
X30765552Y-39767772D01*
X30796148Y-39921586D01*
X30796148Y-40078414D01*
X30765552Y-40232228D01*
X30705537Y-40377117D01*
X30618408Y-40507515D01*
X30507515Y-40618408D01*
X30377117Y-40705537D01*
X30232228Y-40765552D01*
X30078414Y-40796148D01*
X29921586Y-40796148D01*
X29767772Y-40765552D01*
X29622883Y-40705537D01*
X29492485Y-40618408D01*
X29381592Y-40507515D01*
X29294463Y-40377117D01*
X29234448Y-40232228D01*
X29203852Y-40078414D01*
X29203852Y-39921586D01*
X29234448Y-39767772D01*
X29294463Y-39622883D01*
X29381592Y-39492485D01*
X29492485Y-39381592D01*
X29622883Y-39294463D01*
X29767772Y-39234448D01*
X29921586Y-39203852D01*
X30078414Y-39203852D01*
X30232228Y-39234448D01*
G37*
G36*
X44525000Y-40750000D02*
G01*
X43475000Y-40750000D01*
X43475000Y-39250000D01*
X44525000Y-39250000D01*
X44525000Y-40750000D01*
G37*
G36*
X45328857Y-39254491D02*
G01*
X45338526Y-39254491D01*
X45366378Y-39261954D01*
X45422260Y-39273069D01*
X45448639Y-39283995D01*
X45470909Y-39289963D01*
X45490876Y-39301491D01*
X45517256Y-39312418D01*
X45564635Y-39344075D01*
X45589600Y-39358489D01*
X45596433Y-39365322D01*
X45602747Y-39369541D01*
X45675458Y-39442252D01*
X45679676Y-39448565D01*
X45686511Y-39455400D01*
X45700926Y-39480368D01*
X45732581Y-39527743D01*
X45743506Y-39554120D01*
X45755037Y-39574091D01*
X45761005Y-39596364D01*
X45771930Y-39622739D01*
X45783042Y-39678608D01*
X45790509Y-39706474D01*
X45791454Y-39720901D01*
X45792471Y-39726012D01*
X45794515Y-39767608D01*
X45795000Y-39775000D01*
X45795000Y-40225000D01*
X45794515Y-40232394D01*
X45792471Y-40273987D01*
X45791454Y-40279096D01*
X45790509Y-40293526D01*
X45783041Y-40321394D01*
X45771930Y-40377260D01*
X45761005Y-40403632D01*
X45755037Y-40425909D01*
X45743505Y-40445882D01*
X45732581Y-40472256D01*
X45700930Y-40519624D01*
X45686511Y-40544600D01*
X45679674Y-40551436D01*
X45675458Y-40557747D01*
X45602747Y-40630458D01*
X45596436Y-40634674D01*
X45589600Y-40641511D01*
X45564624Y-40655930D01*
X45517256Y-40687581D01*
X45490882Y-40698505D01*
X45470909Y-40710037D01*
X45448632Y-40716005D01*
X45422260Y-40726930D01*
X45366385Y-40738044D01*
X45338526Y-40745509D01*
X45328857Y-40745509D01*
X45321411Y-40746990D01*
X45218589Y-40746990D01*
X45211143Y-40745509D01*
X45201474Y-40745509D01*
X45173615Y-40738044D01*
X45117739Y-40726930D01*
X45091364Y-40716005D01*
X45069091Y-40710037D01*
X45049120Y-40698506D01*
X45022743Y-40687581D01*
X44975368Y-40655926D01*
X44950400Y-40641511D01*
X44943565Y-40634676D01*
X44937252Y-40630458D01*
X44864541Y-40557747D01*
X44860322Y-40551433D01*
X44853489Y-40544600D01*
X44839075Y-40519635D01*
X44807418Y-40472256D01*
X44796491Y-40445876D01*
X44784963Y-40425909D01*
X44778995Y-40403639D01*
X44768069Y-40377260D01*
X44756954Y-40321379D01*
X44749491Y-40293526D01*
X44748545Y-40279104D01*
X44747528Y-40273987D01*
X44745483Y-40232383D01*
X44745000Y-40225000D01*
X44745000Y-39775000D01*
X44745483Y-39767619D01*
X44747528Y-39726012D01*
X44748545Y-39720894D01*
X44749491Y-39706474D01*
X44756953Y-39678622D01*
X44768069Y-39622739D01*
X44778996Y-39596357D01*
X44784963Y-39574091D01*
X44796489Y-39554126D01*
X44807418Y-39527743D01*
X44839079Y-39480357D01*
X44853489Y-39455400D01*
X44860320Y-39448568D01*
X44864541Y-39442252D01*
X44937252Y-39369541D01*
X44943568Y-39365320D01*
X44950400Y-39358489D01*
X44975357Y-39344079D01*
X45022743Y-39312418D01*
X45049126Y-39301489D01*
X45069091Y-39289963D01*
X45091357Y-39283996D01*
X45117739Y-39273069D01*
X45173622Y-39261953D01*
X45201474Y-39254491D01*
X45211143Y-39254491D01*
X45218589Y-39253010D01*
X45321411Y-39253010D01*
X45328857Y-39254491D01*
G37*
G36*
X46598857Y-39254491D02*
G01*
X46608526Y-39254491D01*
X46636378Y-39261954D01*
X46692260Y-39273069D01*
X46718639Y-39283995D01*
X46740909Y-39289963D01*
X46760876Y-39301491D01*
X46787256Y-39312418D01*
X46834635Y-39344075D01*
X46859600Y-39358489D01*
X46866433Y-39365322D01*
X46872747Y-39369541D01*
X46945458Y-39442252D01*
X46949676Y-39448565D01*
X46956511Y-39455400D01*
X46970926Y-39480368D01*
X47002581Y-39527743D01*
X47013506Y-39554120D01*
X47025037Y-39574091D01*
X47031005Y-39596364D01*
X47041930Y-39622739D01*
X47053042Y-39678608D01*
X47060509Y-39706474D01*
X47061454Y-39720901D01*
X47062471Y-39726012D01*
X47064515Y-39767608D01*
X47065000Y-39775000D01*
X47065000Y-40225000D01*
X47064515Y-40232394D01*
X47062471Y-40273987D01*
X47061454Y-40279096D01*
X47060509Y-40293526D01*
X47053041Y-40321394D01*
X47041930Y-40377260D01*
X47031005Y-40403632D01*
X47025037Y-40425909D01*
X47013505Y-40445882D01*
X47002581Y-40472256D01*
X46970930Y-40519624D01*
X46956511Y-40544600D01*
X46949674Y-40551436D01*
X46945458Y-40557747D01*
X46872747Y-40630458D01*
X46866436Y-40634674D01*
X46859600Y-40641511D01*
X46834624Y-40655930D01*
X46787256Y-40687581D01*
X46760882Y-40698505D01*
X46740909Y-40710037D01*
X46718632Y-40716005D01*
X46692260Y-40726930D01*
X46636385Y-40738044D01*
X46608526Y-40745509D01*
X46598857Y-40745509D01*
X46591411Y-40746990D01*
X46488589Y-40746990D01*
X46481143Y-40745509D01*
X46471474Y-40745509D01*
X46443615Y-40738044D01*
X46387739Y-40726930D01*
X46361364Y-40716005D01*
X46339091Y-40710037D01*
X46319120Y-40698506D01*
X46292743Y-40687581D01*
X46245368Y-40655926D01*
X46220400Y-40641511D01*
X46213565Y-40634676D01*
X46207252Y-40630458D01*
X46134541Y-40557747D01*
X46130322Y-40551433D01*
X46123489Y-40544600D01*
X46109075Y-40519635D01*
X46077418Y-40472256D01*
X46066491Y-40445876D01*
X46054963Y-40425909D01*
X46048995Y-40403639D01*
X46038069Y-40377260D01*
X46026954Y-40321379D01*
X46019491Y-40293526D01*
X46018545Y-40279104D01*
X46017528Y-40273987D01*
X46015483Y-40232383D01*
X46015000Y-40225000D01*
X46015000Y-39775000D01*
X46015483Y-39767619D01*
X46017528Y-39726012D01*
X46018545Y-39720894D01*
X46019491Y-39706474D01*
X46026953Y-39678622D01*
X46038069Y-39622739D01*
X46048996Y-39596357D01*
X46054963Y-39574091D01*
X46066489Y-39554126D01*
X46077418Y-39527743D01*
X46109079Y-39480357D01*
X46123489Y-39455400D01*
X46130320Y-39448568D01*
X46134541Y-39442252D01*
X46207252Y-39369541D01*
X46213568Y-39365320D01*
X46220400Y-39358489D01*
X46245357Y-39344079D01*
X46292743Y-39312418D01*
X46319126Y-39301489D01*
X46339091Y-39289963D01*
X46361357Y-39283996D01*
X46387739Y-39273069D01*
X46443622Y-39261953D01*
X46471474Y-39254491D01*
X46481143Y-39254491D01*
X46488589Y-39253010D01*
X46591411Y-39253010D01*
X46598857Y-39254491D01*
G37*
G36*
X36232228Y-33234448D02*
G01*
X36377117Y-33294463D01*
X36507515Y-33381592D01*
X36618408Y-33492485D01*
X36705537Y-33622883D01*
X36765552Y-33767772D01*
X36796148Y-33921586D01*
X36796148Y-34078414D01*
X36765552Y-34232228D01*
X36705537Y-34377117D01*
X36618408Y-34507515D01*
X36507515Y-34618408D01*
X36377117Y-34705537D01*
X36232228Y-34765552D01*
X36078414Y-34796148D01*
X35921586Y-34796148D01*
X35767772Y-34765552D01*
X35622883Y-34705537D01*
X35492485Y-34618408D01*
X35381592Y-34507515D01*
X35294463Y-34377117D01*
X35234448Y-34232228D01*
X35203852Y-34078414D01*
X35203852Y-33921586D01*
X35234448Y-33767772D01*
X35294463Y-33622883D01*
X35381592Y-33492485D01*
X35492485Y-33381592D01*
X35622883Y-33294463D01*
X35767772Y-33234448D01*
X35921586Y-33203852D01*
X36078414Y-33203852D01*
X36232228Y-33234448D01*
G37*
G36*
X38732228Y-33234448D02*
G01*
X38877117Y-33294463D01*
X39007515Y-33381592D01*
X39118408Y-33492485D01*
X39205537Y-33622883D01*
X39265552Y-33767772D01*
X39296148Y-33921586D01*
X39296148Y-34078414D01*
X39265552Y-34232228D01*
X39205537Y-34377117D01*
X39118408Y-34507515D01*
X39007515Y-34618408D01*
X38877117Y-34705537D01*
X38732228Y-34765552D01*
X38578414Y-34796148D01*
X38421586Y-34796148D01*
X38267772Y-34765552D01*
X38122883Y-34705537D01*
X37992485Y-34618408D01*
X37881592Y-34507515D01*
X37794463Y-34377117D01*
X37734448Y-34232228D01*
X37703852Y-34078414D01*
X37703852Y-33921586D01*
X37734448Y-33767772D01*
X37794463Y-33622883D01*
X37881592Y-33492485D01*
X37992485Y-33381592D01*
X38122883Y-33294463D01*
X38267772Y-33234448D01*
X38421586Y-33203852D01*
X38578414Y-33203852D01*
X38732228Y-33234448D01*
G37*
G36*
X57334441Y-25704932D02*
G01*
X57345535Y-25704932D01*
X57400164Y-25713584D01*
X57532102Y-25730954D01*
X57564296Y-25739580D01*
X57593513Y-25744208D01*
X57649698Y-25762463D01*
X57734237Y-25785116D01*
X57788178Y-25807459D01*
X57832293Y-25821793D01*
X57873618Y-25842849D01*
X57927566Y-25865195D01*
X58003375Y-25908963D01*
X58055998Y-25935776D01*
X58079922Y-25953157D01*
X58108794Y-25969827D01*
X58214392Y-26050856D01*
X58259117Y-26083350D01*
X58266957Y-26091190D01*
X58274810Y-26097216D01*
X58422783Y-26245189D01*
X58428808Y-26253041D01*
X58436650Y-26260883D01*
X58469147Y-26305612D01*
X58550172Y-26411205D01*
X58566840Y-26440075D01*
X58584224Y-26464002D01*
X58611039Y-26516631D01*
X58654804Y-26592433D01*
X58677147Y-26646375D01*
X58698207Y-26687707D01*
X58712542Y-26731827D01*
X58734883Y-26785762D01*
X58757531Y-26870288D01*
X58775792Y-26926487D01*
X58780420Y-26955709D01*
X58789045Y-26987897D01*
X58806414Y-27119827D01*
X58815068Y-27174465D01*
X58815068Y-27185558D01*
X58816360Y-27195372D01*
X58816360Y-27404627D01*
X58815068Y-27414440D01*
X58815068Y-27425535D01*
X58806413Y-27480177D01*
X58789045Y-27612102D01*
X58780420Y-27644287D01*
X58775792Y-27673513D01*
X58757530Y-27729716D01*
X58734883Y-27814237D01*
X58712544Y-27868167D01*
X58698207Y-27912293D01*
X58677145Y-27953629D01*
X58654804Y-28007566D01*
X58611044Y-28083360D01*
X58584224Y-28135998D01*
X58566837Y-28159928D01*
X58550172Y-28188794D01*
X58469161Y-28294368D01*
X58436650Y-28339117D01*
X58428805Y-28346961D01*
X58422783Y-28354810D01*
X58274810Y-28502783D01*
X58266961Y-28508805D01*
X58259117Y-28516650D01*
X58214368Y-28549161D01*
X58108794Y-28630172D01*
X58079928Y-28646837D01*
X58055998Y-28664224D01*
X58003360Y-28691044D01*
X57927566Y-28734804D01*
X57873629Y-28757145D01*
X57832293Y-28778207D01*
X57788167Y-28792544D01*
X57734237Y-28814883D01*
X57649716Y-28837530D01*
X57593513Y-28855792D01*
X57564287Y-28860420D01*
X57532102Y-28869045D01*
X57400177Y-28886413D01*
X57345535Y-28895068D01*
X57334441Y-28895068D01*
X57324627Y-28896360D01*
X57115373Y-28896360D01*
X57105559Y-28895068D01*
X57094465Y-28895068D01*
X57039824Y-28886413D01*
X56907897Y-28869045D01*
X56875709Y-28860420D01*
X56846487Y-28855792D01*
X56790288Y-28837531D01*
X56705762Y-28814883D01*
X56651827Y-28792542D01*
X56607707Y-28778207D01*
X56566375Y-28757147D01*
X56512433Y-28734804D01*
X56436631Y-28691039D01*
X56384002Y-28664224D01*
X56360075Y-28646840D01*
X56331205Y-28630172D01*
X56225612Y-28549147D01*
X56180883Y-28516650D01*
X56173041Y-28508808D01*
X56165189Y-28502783D01*
X56017216Y-28354810D01*
X56011190Y-28346957D01*
X56003350Y-28339117D01*
X55970856Y-28294392D01*
X55889827Y-28188794D01*
X55873157Y-28159922D01*
X55855776Y-28135998D01*
X55828963Y-28083375D01*
X55785195Y-28007566D01*
X55762849Y-27953618D01*
X55741793Y-27912293D01*
X55727459Y-27868178D01*
X55705116Y-27814237D01*
X55682463Y-27729698D01*
X55664208Y-27673513D01*
X55659580Y-27644296D01*
X55650954Y-27612102D01*
X55633584Y-27480164D01*
X55624932Y-27425535D01*
X55624932Y-27414440D01*
X55623640Y-27404627D01*
X55623640Y-27195372D01*
X55624932Y-27185558D01*
X55624932Y-27174465D01*
X55633583Y-27119840D01*
X55650954Y-26987897D01*
X55659580Y-26955700D01*
X55664208Y-26926487D01*
X55682462Y-26870306D01*
X55705116Y-26785762D01*
X55727460Y-26731816D01*
X55741793Y-26687707D01*
X55762847Y-26646385D01*
X55785195Y-26592433D01*
X55828967Y-26516616D01*
X55855776Y-26464002D01*
X55873154Y-26440081D01*
X55889827Y-26411205D01*
X55970869Y-26305588D01*
X56003350Y-26260883D01*
X56011187Y-26253045D01*
X56017216Y-26245189D01*
X56165189Y-26097216D01*
X56173045Y-26091187D01*
X56180883Y-26083350D01*
X56225588Y-26050869D01*
X56331205Y-25969827D01*
X56360081Y-25953154D01*
X56384002Y-25935776D01*
X56436616Y-25908967D01*
X56512433Y-25865195D01*
X56566385Y-25842847D01*
X56607707Y-25821793D01*
X56651816Y-25807460D01*
X56705762Y-25785116D01*
X56790306Y-25762462D01*
X56846487Y-25744208D01*
X56875700Y-25739580D01*
X56907897Y-25730954D01*
X57039837Y-25713584D01*
X57094465Y-25704932D01*
X57105559Y-25704932D01*
X57115373Y-25703640D01*
X57324627Y-25703640D01*
X57334441Y-25704932D01*
G37*
G36*
X92894441Y-25704932D02*
G01*
X92905535Y-25704932D01*
X92960164Y-25713584D01*
X93092102Y-25730954D01*
X93124296Y-25739580D01*
X93153513Y-25744208D01*
X93209698Y-25762463D01*
X93294237Y-25785116D01*
X93348178Y-25807459D01*
X93392293Y-25821793D01*
X93433618Y-25842849D01*
X93487566Y-25865195D01*
X93563375Y-25908963D01*
X93615998Y-25935776D01*
X93639922Y-25953157D01*
X93668794Y-25969827D01*
X93774392Y-26050856D01*
X93819117Y-26083350D01*
X93826957Y-26091190D01*
X93834810Y-26097216D01*
X93982783Y-26245189D01*
X93988808Y-26253041D01*
X93996650Y-26260883D01*
X94029147Y-26305612D01*
X94110172Y-26411205D01*
X94126840Y-26440075D01*
X94144224Y-26464002D01*
X94171039Y-26516631D01*
X94214804Y-26592433D01*
X94237147Y-26646375D01*
X94258207Y-26687707D01*
X94272542Y-26731827D01*
X94294883Y-26785762D01*
X94317531Y-26870288D01*
X94335792Y-26926487D01*
X94340420Y-26955709D01*
X94349045Y-26987897D01*
X94366414Y-27119827D01*
X94375068Y-27174465D01*
X94375068Y-27185558D01*
X94376360Y-27195372D01*
X94376360Y-27404627D01*
X94375068Y-27414440D01*
X94375068Y-27425535D01*
X94366413Y-27480177D01*
X94349045Y-27612102D01*
X94340420Y-27644287D01*
X94335792Y-27673513D01*
X94317530Y-27729716D01*
X94294883Y-27814237D01*
X94272544Y-27868167D01*
X94258207Y-27912293D01*
X94237145Y-27953629D01*
X94214804Y-28007566D01*
X94171044Y-28083360D01*
X94144224Y-28135998D01*
X94126837Y-28159928D01*
X94110172Y-28188794D01*
X94029161Y-28294368D01*
X93996650Y-28339117D01*
X93988805Y-28346961D01*
X93982783Y-28354810D01*
X93834810Y-28502783D01*
X93826961Y-28508805D01*
X93819117Y-28516650D01*
X93774368Y-28549161D01*
X93668794Y-28630172D01*
X93639928Y-28646837D01*
X93615998Y-28664224D01*
X93563360Y-28691044D01*
X93487566Y-28734804D01*
X93433629Y-28757145D01*
X93392293Y-28778207D01*
X93348167Y-28792544D01*
X93294237Y-28814883D01*
X93209716Y-28837530D01*
X93153513Y-28855792D01*
X93124287Y-28860420D01*
X93092102Y-28869045D01*
X92960177Y-28886413D01*
X92905535Y-28895068D01*
X92894441Y-28895068D01*
X92884627Y-28896360D01*
X92675373Y-28896360D01*
X92665559Y-28895068D01*
X92654465Y-28895068D01*
X92599824Y-28886413D01*
X92467897Y-28869045D01*
X92435709Y-28860420D01*
X92406487Y-28855792D01*
X92350288Y-28837531D01*
X92265762Y-28814883D01*
X92211827Y-28792542D01*
X92167707Y-28778207D01*
X92126375Y-28757147D01*
X92072433Y-28734804D01*
X91996631Y-28691039D01*
X91944002Y-28664224D01*
X91920075Y-28646840D01*
X91891205Y-28630172D01*
X91785612Y-28549147D01*
X91740883Y-28516650D01*
X91733041Y-28508808D01*
X91725189Y-28502783D01*
X91577216Y-28354810D01*
X91571190Y-28346957D01*
X91563350Y-28339117D01*
X91530856Y-28294392D01*
X91449827Y-28188794D01*
X91433157Y-28159922D01*
X91415776Y-28135998D01*
X91388963Y-28083375D01*
X91345195Y-28007566D01*
X91322849Y-27953618D01*
X91301793Y-27912293D01*
X91287459Y-27868178D01*
X91265116Y-27814237D01*
X91242463Y-27729698D01*
X91224208Y-27673513D01*
X91219580Y-27644296D01*
X91210954Y-27612102D01*
X91193584Y-27480164D01*
X91184932Y-27425535D01*
X91184932Y-27414440D01*
X91183640Y-27404627D01*
X91183640Y-27195372D01*
X91184932Y-27185558D01*
X91184932Y-27174465D01*
X91193583Y-27119840D01*
X91210954Y-26987897D01*
X91219580Y-26955700D01*
X91224208Y-26926487D01*
X91242462Y-26870306D01*
X91265116Y-26785762D01*
X91287460Y-26731816D01*
X91301793Y-26687707D01*
X91322847Y-26646385D01*
X91345195Y-26592433D01*
X91388967Y-26516616D01*
X91415776Y-26464002D01*
X91433154Y-26440081D01*
X91449827Y-26411205D01*
X91530869Y-26305588D01*
X91563350Y-26260883D01*
X91571187Y-26253045D01*
X91577216Y-26245189D01*
X91725189Y-26097216D01*
X91733045Y-26091187D01*
X91740883Y-26083350D01*
X91785588Y-26050869D01*
X91891205Y-25969827D01*
X91920081Y-25953154D01*
X91944002Y-25935776D01*
X91996616Y-25908967D01*
X92072433Y-25865195D01*
X92126385Y-25842847D01*
X92167707Y-25821793D01*
X92211816Y-25807460D01*
X92265762Y-25785116D01*
X92350306Y-25762462D01*
X92406487Y-25744208D01*
X92435700Y-25739580D01*
X92467897Y-25730954D01*
X92599837Y-25713584D01*
X92654465Y-25704932D01*
X92665559Y-25704932D01*
X92675373Y-25703640D01*
X92884627Y-25703640D01*
X92894441Y-25704932D01*
G37*
G36*
X57334441Y-20624932D02*
G01*
X57345535Y-20624932D01*
X57400164Y-20633584D01*
X57532102Y-20650954D01*
X57564296Y-20659580D01*
X57593513Y-20664208D01*
X57649698Y-20682463D01*
X57734237Y-20705116D01*
X57788178Y-20727459D01*
X57832293Y-20741793D01*
X57873618Y-20762849D01*
X57927566Y-20785195D01*
X58003375Y-20828963D01*
X58055998Y-20855776D01*
X58079922Y-20873157D01*
X58108794Y-20889827D01*
X58214392Y-20970856D01*
X58259117Y-21003350D01*
X58266957Y-21011190D01*
X58274810Y-21017216D01*
X58422783Y-21165189D01*
X58428808Y-21173041D01*
X58436650Y-21180883D01*
X58469147Y-21225612D01*
X58550172Y-21331205D01*
X58566840Y-21360075D01*
X58584224Y-21384002D01*
X58611039Y-21436631D01*
X58654804Y-21512433D01*
X58677147Y-21566375D01*
X58698207Y-21607707D01*
X58712542Y-21651827D01*
X58734883Y-21705762D01*
X58757531Y-21790288D01*
X58775792Y-21846487D01*
X58780420Y-21875709D01*
X58789045Y-21907897D01*
X58806414Y-22039827D01*
X58815068Y-22094465D01*
X58815068Y-22105558D01*
X58816360Y-22115372D01*
X58816360Y-22324627D01*
X58815068Y-22334440D01*
X58815068Y-22345535D01*
X58806413Y-22400177D01*
X58789045Y-22532102D01*
X58780420Y-22564287D01*
X58775792Y-22593513D01*
X58757530Y-22649716D01*
X58734883Y-22734237D01*
X58712544Y-22788167D01*
X58698207Y-22832293D01*
X58677145Y-22873629D01*
X58654804Y-22927566D01*
X58611044Y-23003360D01*
X58584224Y-23055998D01*
X58566837Y-23079928D01*
X58550172Y-23108794D01*
X58469161Y-23214368D01*
X58436650Y-23259117D01*
X58428805Y-23266961D01*
X58422783Y-23274810D01*
X58274810Y-23422783D01*
X58266961Y-23428805D01*
X58259117Y-23436650D01*
X58214368Y-23469161D01*
X58108794Y-23550172D01*
X58079928Y-23566837D01*
X58055998Y-23584224D01*
X58003360Y-23611044D01*
X57927566Y-23654804D01*
X57873629Y-23677145D01*
X57832293Y-23698207D01*
X57788167Y-23712544D01*
X57734237Y-23734883D01*
X57649716Y-23757530D01*
X57593513Y-23775792D01*
X57564287Y-23780420D01*
X57532102Y-23789045D01*
X57400177Y-23806413D01*
X57345535Y-23815068D01*
X57334441Y-23815068D01*
X57324627Y-23816360D01*
X57115373Y-23816360D01*
X57105559Y-23815068D01*
X57094465Y-23815068D01*
X57039824Y-23806413D01*
X56907897Y-23789045D01*
X56875709Y-23780420D01*
X56846487Y-23775792D01*
X56790288Y-23757531D01*
X56705762Y-23734883D01*
X56651827Y-23712542D01*
X56607707Y-23698207D01*
X56566375Y-23677147D01*
X56512433Y-23654804D01*
X56436631Y-23611039D01*
X56384002Y-23584224D01*
X56360075Y-23566840D01*
X56331205Y-23550172D01*
X56225612Y-23469147D01*
X56180883Y-23436650D01*
X56173041Y-23428808D01*
X56165189Y-23422783D01*
X56017216Y-23274810D01*
X56011190Y-23266957D01*
X56003350Y-23259117D01*
X55970856Y-23214392D01*
X55889827Y-23108794D01*
X55873157Y-23079922D01*
X55855776Y-23055998D01*
X55828963Y-23003375D01*
X55785195Y-22927566D01*
X55762849Y-22873618D01*
X55741793Y-22832293D01*
X55727459Y-22788178D01*
X55705116Y-22734237D01*
X55682463Y-22649698D01*
X55664208Y-22593513D01*
X55659580Y-22564296D01*
X55650954Y-22532102D01*
X55633584Y-22400164D01*
X55624932Y-22345535D01*
X55624932Y-22334440D01*
X55623640Y-22324627D01*
X55623640Y-22115372D01*
X55624932Y-22105558D01*
X55624932Y-22094465D01*
X55633583Y-22039840D01*
X55650954Y-21907897D01*
X55659580Y-21875700D01*
X55664208Y-21846487D01*
X55682462Y-21790306D01*
X55705116Y-21705762D01*
X55727460Y-21651816D01*
X55741793Y-21607707D01*
X55762847Y-21566385D01*
X55785195Y-21512433D01*
X55828967Y-21436616D01*
X55855776Y-21384002D01*
X55873154Y-21360081D01*
X55889827Y-21331205D01*
X55970869Y-21225588D01*
X56003350Y-21180883D01*
X56011187Y-21173045D01*
X56017216Y-21165189D01*
X56165189Y-21017216D01*
X56173045Y-21011187D01*
X56180883Y-21003350D01*
X56225588Y-20970869D01*
X56331205Y-20889827D01*
X56360081Y-20873154D01*
X56384002Y-20855776D01*
X56436616Y-20828967D01*
X56512433Y-20785195D01*
X56566385Y-20762847D01*
X56607707Y-20741793D01*
X56651816Y-20727460D01*
X56705762Y-20705116D01*
X56790306Y-20682462D01*
X56846487Y-20664208D01*
X56875700Y-20659580D01*
X56907897Y-20650954D01*
X57039837Y-20633584D01*
X57094465Y-20624932D01*
X57105559Y-20624932D01*
X57115373Y-20623640D01*
X57324627Y-20623640D01*
X57334441Y-20624932D01*
G37*
G36*
X92894441Y-20624932D02*
G01*
X92905535Y-20624932D01*
X92960164Y-20633584D01*
X93092102Y-20650954D01*
X93124296Y-20659580D01*
X93153513Y-20664208D01*
X93209698Y-20682463D01*
X93294237Y-20705116D01*
X93348178Y-20727459D01*
X93392293Y-20741793D01*
X93433618Y-20762849D01*
X93487566Y-20785195D01*
X93563375Y-20828963D01*
X93615998Y-20855776D01*
X93639922Y-20873157D01*
X93668794Y-20889827D01*
X93774392Y-20970856D01*
X93819117Y-21003350D01*
X93826957Y-21011190D01*
X93834810Y-21017216D01*
X93982783Y-21165189D01*
X93988808Y-21173041D01*
X93996650Y-21180883D01*
X94029147Y-21225612D01*
X94110172Y-21331205D01*
X94126840Y-21360075D01*
X94144224Y-21384002D01*
X94171039Y-21436631D01*
X94214804Y-21512433D01*
X94237147Y-21566375D01*
X94258207Y-21607707D01*
X94272542Y-21651827D01*
X94294883Y-21705762D01*
X94317531Y-21790288D01*
X94335792Y-21846487D01*
X94340420Y-21875709D01*
X94349045Y-21907897D01*
X94366414Y-22039827D01*
X94375068Y-22094465D01*
X94375068Y-22105558D01*
X94376360Y-22115372D01*
X94376360Y-22324627D01*
X94375068Y-22334440D01*
X94375068Y-22345535D01*
X94366413Y-22400177D01*
X94349045Y-22532102D01*
X94340420Y-22564287D01*
X94335792Y-22593513D01*
X94317530Y-22649716D01*
X94294883Y-22734237D01*
X94272544Y-22788167D01*
X94258207Y-22832293D01*
X94237145Y-22873629D01*
X94214804Y-22927566D01*
X94171044Y-23003360D01*
X94144224Y-23055998D01*
X94126837Y-23079928D01*
X94110172Y-23108794D01*
X94029161Y-23214368D01*
X93996650Y-23259117D01*
X93988805Y-23266961D01*
X93982783Y-23274810D01*
X93834810Y-23422783D01*
X93826961Y-23428805D01*
X93819117Y-23436650D01*
X93774368Y-23469161D01*
X93668794Y-23550172D01*
X93639928Y-23566837D01*
X93615998Y-23584224D01*
X93563360Y-23611044D01*
X93487566Y-23654804D01*
X93433629Y-23677145D01*
X93392293Y-23698207D01*
X93348167Y-23712544D01*
X93294237Y-23734883D01*
X93209716Y-23757530D01*
X93153513Y-23775792D01*
X93124287Y-23780420D01*
X93092102Y-23789045D01*
X92960177Y-23806413D01*
X92905535Y-23815068D01*
X92894441Y-23815068D01*
X92884627Y-23816360D01*
X92675373Y-23816360D01*
X92665559Y-23815068D01*
X92654465Y-23815068D01*
X92599824Y-23806413D01*
X92467897Y-23789045D01*
X92435709Y-23780420D01*
X92406487Y-23775792D01*
X92350288Y-23757531D01*
X92265762Y-23734883D01*
X92211827Y-23712542D01*
X92167707Y-23698207D01*
X92126375Y-23677147D01*
X92072433Y-23654804D01*
X91996631Y-23611039D01*
X91944002Y-23584224D01*
X91920075Y-23566840D01*
X91891205Y-23550172D01*
X91785612Y-23469147D01*
X91740883Y-23436650D01*
X91733041Y-23428808D01*
X91725189Y-23422783D01*
X91577216Y-23274810D01*
X91571190Y-23266957D01*
X91563350Y-23259117D01*
X91530856Y-23214392D01*
X91449827Y-23108794D01*
X91433157Y-23079922D01*
X91415776Y-23055998D01*
X91388963Y-23003375D01*
X91345195Y-22927566D01*
X91322849Y-22873618D01*
X91301793Y-22832293D01*
X91287459Y-22788178D01*
X91265116Y-22734237D01*
X91242463Y-22649698D01*
X91224208Y-22593513D01*
X91219580Y-22564296D01*
X91210954Y-22532102D01*
X91193584Y-22400164D01*
X91184932Y-22345535D01*
X91184932Y-22334440D01*
X91183640Y-22324627D01*
X91183640Y-22115372D01*
X91184932Y-22105558D01*
X91184932Y-22094465D01*
X91193583Y-22039840D01*
X91210954Y-21907897D01*
X91219580Y-21875700D01*
X91224208Y-21846487D01*
X91242462Y-21790306D01*
X91265116Y-21705762D01*
X91287460Y-21651816D01*
X91301793Y-21607707D01*
X91322847Y-21566385D01*
X91345195Y-21512433D01*
X91388967Y-21436616D01*
X91415776Y-21384002D01*
X91433154Y-21360081D01*
X91449827Y-21331205D01*
X91530869Y-21225588D01*
X91563350Y-21180883D01*
X91571187Y-21173045D01*
X91577216Y-21165189D01*
X91725189Y-21017216D01*
X91733045Y-21011187D01*
X91740883Y-21003350D01*
X91785588Y-20970869D01*
X91891205Y-20889827D01*
X91920081Y-20873154D01*
X91944002Y-20855776D01*
X91996616Y-20828967D01*
X92072433Y-20785195D01*
X92126385Y-20762847D01*
X92167707Y-20741793D01*
X92211816Y-20727460D01*
X92265762Y-20705116D01*
X92350306Y-20682462D01*
X92406487Y-20664208D01*
X92435700Y-20659580D01*
X92467897Y-20650954D01*
X92599837Y-20633584D01*
X92654465Y-20624932D01*
X92665559Y-20624932D01*
X92675373Y-20623640D01*
X92884627Y-20623640D01*
X92894441Y-20624932D01*
G37*
G36*
X105350168Y-20541445D02*
G01*
X105574025Y-20614181D01*
X105783748Y-20721040D01*
X105974172Y-20859391D01*
X106140609Y-21025828D01*
X106278960Y-21216252D01*
X106385819Y-21425975D01*
X106458555Y-21649832D01*
X106495376Y-21882311D01*
X106495376Y-22117689D01*
X106458555Y-22350168D01*
X106385819Y-22574025D01*
X106278960Y-22783748D01*
X106140609Y-22974172D01*
X105974172Y-23140609D01*
X105783748Y-23278960D01*
X105574025Y-23385819D01*
X105350168Y-23458555D01*
X105117689Y-23495376D01*
X104882311Y-23495376D01*
X104649832Y-23458555D01*
X104425975Y-23385819D01*
X104216252Y-23278960D01*
X104025828Y-23140609D01*
X103859391Y-22974172D01*
X103721040Y-22783748D01*
X103614181Y-22574025D01*
X103541445Y-22350168D01*
X103504624Y-22117689D01*
X103504624Y-21882311D01*
X103541445Y-21649832D01*
X103614181Y-21425975D01*
X103721040Y-21216252D01*
X103859391Y-21025828D01*
X104025828Y-20859391D01*
X104216252Y-20721040D01*
X104425975Y-20614181D01*
X104649832Y-20541445D01*
X104882311Y-20504624D01*
X105117689Y-20504624D01*
X105350168Y-20541445D01*
G37*
G36*
X127850168Y-20541445D02*
G01*
X128074025Y-20614181D01*
X128283748Y-20721040D01*
X128474172Y-20859391D01*
X128640609Y-21025828D01*
X128778960Y-21216252D01*
X128885819Y-21425975D01*
X128958555Y-21649832D01*
X128995376Y-21882311D01*
X128995376Y-22117689D01*
X128958555Y-22350168D01*
X128885819Y-22574025D01*
X128778960Y-22783748D01*
X128640609Y-22974172D01*
X128474172Y-23140609D01*
X128283748Y-23278960D01*
X128074025Y-23385819D01*
X127850168Y-23458555D01*
X127617689Y-23495376D01*
X127382311Y-23495376D01*
X127149832Y-23458555D01*
X126925975Y-23385819D01*
X126716252Y-23278960D01*
X126525828Y-23140609D01*
X126359391Y-22974172D01*
X126221040Y-22783748D01*
X126114181Y-22574025D01*
X126041445Y-22350168D01*
X126004624Y-22117689D01*
X126004624Y-21882311D01*
X126041445Y-21649832D01*
X126114181Y-21425975D01*
X126221040Y-21216252D01*
X126359391Y-21025828D01*
X126525828Y-20859391D01*
X126716252Y-20721040D01*
X126925975Y-20614181D01*
X127149832Y-20541445D01*
X127382311Y-20504624D01*
X127617689Y-20504624D01*
X127850168Y-20541445D01*
G37*
G36*
X116565151Y-20687301D02*
G01*
X116766623Y-20752763D01*
X116955373Y-20848936D01*
X117126755Y-20973452D01*
X117276548Y-21123245D01*
X117401064Y-21294627D01*
X117497237Y-21483377D01*
X117562699Y-21684849D01*
X117595838Y-21894080D01*
X117595838Y-22105920D01*
X117562699Y-22315151D01*
X117497237Y-22516623D01*
X117401064Y-22705373D01*
X117276548Y-22876755D01*
X117126755Y-23026548D01*
X116955373Y-23151064D01*
X116766623Y-23247237D01*
X116565151Y-23312699D01*
X116355920Y-23345838D01*
X116144080Y-23345838D01*
X115934849Y-23312699D01*
X115733377Y-23247237D01*
X115544627Y-23151064D01*
X115373245Y-23026548D01*
X115223452Y-22876755D01*
X115098936Y-22705373D01*
X115002763Y-22516623D01*
X114937301Y-22315151D01*
X114904162Y-22105920D01*
X114904162Y-21894080D01*
X114937301Y-21684849D01*
X115002763Y-21483377D01*
X115098936Y-21294627D01*
X115223452Y-21123245D01*
X115373245Y-20973452D01*
X115544627Y-20848936D01*
X115733377Y-20752763D01*
X115934849Y-20687301D01*
X116144080Y-20654162D01*
X116355920Y-20654162D01*
X116565151Y-20687301D01*
G37*
G36*
X35969824Y-20803943D02*
G01*
X36019985Y-20811251D01*
X36029192Y-20815752D01*
X36045670Y-20819030D01*
X36072317Y-20836835D01*
X36094465Y-20847663D01*
X36106433Y-20859631D01*
X36126776Y-20873224D01*
X36140368Y-20893566D01*
X36152336Y-20905534D01*
X36163162Y-20927679D01*
X36180970Y-20954330D01*
X36184247Y-20970808D01*
X36188748Y-20980014D01*
X36196057Y-21030187D01*
X36199999Y-21050002D01*
X36199999Y-21057238D01*
X36200000Y-21057245D01*
X36200000Y-22094126D01*
X36200000Y-22949999D01*
X36196054Y-22969833D01*
X36188748Y-23019985D01*
X36184248Y-23029189D01*
X36180970Y-23045670D01*
X36163160Y-23072322D01*
X36152336Y-23094465D01*
X36140370Y-23106430D01*
X36126776Y-23126776D01*
X36106430Y-23140370D01*
X36094465Y-23152336D01*
X36072322Y-23163160D01*
X36045670Y-23180970D01*
X36029189Y-23184247D01*
X36019985Y-23188748D01*
X35969813Y-23196057D01*
X35949998Y-23199999D01*
X35942761Y-23199999D01*
X35942755Y-23200000D01*
X34057245Y-23200000D01*
X34057244Y-23199999D01*
X34050001Y-23200000D01*
X34030169Y-23196055D01*
X33980014Y-23188748D01*
X33970809Y-23184247D01*
X33954330Y-23180970D01*
X33927679Y-23163162D01*
X33905534Y-23152336D01*
X33893566Y-23140368D01*
X33873224Y-23126776D01*
X33859631Y-23106433D01*
X33847663Y-23094465D01*
X33836835Y-23072317D01*
X33819030Y-23045670D01*
X33815752Y-23029193D01*
X33811251Y-23019985D01*
X33803941Y-22969808D01*
X33800001Y-22949998D01*
X33800000Y-22942760D01*
X33800000Y-22942754D01*
X33800000Y-21057245D01*
X33800000Y-21057244D01*
X33800000Y-21050001D01*
X33803943Y-21030175D01*
X33811251Y-20980014D01*
X33815752Y-20970805D01*
X33819030Y-20954330D01*
X33836833Y-20927685D01*
X33847663Y-20905534D01*
X33859633Y-20893563D01*
X33873224Y-20873224D01*
X33893563Y-20859633D01*
X33905534Y-20847663D01*
X33927685Y-20836833D01*
X33954330Y-20819030D01*
X33970804Y-20815753D01*
X33980014Y-20811251D01*
X34030193Y-20803940D01*
X34050002Y-20800001D01*
X34057238Y-20800000D01*
X34057245Y-20800000D01*
X35942755Y-20800000D01*
X35949999Y-20800000D01*
X35969824Y-20803943D01*
G37*
G36*
X45440134Y-20833156D02*
G01*
X45619220Y-20891345D01*
X45786998Y-20976832D01*
X45939338Y-21087513D01*
X46072487Y-21220662D01*
X46183168Y-21373002D01*
X46268655Y-21540780D01*
X46326844Y-21719866D01*
X46356301Y-21905849D01*
X46356301Y-22094151D01*
X46326844Y-22280134D01*
X46268655Y-22459220D01*
X46183168Y-22626998D01*
X46072487Y-22779338D01*
X45939338Y-22912487D01*
X45786998Y-23023168D01*
X45619220Y-23108655D01*
X45440134Y-23166844D01*
X45254151Y-23196301D01*
X45065849Y-23196301D01*
X44879866Y-23166844D01*
X44700780Y-23108655D01*
X44533002Y-23023168D01*
X44380662Y-22912487D01*
X44247513Y-22779338D01*
X44136832Y-22626998D01*
X44051345Y-22459220D01*
X43993156Y-22280134D01*
X43963699Y-22094151D01*
X43963699Y-21905849D01*
X43993156Y-21719866D01*
X44051345Y-21540780D01*
X44136832Y-21373002D01*
X44247513Y-21220662D01*
X44380662Y-21087513D01*
X44533002Y-20976832D01*
X44700780Y-20891345D01*
X44879866Y-20833156D01*
X45065849Y-20803699D01*
X45254151Y-20803699D01*
X45440134Y-20833156D01*
G37*
G36*
X7614441Y-5904932D02*
G01*
X7625535Y-5904932D01*
X7680164Y-5913584D01*
X7812102Y-5930954D01*
X7844296Y-5939580D01*
X7873513Y-5944208D01*
X7929698Y-5962463D01*
X8014237Y-5985116D01*
X8068178Y-6007459D01*
X8112293Y-6021793D01*
X8153618Y-6042849D01*
X8207566Y-6065195D01*
X8283375Y-6108963D01*
X8335998Y-6135776D01*
X8359922Y-6153157D01*
X8388794Y-6169827D01*
X8494392Y-6250856D01*
X8539117Y-6283350D01*
X8546957Y-6291190D01*
X8554810Y-6297216D01*
X8702783Y-6445189D01*
X8708808Y-6453041D01*
X8716650Y-6460883D01*
X8749147Y-6505612D01*
X8830172Y-6611205D01*
X8846840Y-6640075D01*
X8864224Y-6664002D01*
X8891039Y-6716631D01*
X8934804Y-6792433D01*
X8957147Y-6846375D01*
X8978207Y-6887707D01*
X8992542Y-6931827D01*
X9014883Y-6985762D01*
X9037531Y-7070288D01*
X9055792Y-7126487D01*
X9060420Y-7155709D01*
X9069045Y-7187897D01*
X9086414Y-7319827D01*
X9095068Y-7374465D01*
X9095068Y-7385558D01*
X9096360Y-7395372D01*
X9096360Y-7604627D01*
X9095068Y-7614440D01*
X9095068Y-7625535D01*
X9086413Y-7680177D01*
X9069045Y-7812102D01*
X9060420Y-7844287D01*
X9055792Y-7873513D01*
X9037530Y-7929716D01*
X9014883Y-8014237D01*
X8992544Y-8068167D01*
X8978207Y-8112293D01*
X8957145Y-8153629D01*
X8934804Y-8207566D01*
X8891044Y-8283360D01*
X8864224Y-8335998D01*
X8846837Y-8359928D01*
X8830172Y-8388794D01*
X8749161Y-8494368D01*
X8716650Y-8539117D01*
X8708805Y-8546961D01*
X8702783Y-8554810D01*
X8554810Y-8702783D01*
X8546961Y-8708805D01*
X8539117Y-8716650D01*
X8494368Y-8749161D01*
X8388794Y-8830172D01*
X8359928Y-8846837D01*
X8335998Y-8864224D01*
X8283360Y-8891044D01*
X8207566Y-8934804D01*
X8153629Y-8957145D01*
X8112293Y-8978207D01*
X8068167Y-8992544D01*
X8014237Y-9014883D01*
X7929716Y-9037530D01*
X7873513Y-9055792D01*
X7844287Y-9060420D01*
X7812102Y-9069045D01*
X7680177Y-9086413D01*
X7625535Y-9095068D01*
X7614441Y-9095068D01*
X7604627Y-9096360D01*
X7395373Y-9096360D01*
X7385559Y-9095068D01*
X7374465Y-9095068D01*
X7319824Y-9086413D01*
X7187897Y-9069045D01*
X7155709Y-9060420D01*
X7126487Y-9055792D01*
X7070288Y-9037531D01*
X6985762Y-9014883D01*
X6931827Y-8992542D01*
X6887707Y-8978207D01*
X6846375Y-8957147D01*
X6792433Y-8934804D01*
X6716631Y-8891039D01*
X6664002Y-8864224D01*
X6640075Y-8846840D01*
X6611205Y-8830172D01*
X6505612Y-8749147D01*
X6460883Y-8716650D01*
X6453041Y-8708808D01*
X6445189Y-8702783D01*
X6297216Y-8554810D01*
X6291190Y-8546957D01*
X6283350Y-8539117D01*
X6250856Y-8494392D01*
X6169827Y-8388794D01*
X6153157Y-8359922D01*
X6135776Y-8335998D01*
X6108963Y-8283375D01*
X6065195Y-8207566D01*
X6042849Y-8153618D01*
X6021793Y-8112293D01*
X6007459Y-8068178D01*
X5985116Y-8014237D01*
X5962463Y-7929698D01*
X5944208Y-7873513D01*
X5939580Y-7844296D01*
X5930954Y-7812102D01*
X5913584Y-7680164D01*
X5904932Y-7625535D01*
X5904932Y-7614440D01*
X5903640Y-7604627D01*
X5903640Y-7395372D01*
X5904932Y-7385558D01*
X5904932Y-7374465D01*
X5913583Y-7319840D01*
X5930954Y-7187897D01*
X5939580Y-7155700D01*
X5944208Y-7126487D01*
X5962462Y-7070306D01*
X5985116Y-6985762D01*
X6007460Y-6931816D01*
X6021793Y-6887707D01*
X6042847Y-6846385D01*
X6065195Y-6792433D01*
X6108967Y-6716616D01*
X6135776Y-6664002D01*
X6153154Y-6640081D01*
X6169827Y-6611205D01*
X6250869Y-6505588D01*
X6283350Y-6460883D01*
X6291187Y-6453045D01*
X6297216Y-6445189D01*
X6445189Y-6297216D01*
X6453045Y-6291187D01*
X6460883Y-6283350D01*
X6505588Y-6250869D01*
X6611205Y-6169827D01*
X6640081Y-6153154D01*
X6664002Y-6135776D01*
X6716616Y-6108967D01*
X6792433Y-6065195D01*
X6846385Y-6042847D01*
X6887707Y-6021793D01*
X6931816Y-6007460D01*
X6985762Y-5985116D01*
X7070306Y-5962462D01*
X7126487Y-5944208D01*
X7155700Y-5939580D01*
X7187897Y-5930954D01*
X7319837Y-5913584D01*
X7374465Y-5904932D01*
X7385559Y-5904932D01*
X7395373Y-5903640D01*
X7604627Y-5903640D01*
X7614441Y-5904932D01*
G37*
G36*
X132614441Y-5904932D02*
G01*
X132625535Y-5904932D01*
X132680164Y-5913584D01*
X132812102Y-5930954D01*
X132844296Y-5939580D01*
X132873513Y-5944208D01*
X132929698Y-5962463D01*
X133014237Y-5985116D01*
X133068178Y-6007459D01*
X133112293Y-6021793D01*
X133153618Y-6042849D01*
X133207566Y-6065195D01*
X133283375Y-6108963D01*
X133335998Y-6135776D01*
X133359922Y-6153157D01*
X133388794Y-6169827D01*
X133494392Y-6250856D01*
X133539117Y-6283350D01*
X133546957Y-6291190D01*
X133554810Y-6297216D01*
X133702783Y-6445189D01*
X133708808Y-6453041D01*
X133716650Y-6460883D01*
X133749147Y-6505612D01*
X133830172Y-6611205D01*
X133846840Y-6640075D01*
X133864224Y-6664002D01*
X133891039Y-6716631D01*
X133934804Y-6792433D01*
X133957147Y-6846375D01*
X133978207Y-6887707D01*
X133992542Y-6931827D01*
X134014883Y-6985762D01*
X134037531Y-7070288D01*
X134055792Y-7126487D01*
X134060420Y-7155709D01*
X134069045Y-7187897D01*
X134086414Y-7319827D01*
X134095068Y-7374465D01*
X134095068Y-7385558D01*
X134096360Y-7395372D01*
X134096360Y-7604627D01*
X134095068Y-7614440D01*
X134095068Y-7625535D01*
X134086413Y-7680177D01*
X134069045Y-7812102D01*
X134060420Y-7844287D01*
X134055792Y-7873513D01*
X134037530Y-7929716D01*
X134014883Y-8014237D01*
X133992544Y-8068167D01*
X133978207Y-8112293D01*
X133957145Y-8153629D01*
X133934804Y-8207566D01*
X133891044Y-8283360D01*
X133864224Y-8335998D01*
X133846837Y-8359928D01*
X133830172Y-8388794D01*
X133749161Y-8494368D01*
X133716650Y-8539117D01*
X133708805Y-8546961D01*
X133702783Y-8554810D01*
X133554810Y-8702783D01*
X133546961Y-8708805D01*
X133539117Y-8716650D01*
X133494368Y-8749161D01*
X133388794Y-8830172D01*
X133359928Y-8846837D01*
X133335998Y-8864224D01*
X133283360Y-8891044D01*
X133207566Y-8934804D01*
X133153629Y-8957145D01*
X133112293Y-8978207D01*
X133068167Y-8992544D01*
X133014237Y-9014883D01*
X132929716Y-9037530D01*
X132873513Y-9055792D01*
X132844287Y-9060420D01*
X132812102Y-9069045D01*
X132680177Y-9086413D01*
X132625535Y-9095068D01*
X132614441Y-9095068D01*
X132604627Y-9096360D01*
X132395373Y-9096360D01*
X132385559Y-9095068D01*
X132374465Y-9095068D01*
X132319824Y-9086413D01*
X132187897Y-9069045D01*
X132155709Y-9060420D01*
X132126487Y-9055792D01*
X132070288Y-9037531D01*
X131985762Y-9014883D01*
X131931827Y-8992542D01*
X131887707Y-8978207D01*
X131846375Y-8957147D01*
X131792433Y-8934804D01*
X131716631Y-8891039D01*
X131664002Y-8864224D01*
X131640075Y-8846840D01*
X131611205Y-8830172D01*
X131505612Y-8749147D01*
X131460883Y-8716650D01*
X131453041Y-8708808D01*
X131445189Y-8702783D01*
X131297216Y-8554810D01*
X131291190Y-8546957D01*
X131283350Y-8539117D01*
X131250856Y-8494392D01*
X131169827Y-8388794D01*
X131153157Y-8359922D01*
X131135776Y-8335998D01*
X131108963Y-8283375D01*
X131065195Y-8207566D01*
X131042849Y-8153618D01*
X131021793Y-8112293D01*
X131007459Y-8068178D01*
X130985116Y-8014237D01*
X130962463Y-7929698D01*
X130944208Y-7873513D01*
X130939580Y-7844296D01*
X130930954Y-7812102D01*
X130913584Y-7680164D01*
X130904932Y-7625535D01*
X130904932Y-7614440D01*
X130903640Y-7604627D01*
X130903640Y-7395372D01*
X130904932Y-7385558D01*
X130904932Y-7374465D01*
X130913583Y-7319840D01*
X130930954Y-7187897D01*
X130939580Y-7155700D01*
X130944208Y-7126487D01*
X130962462Y-7070306D01*
X130985116Y-6985762D01*
X131007460Y-6931816D01*
X131021793Y-6887707D01*
X131042847Y-6846385D01*
X131065195Y-6792433D01*
X131108967Y-6716616D01*
X131135776Y-6664002D01*
X131153154Y-6640081D01*
X131169827Y-6611205D01*
X131250869Y-6505588D01*
X131283350Y-6460883D01*
X131291187Y-6453045D01*
X131297216Y-6445189D01*
X131445189Y-6297216D01*
X131453045Y-6291187D01*
X131460883Y-6283350D01*
X131505588Y-6250869D01*
X131611205Y-6169827D01*
X131640081Y-6153154D01*
X131664002Y-6135776D01*
X131716616Y-6108967D01*
X131792433Y-6065195D01*
X131846385Y-6042847D01*
X131887707Y-6021793D01*
X131931816Y-6007460D01*
X131985762Y-5985116D01*
X132070306Y-5962462D01*
X132126487Y-5944208D01*
X132155700Y-5939580D01*
X132187897Y-5930954D01*
X132319837Y-5913584D01*
X132374465Y-5904932D01*
X132385559Y-5904932D01*
X132395373Y-5903640D01*
X132604627Y-5903640D01*
X132614441Y-5904932D01*
G37*
M02*
