%TF.GenerationSoftware,KiCad,Pcbnew,10.0.4*%
%TF.CreationDate,2026-07-16T20:52:48+00:00*%
%TF.ProjectId,pcb-psu-led,7063622d-7073-4752-9d6c-65642e6b6963,PCB2-PCB-04R2*%
%TF.SameCoordinates,Original*%
%TF.FileFunction,Copper,L2,Bot*%
%TF.FilePolarity,Positive*%
%FSLAX46Y46*%
G04 Gerber Fmt 4.6, Leading zero omitted, Abs format (unit mm)*
G04 Created by KiCad (PCBNEW 10.0.4) date 2026-07-16 20:52:48*
%MOMM*%
%LPD*%
G01*
G04 APERTURE LIST*
G04 Aperture macros list*
%AMRoundRect*
0 Rectangle with rounded corners*
0 $1 Rounding radius*
0 $2 $3 $4 $5 $6 $7 $8 $9 X,Y pos of 4 corners*
0 Add a 4 corners polygon primitive as box body*
4,1,4,$2,$3,$4,$5,$6,$7,$8,$9,$2,$3,0*
0 Add four circle primitives for the rounded corners*
1,1,$1+$1,$2,$3*
1,1,$1+$1,$4,$5*
1,1,$1+$1,$6,$7*
1,1,$1+$1,$8,$9*
0 Add four rect primitives between the rounded corners*
20,1,$1+$1,$2,$3,$4,$5,0*
20,1,$1+$1,$4,$5,$6,$7,0*
20,1,$1+$1,$6,$7,$8,$9,0*
20,1,$1+$1,$8,$9,$2,$3,0*%
G04 Aperture macros list end*
%TA.AperFunction,ComponentPad*%
%ADD10RoundRect,0.250000X-1.050000X-1.050000X1.050000X-1.050000X1.050000X1.050000X-1.050000X1.050000X0*%
%TD*%
%TA.AperFunction,ComponentPad*%
%ADD11C,2.600000*%
%TD*%
%TA.AperFunction,ComponentPad*%
%ADD12C,3.000000*%
%TD*%
%TA.AperFunction,ComponentPad*%
%ADD13RoundRect,0.250001X-0.949999X-0.949999X0.949999X-0.949999X0.949999X0.949999X-0.949999X0.949999X0*%
%TD*%
%TA.AperFunction,ComponentPad*%
%ADD14C,2.400000*%
%TD*%
%TA.AperFunction,ComponentPad*%
%ADD15R,1.050000X1.500000*%
%TD*%
%TA.AperFunction,ComponentPad*%
%ADD16O,1.050000X1.500000*%
%TD*%
%TA.AperFunction,ComponentPad*%
%ADD17RoundRect,0.250000X-0.550000X-0.550000X0.550000X-0.550000X0.550000X0.550000X-0.550000X0.550000X0*%
%TD*%
%TA.AperFunction,ComponentPad*%
%ADD18C,1.600000*%
%TD*%
%TA.AperFunction,ComponentPad*%
%ADD19C,1.440000*%
%TD*%
%TA.AperFunction,ComponentPad*%
%ADD20RoundRect,0.250000X-0.600000X-0.750000X0.600000X-0.750000X0.600000X0.750000X-0.600000X0.750000X0*%
%TD*%
%TA.AperFunction,ComponentPad*%
%ADD21O,1.700000X2.000000*%
%TD*%
%TA.AperFunction,Conductor*%
%ADD22C,0.800000*%
%TD*%
G04 APERTURE END LIST*
D10*
%TO.P,J1,1*%
%TO.N,/L_SW*%
X118000000Y-65000000D03*
D11*
%TO.P,J1,2*%
%TO.N,/N_SW*%
X123080000Y-65000000D03*
%TD*%
D12*
%TO.P,F1,1*%
%TO.N,/L_SW*%
X127500000Y-22000000D03*
%TO.P,F1,2*%
%TO.N,Net-(T1-P1_START)*%
X105000000Y-22000000D03*
%TD*%
D13*
%TO.P,D2,1*%
%TO.N,/VRAW_PLUS*%
X35000000Y-22000000D03*
D14*
%TO.P,D2,2*%
%TO.N,/SEC_A*%
X45160000Y-22000000D03*
%TD*%
D13*
%TO.P,D1,1*%
%TO.N,/VRAW_PLUS*%
X35000000Y-58000000D03*
D14*
%TO.P,D1,2*%
%TO.N,/SEC_B*%
X45160000Y-58000000D03*
%TD*%
D15*
%TO.P,U1,1*%
%TO.N,/PLUS_5V_LED*%
X44000000Y-40000000D03*
D16*
%TO.P,U1,2*%
%TO.N,/CT_RAW*%
X45270000Y-40000000D03*
%TO.P,U1,3*%
%TO.N,/VRAW_PLUS*%
X46540000Y-40000000D03*
%TD*%
D17*
%TO.P,C1,1*%
%TO.N,/VRAW_PLUS*%
X28000000Y-40000000D03*
D18*
%TO.P,C1,2*%
%TO.N,/CT_RAW*%
X30000000Y-40000000D03*
%TD*%
%TO.P,C2,1*%
%TO.N,/VRAW_PLUS*%
X36000000Y-34000000D03*
%TO.P,C2,2*%
%TO.N,/CT_RAW*%
X38500000Y-34000000D03*
%TD*%
%TO.P,C3,1*%
%TO.N,/PLUS_5V_LED*%
X36000000Y-46000000D03*
%TO.P,C3,2*%
%TO.N,/CT_RAW*%
X38500000Y-46000000D03*
%TD*%
%TO.P,R1,1*%
%TO.N,/PLUS_5V_LED*%
X20000000Y-60000000D03*
%TO.P,R1,2*%
%TO.N,Net-(RV1-CW)*%
X30160000Y-60000000D03*
%TD*%
D19*
%TO.P,RV1,1*%
%TO.N,/LED_ANODE_OUT*%
X37000000Y-68000000D03*
%TO.P,RV1,2*%
X39540000Y-65460000D03*
%TO.P,RV1,3*%
%TO.N,Net-(RV1-CW)*%
X37000000Y-62920000D03*
%TD*%
D20*
%TO.P,J2,1*%
%TO.N,/LED_ANODE_OUT*%
X10000000Y-60000000D03*
D21*
%TO.P,J2,2*%
%TO.N,/CT_RAW*%
X10000000Y-57500000D03*
%TD*%
D12*
%TO.P,T1,11*%
%TO.N,/SEC_A*%
X57220000Y-22220000D03*
%TO.P,T1,12*%
%TO.N,/CT_RAW*%
X57220000Y-27300000D03*
%TO.P,T1,13*%
X57220000Y-52700000D03*
%TO.P,T1,14*%
%TO.N,/SEC_B*%
X57220000Y-57780000D03*
%TO.P,T1,6*%
%TO.N,Net-(T1-P1_START)*%
X92780000Y-22220000D03*
%TO.P,T1,5*%
%TO.N,/PRI_LINK_5_4*%
X92780000Y-27300000D03*
%TO.P,T1,4*%
X92780000Y-52700000D03*
%TO.P,T1,3*%
%TO.N,/N_SW*%
X92780000Y-57780000D03*
%TD*%
%TO.N,/VRAW_PLUS*%
D22*
X33000000Y-22000000D02*
X33000000Y-34000000D01*
X33000000Y-34000000D02*
X33000000Y-37000000D01*
X33000000Y-37000000D02*
X33000000Y-43000000D01*
X33000000Y-43000000D02*
X33000000Y-58000000D01*
X35000000Y-22000000D02*
X33000000Y-22000000D01*
X35000000Y-58000000D02*
X33000000Y-58000000D01*
X28000000Y-40000000D02*
X28000000Y-37000000D01*
X28000000Y-37000000D02*
X33000000Y-37000000D01*
X36000000Y-34000000D02*
X33000000Y-34000000D01*
X46540000Y-40000000D02*
X46540000Y-43000000D01*
X46540000Y-43000000D02*
X33000000Y-43000000D01*
%TO.N,/CT_RAW*%
X30000000Y-40000000D02*
X30000000Y-44000000D01*
X30000000Y-44000000D02*
X17000000Y-44000000D01*
X17000000Y-44000000D02*
X17000000Y-62500000D01*
X17000000Y-62500000D02*
X12000000Y-62500000D01*
X12000000Y-62500000D02*
X12000000Y-57500000D01*
X12000000Y-57500000D02*
X10000000Y-57500000D01*
%TD*%
M02*
