<?xml version="1.0" standalone="no"?>
 <!DOCTYPE svg PUBLIC "-//W3C//DTD SVG 1.1//EN" 
 "http://www.w3.org/Graphics/SVG/1.1/DTD/svg11.dtd"> 
<svg
  xmlns:svg="http://www.w3.org/2000/svg"
  xmlns="http://www.w3.org/2000/svg"
  xmlns:xlink="http://www.w3.org/1999/xlink"
  xmlns:inkscape="http://www.inkscape.org/namespaces/inkscape"
  version="1.1"
  width="297.0022mm" height="210.0072mm" viewBox="0.0000 0.0000 297.0022 210.0072">
<title>SVG Image created as pcb-psu-led-PTH-drl_map.svg date 2026-07-16T19:35:35 </title>
  <desc>Image generated by PCBNEW </desc>
<g style="fill:#000000; fill-opacity:1.0000;stroke:#000000; stroke-opacity:1.0000;
stroke-linecap:round; stroke-linejoin:round;"
 transform="translate(0 0) scale(1 1)">
</g>
<g style="fill:none; 
stroke:#000000; stroke-width:0.2893; stroke-opacity:1; 
stroke-linecap:round; stroke-linejoin:round;">
<path d="M50.1433 5.1446
L246.8589 5.1446
" />
<path d="M249.7518 8.0375 A2.8929 2.8929 0.0 0 0 246.8589 5.1446" />
<path d="M249.7518 8.0375
L249.7518 117.9668
" />
<path d="M246.8589 120.8597 A2.8929 2.8929 0.0 0 0 249.7518 117.9668" />
<path d="M246.8589 120.8597
L50.1433 120.8597
" />
<path d="M47.2504 117.9668 A2.8929 2.8929 0.0 0 0 50.1433 120.8597" />
<path d="M47.2504 117.9668
L47.2504 8.0375
" />
<path d="M50.1433 5.1446 A2.8929 2.8929 0.0 0 0 47.2504 8.0375" />
</g>
<g style="fill:none; 
stroke:#000000; stroke-width:0.1446; stroke-opacity:1; 
stroke-linecap:round; stroke-linejoin:round;">
<path d="M110.3513 62.4597
L111.4361 63.5446
" />
<path d="M111.4361 62.4597
L110.3513 63.5446
" />
<path d="M112.1883 62.4597
L113.2731 63.5446
" />
<path d="M113.2731 62.4597
L112.1883 63.5446
" />
<path d="M114.0253 62.4597
L115.1101 63.5446
" />
<path d="M115.1101 62.4597
L114.0253 63.5446
" />
<circle cx="76.1792" cy="91.9309" r="0.5786" /> 
<circle cx="87.7507" cy="63.0022" r="0.5786" /> 
<circle cx="90.6436" cy="63.0022" r="0.5786" /> 
<circle cx="90.8750" cy="91.9309" r="0.5786" /> 
<circle cx="99.3222" cy="54.3235" r="0.5786" /> 
<circle cx="99.3222" cy="71.6808" r="0.5786" /> 
<circle cx="100.7686" cy="96.1545" r="0.5786" /> 
<circle cx="100.7686" cy="103.5024" r="0.5786" /> 
<circle cx="102.9383" cy="54.3235" r="0.5786" /> 
<circle cx="102.9383" cy="71.6808" r="0.5786" /> 
<circle cx="104.4426" cy="99.8285" r="0.5786" /> 
<path d="M61.7148 87.5916
L61.7148 89.0380
" />
<path d="M60.9916 88.3148
L62.4380 88.3148
" />
<path d="M61.7148 91.2077
L61.7148 92.6541
" />
<path d="M60.9916 91.9309
L62.4380 91.9309
" />
<path style="fill:none; 
stroke:#000000; stroke-width:0.1736; stroke-opacity:1; 
stroke-linecap:round; stroke-linejoin:round;fill:none"
d="M 98.4895,37.5800
98.4895,36.3526
97.2621,36.3526
97.2621,37.5800
Z" /> 
<path style="fill:none; 
stroke:#000000; stroke-width:0.1736; stroke-opacity:1; 
stroke-linecap:round; stroke-linejoin:round;fill:none"
d="M 98.4895,89.6517
98.4895,88.4244
97.2621,88.4244
97.2621,89.6517
Z" /> 
<path style="fill:none; 
stroke:#000000; stroke-width:0.1736; stroke-opacity:1; 
stroke-linecap:round; stroke-linejoin:round;fill:none"
d="M 113.1853,37.5800
113.1853,36.3526
111.9579,36.3526
111.9579,37.5800
Z" /> 
<path style="fill:none; 
stroke:#000000; stroke-width:0.1736; stroke-opacity:1; 
stroke-linecap:round; stroke-linejoin:round;fill:none"
d="M 113.1853,89.6517
113.1853,88.4244
111.9579,88.4244
111.9579,89.6517
Z" /> 
<path style="fill:none; 
stroke:#000000; stroke-width:0.1880; stroke-opacity:1; 
stroke-linecap:round; stroke-linejoin:round;fill:none"
d="M 130.0156,38.2247
130.9558,37.2845
130.0156,36.3443
129.0754,37.2845
Z" /> 
<path style="fill:none; 
stroke:#000000; stroke-width:0.1880; stroke-opacity:1; 
stroke-linecap:round; stroke-linejoin:round;fill:none"
d="M 130.0156,45.5726
130.9558,44.6324
130.0156,43.6922
129.0754,44.6324
Z" /> 
<path style="fill:none; 
stroke:#000000; stroke-width:0.1880; stroke-opacity:1; 
stroke-linecap:round; stroke-linejoin:round;fill:none"
d="M 130.0156,82.3121
130.9558,81.3719
130.0156,80.4317
129.0754,81.3719
Z" /> 
<path style="fill:none; 
stroke:#000000; stroke-width:0.1880; stroke-opacity:1; 
stroke-linecap:round; stroke-linejoin:round;fill:none"
d="M 130.0156,89.6600
130.9558,88.7198
130.0156,87.7796
129.0754,88.7198
Z" /> 
<path style="fill:none; 
stroke:#000000; stroke-width:0.1880; stroke-opacity:1; 
stroke-linecap:round; stroke-linejoin:round;fill:none"
d="M 181.4510,38.2247
182.3911,37.2845
181.4510,36.3443
180.5108,37.2845
Z" /> 
<path style="fill:none; 
stroke:#000000; stroke-width:0.1880; stroke-opacity:1; 
stroke-linecap:round; stroke-linejoin:round;fill:none"
d="M 181.4510,45.5726
182.3911,44.6324
181.4510,43.6922
180.5108,44.6324
Z" /> 
<path style="fill:none; 
stroke:#000000; stroke-width:0.1880; stroke-opacity:1; 
stroke-linecap:round; stroke-linejoin:round;fill:none"
d="M 181.4510,82.3121
182.3911,81.3719
181.4510,80.4317
180.5108,81.3719
Z" /> 
<path style="fill:none; 
stroke:#000000; stroke-width:0.1880; stroke-opacity:1; 
stroke-linecap:round; stroke-linejoin:round;fill:none"
d="M 181.4510,89.6600
182.3911,88.7198
181.4510,87.7796
180.5108,88.7198
Z" /> 
<path style="fill:none; 
stroke:#000000; stroke-width:0.1880; stroke-opacity:1; 
stroke-linecap:round; stroke-linejoin:round;fill:none"
d="M 199.1264,37.9065
200.0666,36.9663
199.1264,36.0261
198.1862,36.9663
Z" /> 
<path style="fill:none; 
stroke:#000000; stroke-width:0.1880; stroke-opacity:1; 
stroke-linecap:round; stroke-linejoin:round;fill:none"
d="M 217.9301,100.1033
218.8703,99.1631
217.9301,98.2229
216.9899,99.1631
Z" /> 
<path style="fill:none; 
stroke:#000000; stroke-width:0.1880; stroke-opacity:1; 
stroke-linecap:round; stroke-linejoin:round;fill:none"
d="M 225.2780,100.1033
226.2182,99.1631
225.2780,98.2229
224.3378,99.1631
Z" /> 
<path style="fill:none; 
stroke:#000000; stroke-width:0.1880; stroke-opacity:1; 
stroke-linecap:round; stroke-linejoin:round;fill:none"
d="M 231.6713,37.9065
232.6115,36.9663
231.6713,36.0261
230.7311,36.9663
Z" /> 
</g>
<g style="fill:none; 
stroke:#000000; stroke-width:0.2000; stroke-opacity:1; 
stroke-linecap:round; stroke-linejoin:round;">
<text x="49.1058" y="124.2043"
textLength="14.8667" font-size="2.6667" lengthAdjust="spacingAndGlyphs"
text-anchor="start" opacity="0" stroke-opacity="0">Drill Map:</text>
<g class="stroked-text"><desc>Drill Map:</desc>
<path d="M49.7136 124.1192
L49.7136 122.1192
" />
<path d="M49.7136 122.1192
L50.1898 122.1192
" />
<path d="M50.1898 122.1192
L50.4755 122.2144
" />
<path d="M50.4755 122.2144
L50.6660 122.4049
" />
<path d="M50.6660 122.4049
L50.7612 122.5953
" />
<path d="M50.7612 122.5953
L50.8564 122.9763
" />
<path d="M50.8564 122.9763
L50.8564 123.2620
" />
<path d="M50.8564 123.2620
L50.7612 123.6430
" />
<path d="M50.7612 123.6430
L50.6660 123.8334
" />
<path d="M50.6660 123.8334
L50.4755 124.0239
" />
<path d="M50.4755 124.0239
L50.1898 124.1192
" />
<path d="M50.1898 124.1192
L49.7136 124.1192
" />
<path d="M51.7136 124.1192
L51.7136 122.7858
" />
<path d="M51.7136 123.1668
L51.8088 122.9763
" />
<path d="M51.8088 122.9763
L51.9040 122.8811
" />
<path d="M51.9040 122.8811
L52.0945 122.7858
" />
<path d="M52.0945 122.7858
L52.2850 122.7858
" />
<path d="M52.9517 124.1192
L52.9517 122.7858
" />
<path d="M52.9517 122.1192
L52.8564 122.2144
" />
<path d="M52.8564 122.2144
L52.9517 122.3096
" />
<path d="M52.9517 122.3096
L53.0469 122.2144
" />
<path d="M53.0469 122.2144
L52.9517 122.1192
" />
<path d="M52.9517 122.1192
L52.9517 122.3096
" />
<path d="M54.1898 124.1192
L53.9993 124.0239
" />
<path d="M53.9993 124.0239
L53.9040 123.8334
" />
<path d="M53.9040 123.8334
L53.9040 122.1192
" />
<path d="M55.2374 124.1192
L55.0469 124.0239
" />
<path d="M55.0469 124.0239
L54.9517 123.8334
" />
<path d="M54.9517 123.8334
L54.9517 122.1192
" />
<path d="M57.5231 124.1192
L57.5231 122.1192
" />
<path d="M57.5231 122.1192
L58.1898 123.5477
" />
<path d="M58.1898 123.5477
L58.8564 122.1192
" />
<path d="M58.8564 122.1192
L58.8564 124.1192
" />
<path d="M60.6660 124.1192
L60.6660 123.0715
" />
<path d="M60.6660 123.0715
L60.5707 122.8811
" />
<path d="M60.5707 122.8811
L60.3802 122.7858
" />
<path d="M60.3802 122.7858
L59.9993 122.7858
" />
<path d="M59.9993 122.7858
L59.8088 122.8811
" />
<path d="M60.6660 124.0239
L60.4755 124.1192
" />
<path d="M60.4755 124.1192
L59.9993 124.1192
" />
<path d="M59.9993 124.1192
L59.8088 124.0239
" />
<path d="M59.8088 124.0239
L59.7136 123.8334
" />
<path d="M59.7136 123.8334
L59.7136 123.6430
" />
<path d="M59.7136 123.6430
L59.8088 123.4525
" />
<path d="M59.8088 123.4525
L59.9993 123.3573
" />
<path d="M59.9993 123.3573
L60.4755 123.3573
" />
<path d="M60.4755 123.3573
L60.6660 123.2620
" />
<path d="M61.6183 122.7858
L61.6183 124.7858
" />
<path d="M61.6183 122.8811
L61.8088 122.7858
" />
<path d="M61.8088 122.7858
L62.1898 122.7858
" />
<path d="M62.1898 122.7858
L62.3802 122.8811
" />
<path d="M62.3802 122.8811
L62.4755 122.9763
" />
<path d="M62.4755 122.9763
L62.5707 123.1668
" />
<path d="M62.5707 123.1668
L62.5707 123.7382
" />
<path d="M62.5707 123.7382
L62.4755 123.9287
" />
<path d="M62.4755 123.9287
L62.3802 124.0239
" />
<path d="M62.3802 124.0239
L62.1898 124.1192
" />
<path d="M62.1898 124.1192
L61.8088 124.1192
" />
<path d="M61.8088 124.1192
L61.6183 124.0239
" />
<path d="M63.4279 123.9287
L63.5231 124.0239
" />
<path d="M63.5231 124.0239
L63.4279 124.1192
" />
<path d="M63.4279 124.1192
L63.3326 124.0239
" />
<path d="M63.3326 124.0239
L63.4279 123.9287
" />
<path d="M63.4279 123.9287
L63.4279 124.1192
" />
<path d="M63.4279 122.8811
L63.5231 122.9763
" />
<path d="M63.5231 122.9763
L63.4279 123.0715
" />
<path d="M63.4279 123.0715
L63.3326 122.9763
" />
<path d="M63.3326 122.9763
L63.4279 122.8811
" />
<path d="M63.4279 122.8811
L63.4279 123.0715
" />
</g></g>
<g style="fill:none; 
stroke:#000000; stroke-width:0.1446; stroke-opacity:1; 
stroke-linecap:round; stroke-linejoin:round;">
<path d="M46.0210 126.8619
L47.1058 127.9467
" />
<path d="M47.1058 126.8619
L46.0210 127.9467
" />
</g>
<g style="fill:none; 
stroke:#000000; stroke-width:0.2000; stroke-opacity:1; 
stroke-linecap:round; stroke-linejoin:round;">
<text x="49.1058" y="128.4043"
textLength="46.8667" font-size="2.6667" lengthAdjust="spacingAndGlyphs"
text-anchor="start" opacity="0" stroke-opacity="0">0.750mm / 0.0295" (3 holes)</text>
<g class="stroked-text"><desc>0.750mm / 0.0295" (3 holes)</desc>
<path d="M50.0945 126.3192
L50.2850 126.3192
" />
<path d="M50.2850 126.3192
L50.4755 126.4144
" />
<path d="M50.4755 126.4144
L50.5707 126.5096
" />
<path d="M50.5707 126.5096
L50.6660 126.7001
" />
<path d="M50.6660 126.7001
L50.7612 127.0811
" />
<path d="M50.7612 127.0811
L50.7612 127.5573
" />
<path d="M50.7612 127.5573
L50.6660 127.9382
" />
<path d="M50.6660 127.9382
L50.5707 128.1287
" />
<path d="M50.5707 128.1287
L50.4755 128.2239
" />
<path d="M50.4755 128.2239
L50.2850 128.3192
" />
<path d="M50.2850 128.3192
L50.0945 128.3192
" />
<path d="M50.0945 128.3192
L49.9040 128.2239
" />
<path d="M49.9040 128.2239
L49.8088 128.1287
" />
<path d="M49.8088 128.1287
L49.7136 127.9382
" />
<path d="M49.7136 127.9382
L49.6183 127.5573
" />
<path d="M49.6183 127.5573
L49.6183 127.0811
" />
<path d="M49.6183 127.0811
L49.7136 126.7001
" />
<path d="M49.7136 126.7001
L49.8088 126.5096
" />
<path d="M49.8088 126.5096
L49.9040 126.4144
" />
<path d="M49.9040 126.4144
L50.0945 126.3192
" />
<path d="M51.6183 128.1287
L51.7136 128.2239
" />
<path d="M51.7136 128.2239
L51.6183 128.3192
" />
<path d="M51.6183 128.3192
L51.5231 128.2239
" />
<path d="M51.5231 128.2239
L51.6183 128.1287
" />
<path d="M51.6183 128.1287
L51.6183 128.3192
" />
<path d="M52.3802 126.3192
L53.7136 126.3192
" />
<path d="M53.7136 126.3192
L52.8564 128.3192
" />
<path d="M55.4279 126.3192
L54.4755 126.3192
" />
<path d="M54.4755 126.3192
L54.3802 127.2715
" />
<path d="M54.3802 127.2715
L54.4755 127.1763
" />
<path d="M54.4755 127.1763
L54.6660 127.0811
" />
<path d="M54.6660 127.0811
L55.1421 127.0811
" />
<path d="M55.1421 127.0811
L55.3326 127.1763
" />
<path d="M55.3326 127.1763
L55.4279 127.2715
" />
<path d="M55.4279 127.2715
L55.5231 127.4620
" />
<path d="M55.5231 127.4620
L55.5231 127.9382
" />
<path d="M55.5231 127.9382
L55.4279 128.1287
" />
<path d="M55.4279 128.1287
L55.3326 128.2239
" />
<path d="M55.3326 128.2239
L55.1421 128.3192
" />
<path d="M55.1421 128.3192
L54.6660 128.3192
" />
<path d="M54.6660 128.3192
L54.4755 128.2239
" />
<path d="M54.4755 128.2239
L54.3802 128.1287
" />
<path d="M56.7612 126.3192
L56.9517 126.3192
" />
<path d="M56.9517 126.3192
L57.1421 126.4144
" />
<path d="M57.1421 126.4144
L57.2374 126.5096
" />
<path d="M57.2374 126.5096
L57.3326 126.7001
" />
<path d="M57.3326 126.7001
L57.4279 127.0811
" />
<path d="M57.4279 127.0811
L57.4279 127.5573
" />
<path d="M57.4279 127.5573
L57.3326 127.9382
" />
<path d="M57.3326 127.9382
L57.2374 128.1287
" />
<path d="M57.2374 128.1287
L57.1421 128.2239
" />
<path d="M57.1421 128.2239
L56.9517 128.3192
" />
<path d="M56.9517 128.3192
L56.7612 128.3192
" />
<path d="M56.7612 128.3192
L56.5707 128.2239
" />
<path d="M56.5707 128.2239
L56.4755 128.1287
" />
<path d="M56.4755 128.1287
L56.3802 127.9382
" />
<path d="M56.3802 127.9382
L56.2850 127.5573
" />
<path d="M56.2850 127.5573
L56.2850 127.0811
" />
<path d="M56.2850 127.0811
L56.3802 126.7001
" />
<path d="M56.3802 126.7001
L56.4755 126.5096
" />
<path d="M56.4755 126.5096
L56.5707 126.4144
" />
<path d="M56.5707 126.4144
L56.7612 126.3192
" />
<path d="M58.2850 128.3192
L58.2850 126.9858
" />
<path d="M58.2850 127.1763
L58.3802 127.0811
" />
<path d="M58.3802 127.0811
L58.5707 126.9858
" />
<path d="M58.5707 126.9858
L58.8564 126.9858
" />
<path d="M58.8564 126.9858
L59.0469 127.0811
" />
<path d="M59.0469 127.0811
L59.1421 127.2715
" />
<path d="M59.1421 127.2715
L59.1421 128.3192
" />
<path d="M59.1421 127.2715
L59.2374 127.0811
" />
<path d="M59.2374 127.0811
L59.4279 126.9858
" />
<path d="M59.4279 126.9858
L59.7136 126.9858
" />
<path d="M59.7136 126.9858
L59.9040 127.0811
" />
<path d="M59.9040 127.0811
L59.9993 127.2715
" />
<path d="M59.9993 127.2715
L59.9993 128.3192
" />
<path d="M60.9517 128.3192
L60.9517 126.9858
" />
<path d="M60.9517 127.1763
L61.0469 127.0811
" />
<path d="M61.0469 127.0811
L61.2374 126.9858
" />
<path d="M61.2374 126.9858
L61.5231 126.9858
" />
<path d="M61.5231 126.9858
L61.7136 127.0811
" />
<path d="M61.7136 127.0811
L61.8088 127.2715
" />
<path d="M61.8088 127.2715
L61.8088 128.3192
" />
<path d="M61.8088 127.2715
L61.9040 127.0811
" />
<path d="M61.9040 127.0811
L62.0945 126.9858
" />
<path d="M62.0945 126.9858
L62.3802 126.9858
" />
<path d="M62.3802 126.9858
L62.5707 127.0811
" />
<path d="M62.5707 127.0811
L62.6660 127.2715
" />
<path d="M62.6660 127.2715
L62.6660 128.3192
" />
<path d="M66.5707 126.2239
L64.8564 128.7953
" />
<path d="M69.1421 126.3192
L69.3326 126.3192
" />
<path d="M69.3326 126.3192
L69.5231 126.4144
" />
<path d="M69.5231 126.4144
L69.6183 126.5096
" />
<path d="M69.6183 126.5096
L69.7136 126.7001
" />
<path d="M69.7136 126.7001
L69.8088 127.0811
" />
<path d="M69.8088 127.0811
L69.8088 127.5573
" />
<path d="M69.8088 127.5573
L69.7136 127.9382
" />
<path d="M69.7136 127.9382
L69.6183 128.1287
" />
<path d="M69.6183 128.1287
L69.5231 128.2239
" />
<path d="M69.5231 128.2239
L69.3326 128.3192
" />
<path d="M69.3326 128.3192
L69.1421 128.3192
" />
<path d="M69.1421 128.3192
L68.9517 128.2239
" />
<path d="M68.9517 128.2239
L68.8564 128.1287
" />
<path d="M68.8564 128.1287
L68.7612 127.9382
" />
<path d="M68.7612 127.9382
L68.6659 127.5573
" />
<path d="M68.6659 127.5573
L68.6659 127.0811
" />
<path d="M68.6659 127.0811
L68.7612 126.7001
" />
<path d="M68.7612 126.7001
L68.8564 126.5096
" />
<path d="M68.8564 126.5096
L68.9517 126.4144
" />
<path d="M68.9517 126.4144
L69.1421 126.3192
" />
<path d="M70.6659 128.1287
L70.7612 128.2239
" />
<path d="M70.7612 128.2239
L70.6659 128.3192
" />
<path d="M70.6659 128.3192
L70.5707 128.2239
" />
<path d="M70.5707 128.2239
L70.6659 128.1287
" />
<path d="M70.6659 128.1287
L70.6659 128.3192
" />
<path d="M71.9993 126.3192
L72.1898 126.3192
" />
<path d="M72.1898 126.3192
L72.3802 126.4144
" />
<path d="M72.3802 126.4144
L72.4755 126.5096
" />
<path d="M72.4755 126.5096
L72.5707 126.7001
" />
<path d="M72.5707 126.7001
L72.6660 127.0811
" />
<path d="M72.6660 127.0811
L72.6660 127.5573
" />
<path d="M72.6660 127.5573
L72.5707 127.9382
" />
<path d="M72.5707 127.9382
L72.4755 128.1287
" />
<path d="M72.4755 128.1287
L72.3802 128.2239
" />
<path d="M72.3802 128.2239
L72.1898 128.3192
" />
<path d="M72.1898 128.3192
L71.9993 128.3192
" />
<path d="M71.9993 128.3192
L71.8088 128.2239
" />
<path d="M71.8088 128.2239
L71.7136 128.1287
" />
<path d="M71.7136 128.1287
L71.6183 127.9382
" />
<path d="M71.6183 127.9382
L71.5231 127.5573
" />
<path d="M71.5231 127.5573
L71.5231 127.0811
" />
<path d="M71.5231 127.0811
L71.6183 126.7001
" />
<path d="M71.6183 126.7001
L71.7136 126.5096
" />
<path d="M71.7136 126.5096
L71.8088 126.4144
" />
<path d="M71.8088 126.4144
L71.9993 126.3192
" />
<path d="M73.4279 126.5096
L73.5231 126.4144
" />
<path d="M73.5231 126.4144
L73.7136 126.3192
" />
<path d="M73.7136 126.3192
L74.1898 126.3192
" />
<path d="M74.1898 126.3192
L74.3802 126.4144
" />
<path d="M74.3802 126.4144
L74.4755 126.5096
" />
<path d="M74.4755 126.5096
L74.5707 126.7001
" />
<path d="M74.5707 126.7001
L74.5707 126.8906
" />
<path d="M74.5707 126.8906
L74.4755 127.1763
" />
<path d="M74.4755 127.1763
L73.3326 128.3192
" />
<path d="M73.3326 128.3192
L74.5707 128.3192
" />
<path d="M75.5231 128.3192
L75.9040 128.3192
" />
<path d="M75.9040 128.3192
L76.0945 128.2239
" />
<path d="M76.0945 128.2239
L76.1898 128.1287
" />
<path d="M76.1898 128.1287
L76.3802 127.8430
" />
<path d="M76.3802 127.8430
L76.4755 127.4620
" />
<path d="M76.4755 127.4620
L76.4755 126.7001
" />
<path d="M76.4755 126.7001
L76.3802 126.5096
" />
<path d="M76.3802 126.5096
L76.2850 126.4144
" />
<path d="M76.2850 126.4144
L76.0945 126.3192
" />
<path d="M76.0945 126.3192
L75.7136 126.3192
" />
<path d="M75.7136 126.3192
L75.5231 126.4144
" />
<path d="M75.5231 126.4144
L75.4279 126.5096
" />
<path d="M75.4279 126.5096
L75.3326 126.7001
" />
<path d="M75.3326 126.7001
L75.3326 127.1763
" />
<path d="M75.3326 127.1763
L75.4279 127.3668
" />
<path d="M75.4279 127.3668
L75.5231 127.4620
" />
<path d="M75.5231 127.4620
L75.7136 127.5573
" />
<path d="M75.7136 127.5573
L76.0945 127.5573
" />
<path d="M76.0945 127.5573
L76.2850 127.4620
" />
<path d="M76.2850 127.4620
L76.3802 127.3668
" />
<path d="M76.3802 127.3668
L76.4755 127.1763
" />
<path d="M78.2850 126.3192
L77.3326 126.3192
" />
<path d="M77.3326 126.3192
L77.2374 127.2715
" />
<path d="M77.2374 127.2715
L77.3326 127.1763
" />
<path d="M77.3326 127.1763
L77.5231 127.0811
" />
<path d="M77.5231 127.0811
L77.9993 127.0811
" />
<path d="M77.9993 127.0811
L78.1898 127.1763
" />
<path d="M78.1898 127.1763
L78.2850 127.2715
" />
<path d="M78.2850 127.2715
L78.3802 127.4620
" />
<path d="M78.3802 127.4620
L78.3802 127.9382
" />
<path d="M78.3802 127.9382
L78.2850 128.1287
" />
<path d="M78.2850 128.1287
L78.1898 128.2239
" />
<path d="M78.1898 128.2239
L77.9993 128.3192
" />
<path d="M77.9993 128.3192
L77.5231 128.3192
" />
<path d="M77.5231 128.3192
L77.3326 128.2239
" />
<path d="M77.3326 128.2239
L77.2374 128.1287
" />
<path d="M79.1421 126.3192
L79.1421 126.7001
" />
<path d="M79.9040 126.3192
L79.9040 126.7001
" />
<path d="M82.8564 129.0811
L82.7612 128.9858
" />
<path d="M82.7612 128.9858
L82.5707 128.7001
" />
<path d="M82.5707 128.7001
L82.4755 128.5096
" />
<path d="M82.4755 128.5096
L82.3802 128.2239
" />
<path d="M82.3802 128.2239
L82.2850 127.7477
" />
<path d="M82.2850 127.7477
L82.2850 127.3668
" />
<path d="M82.2850 127.3668
L82.3802 126.8906
" />
<path d="M82.3802 126.8906
L82.4755 126.6049
" />
<path d="M82.4755 126.6049
L82.5707 126.4144
" />
<path d="M82.5707 126.4144
L82.7612 126.1287
" />
<path d="M82.7612 126.1287
L82.8564 126.0334
" />
<path d="M83.4279 126.3192
L84.6660 126.3192
" />
<path d="M84.6660 126.3192
L83.9993 127.0811
" />
<path d="M83.9993 127.0811
L84.2850 127.0811
" />
<path d="M84.2850 127.0811
L84.4755 127.1763
" />
<path d="M84.4755 127.1763
L84.5707 127.2715
" />
<path d="M84.5707 127.2715
L84.6660 127.4620
" />
<path d="M84.6660 127.4620
L84.6660 127.9382
" />
<path d="M84.6660 127.9382
L84.5707 128.1287
" />
<path d="M84.5707 128.1287
L84.4755 128.2239
" />
<path d="M84.4755 128.2239
L84.2850 128.3192
" />
<path d="M84.2850 128.3192
L83.7136 128.3192
" />
<path d="M83.7136 128.3192
L83.5231 128.2239
" />
<path d="M83.5231 128.2239
L83.4279 128.1287
" />
<path d="M87.0469 128.3192
L87.0469 126.3192
" />
<path d="M87.9040 128.3192
L87.9040 127.2715
" />
<path d="M87.9040 127.2715
L87.8088 127.0811
" />
<path d="M87.8088 127.0811
L87.6183 126.9858
" />
<path d="M87.6183 126.9858
L87.3326 126.9858
" />
<path d="M87.3326 126.9858
L87.1421 127.0811
" />
<path d="M87.1421 127.0811
L87.0469 127.1763
" />
<path d="M89.1421 128.3192
L88.9517 128.2239
" />
<path d="M88.9517 128.2239
L88.8564 128.1287
" />
<path d="M88.8564 128.1287
L88.7612 127.9382
" />
<path d="M88.7612 127.9382
L88.7612 127.3668
" />
<path d="M88.7612 127.3668
L88.8564 127.1763
" />
<path d="M88.8564 127.1763
L88.9517 127.0811
" />
<path d="M88.9517 127.0811
L89.1421 126.9858
" />
<path d="M89.1421 126.9858
L89.4279 126.9858
" />
<path d="M89.4279 126.9858
L89.6183 127.0811
" />
<path d="M89.6183 127.0811
L89.7136 127.1763
" />
<path d="M89.7136 127.1763
L89.8088 127.3668
" />
<path d="M89.8088 127.3668
L89.8088 127.9382
" />
<path d="M89.8088 127.9382
L89.7136 128.1287
" />
<path d="M89.7136 128.1287
L89.6183 128.2239
" />
<path d="M89.6183 128.2239
L89.4279 128.3192
" />
<path d="M89.4279 128.3192
L89.1421 128.3192
" />
<path d="M90.9517 128.3192
L90.7612 128.2239
" />
<path d="M90.7612 128.2239
L90.6660 128.0334
" />
<path d="M90.6660 128.0334
L90.6660 126.3192
" />
<path d="M92.4755 128.2239
L92.2850 128.3192
" />
<path d="M92.2850 128.3192
L91.9040 128.3192
" />
<path d="M91.9040 128.3192
L91.7136 128.2239
" />
<path d="M91.7136 128.2239
L91.6183 128.0334
" />
<path d="M91.6183 128.0334
L91.6183 127.2715
" />
<path d="M91.6183 127.2715
L91.7136 127.0811
" />
<path d="M91.7136 127.0811
L91.9040 126.9858
" />
<path d="M91.9040 126.9858
L92.2850 126.9858
" />
<path d="M92.2850 126.9858
L92.4755 127.0811
" />
<path d="M92.4755 127.0811
L92.5707 127.2715
" />
<path d="M92.5707 127.2715
L92.5707 127.4620
" />
<path d="M92.5707 127.4620
L91.6183 127.6525
" />
<path d="M93.3326 128.2239
L93.5231 128.3192
" />
<path d="M93.5231 128.3192
L93.9040 128.3192
" />
<path d="M93.9040 128.3192
L94.0945 128.2239
" />
<path d="M94.0945 128.2239
L94.1898 128.0334
" />
<path d="M94.1898 128.0334
L94.1898 127.9382
" />
<path d="M94.1898 127.9382
L94.0945 127.7477
" />
<path d="M94.0945 127.7477
L93.9040 127.6525
" />
<path d="M93.9040 127.6525
L93.6183 127.6525
" />
<path d="M93.6183 127.6525
L93.4279 127.5573
" />
<path d="M93.4279 127.5573
L93.3326 127.3668
" />
<path d="M93.3326 127.3668
L93.3326 127.2715
" />
<path d="M93.3326 127.2715
L93.4279 127.0811
" />
<path d="M93.4279 127.0811
L93.6183 126.9858
" />
<path d="M93.6183 126.9858
L93.9040 126.9858
" />
<path d="M93.9040 126.9858
L94.0945 127.0811
" />
<path d="M94.8564 129.0811
L94.9517 128.9858
" />
<path d="M94.9517 128.9858
L95.1421 128.7001
" />
<path d="M95.1421 128.7001
L95.2374 128.5096
" />
<path d="M95.2374 128.5096
L95.3326 128.2239
" />
<path d="M95.3326 128.2239
L95.4279 127.7477
" />
<path d="M95.4279 127.7477
L95.4279 127.3668
" />
<path d="M95.4279 127.3668
L95.3326 126.8906
" />
<path d="M95.3326 126.8906
L95.2374 126.6049
" />
<path d="M95.2374 126.6049
L95.1421 126.4144
" />
<path d="M95.1421 126.4144
L94.9517 126.1287
" />
<path d="M94.9517 126.1287
L94.8564 126.0334
" />
</g></g>
<g style="fill:none; 
stroke:#000000; stroke-width:0.1446; stroke-opacity:1; 
stroke-linecap:round; stroke-linejoin:round;">
<circle cx="46.5272" cy="130.0443" r="0.5786" /> 
</g>
<g style="fill:none; 
stroke:#000000; stroke-width:0.2000; stroke-opacity:1; 
stroke-linecap:round; stroke-linejoin:round;">
<text x="49.1058" y="131.0443"
textLength="48.7714" font-size="2.6667" lengthAdjust="spacingAndGlyphs"
text-anchor="start" opacity="0" stroke-opacity="0">0.800mm / 0.0315" (11 holes)</text>
<g class="stroked-text"><desc>0.800mm / 0.0315" (11 holes)</desc>
<path d="M50.0945 128.9592
L50.2850 128.9592
" />
<path d="M50.2850 128.9592
L50.4755 129.0544
" />
<path d="M50.4755 129.0544
L50.5707 129.1496
" />
<path d="M50.5707 129.1496
L50.6660 129.3401
" />
<path d="M50.6660 129.3401
L50.7612 129.7211
" />
<path d="M50.7612 129.7211
L50.7612 130.1973
" />
<path d="M50.7612 130.1973
L50.6660 130.5782
" />
<path d="M50.6660 130.5782
L50.5707 130.7687
" />
<path d="M50.5707 130.7687
L50.4755 130.8639
" />
<path d="M50.4755 130.8639
L50.2850 130.9592
" />
<path d="M50.2850 130.9592
L50.0945 130.9592
" />
<path d="M50.0945 130.9592
L49.9040 130.8639
" />
<path d="M49.9040 130.8639
L49.8088 130.7687
" />
<path d="M49.8088 130.7687
L49.7136 130.5782
" />
<path d="M49.7136 130.5782
L49.6183 130.1973
" />
<path d="M49.6183 130.1973
L49.6183 129.7211
" />
<path d="M49.6183 129.7211
L49.7136 129.3401
" />
<path d="M49.7136 129.3401
L49.8088 129.1496
" />
<path d="M49.8088 129.1496
L49.9040 129.0544
" />
<path d="M49.9040 129.0544
L50.0945 128.9592
" />
<path d="M51.6183 130.7687
L51.7136 130.8639
" />
<path d="M51.7136 130.8639
L51.6183 130.9592
" />
<path d="M51.6183 130.9592
L51.5231 130.8639
" />
<path d="M51.5231 130.8639
L51.6183 130.7687
" />
<path d="M51.6183 130.7687
L51.6183 130.9592
" />
<path d="M52.8564 129.8163
L52.6660 129.7211
" />
<path d="M52.6660 129.7211
L52.5707 129.6258
" />
<path d="M52.5707 129.6258
L52.4755 129.4353
" />
<path d="M52.4755 129.4353
L52.4755 129.3401
" />
<path d="M52.4755 129.3401
L52.5707 129.1496
" />
<path d="M52.5707 129.1496
L52.6660 129.0544
" />
<path d="M52.6660 129.0544
L52.8564 128.9592
" />
<path d="M52.8564 128.9592
L53.2374 128.9592
" />
<path d="M53.2374 128.9592
L53.4279 129.0544
" />
<path d="M53.4279 129.0544
L53.5231 129.1496
" />
<path d="M53.5231 129.1496
L53.6183 129.3401
" />
<path d="M53.6183 129.3401
L53.6183 129.4353
" />
<path d="M53.6183 129.4353
L53.5231 129.6258
" />
<path d="M53.5231 129.6258
L53.4279 129.7211
" />
<path d="M53.4279 129.7211
L53.2374 129.8163
" />
<path d="M53.2374 129.8163
L52.8564 129.8163
" />
<path d="M52.8564 129.8163
L52.6660 129.9115
" />
<path d="M52.6660 129.9115
L52.5707 130.0068
" />
<path d="M52.5707 130.0068
L52.4755 130.1973
" />
<path d="M52.4755 130.1973
L52.4755 130.5782
" />
<path d="M52.4755 130.5782
L52.5707 130.7687
" />
<path d="M52.5707 130.7687
L52.6660 130.8639
" />
<path d="M52.6660 130.8639
L52.8564 130.9592
" />
<path d="M52.8564 130.9592
L53.2374 130.9592
" />
<path d="M53.2374 130.9592
L53.4279 130.8639
" />
<path d="M53.4279 130.8639
L53.5231 130.7687
" />
<path d="M53.5231 130.7687
L53.6183 130.5782
" />
<path d="M53.6183 130.5782
L53.6183 130.1973
" />
<path d="M53.6183 130.1973
L53.5231 130.0068
" />
<path d="M53.5231 130.0068
L53.4279 129.9115
" />
<path d="M53.4279 129.9115
L53.2374 129.8163
" />
<path d="M54.8564 128.9592
L55.0469 128.9592
" />
<path d="M55.0469 128.9592
L55.2374 129.0544
" />
<path d="M55.2374 129.0544
L55.3326 129.1496
" />
<path d="M55.3326 129.1496
L55.4279 129.3401
" />
<path d="M55.4279 129.3401
L55.5231 129.7211
" />
<path d="M55.5231 129.7211
L55.5231 130.1973
" />
<path d="M55.5231 130.1973
L55.4279 130.5782
" />
<path d="M55.4279 130.5782
L55.3326 130.7687
" />
<path d="M55.3326 130.7687
L55.2374 130.8639
" />
<path d="M55.2374 130.8639
L55.0469 130.9592
" />
<path d="M55.0469 130.9592
L54.8564 130.9592
" />
<path d="M54.8564 130.9592
L54.6660 130.8639
" />
<path d="M54.6660 130.8639
L54.5707 130.7687
" />
<path d="M54.5707 130.7687
L54.4755 130.5782
" />
<path d="M54.4755 130.5782
L54.3802 130.1973
" />
<path d="M54.3802 130.1973
L54.3802 129.7211
" />
<path d="M54.3802 129.7211
L54.4755 129.3401
" />
<path d="M54.4755 129.3401
L54.5707 129.1496
" />
<path d="M54.5707 129.1496
L54.6660 129.0544
" />
<path d="M54.6660 129.0544
L54.8564 128.9592
" />
<path d="M56.7612 128.9592
L56.9517 128.9592
" />
<path d="M56.9517 128.9592
L57.1421 129.0544
" />
<path d="M57.1421 129.0544
L57.2374 129.1496
" />
<path d="M57.2374 129.1496
L57.3326 129.3401
" />
<path d="M57.3326 129.3401
L57.4279 129.7211
" />
<path d="M57.4279 129.7211
L57.4279 130.1973
" />
<path d="M57.4279 130.1973
L57.3326 130.5782
" />
<path d="M57.3326 130.5782
L57.2374 130.7687
" />
<path d="M57.2374 130.7687
L57.1421 130.8639
" />
<path d="M57.1421 130.8639
L56.9517 130.9592
" />
<path d="M56.9517 130.9592
L56.7612 130.9592
" />
<path d="M56.7612 130.9592
L56.5707 130.8639
" />
<path d="M56.5707 130.8639
L56.4755 130.7687
" />
<path d="M56.4755 130.7687
L56.3802 130.5782
" />
<path d="M56.3802 130.5782
L56.2850 130.1973
" />
<path d="M56.2850 130.1973
L56.2850 129.7211
" />
<path d="M56.2850 129.7211
L56.3802 129.3401
" />
<path d="M56.3802 129.3401
L56.4755 129.1496
" />
<path d="M56.4755 129.1496
L56.5707 129.0544
" />
<path d="M56.5707 129.0544
L56.7612 128.9592
" />
<path d="M58.2850 130.9592
L58.2850 129.6258
" />
<path d="M58.2850 129.8163
L58.3802 129.7211
" />
<path d="M58.3802 129.7211
L58.5707 129.6258
" />
<path d="M58.5707 129.6258
L58.8564 129.6258
" />
<path d="M58.8564 129.6258
L59.0469 129.7211
" />
<path d="M59.0469 129.7211
L59.1421 129.9115
" />
<path d="M59.1421 129.9115
L59.1421 130.9592
" />
<path d="M59.1421 129.9115
L59.2374 129.7211
" />
<path d="M59.2374 129.7211
L59.4279 129.6258
" />
<path d="M59.4279 129.6258
L59.7136 129.6258
" />
<path d="M59.7136 129.6258
L59.9040 129.7211
" />
<path d="M59.9040 129.7211
L59.9993 129.9115
" />
<path d="M59.9993 129.9115
L59.9993 130.9592
" />
<path d="M60.9517 130.9592
L60.9517 129.6258
" />
<path d="M60.9517 129.8163
L61.0469 129.7211
" />
<path d="M61.0469 129.7211
L61.2374 129.6258
" />
<path d="M61.2374 129.6258
L61.5231 129.6258
" />
<path d="M61.5231 129.6258
L61.7136 129.7211
" />
<path d="M61.7136 129.7211
L61.8088 129.9115
" />
<path d="M61.8088 129.9115
L61.8088 130.9592
" />
<path d="M61.8088 129.9115
L61.9040 129.7211
" />
<path d="M61.9040 129.7211
L62.0945 129.6258
" />
<path d="M62.0945 129.6258
L62.3802 129.6258
" />
<path d="M62.3802 129.6258
L62.5707 129.7211
" />
<path d="M62.5707 129.7211
L62.6660 129.9115
" />
<path d="M62.6660 129.9115
L62.6660 130.9592
" />
<path d="M66.5707 128.8639
L64.8564 131.4353
" />
<path d="M69.1421 128.9592
L69.3326 128.9592
" />
<path d="M69.3326 128.9592
L69.5231 129.0544
" />
<path d="M69.5231 129.0544
L69.6183 129.1496
" />
<path d="M69.6183 129.1496
L69.7136 129.3401
" />
<path d="M69.7136 129.3401
L69.8088 129.7211
" />
<path d="M69.8088 129.7211
L69.8088 130.1973
" />
<path d="M69.8088 130.1973
L69.7136 130.5782
" />
<path d="M69.7136 130.5782
L69.6183 130.7687
" />
<path d="M69.6183 130.7687
L69.5231 130.8639
" />
<path d="M69.5231 130.8639
L69.3326 130.9592
" />
<path d="M69.3326 130.9592
L69.1421 130.9592
" />
<path d="M69.1421 130.9592
L68.9517 130.8639
" />
<path d="M68.9517 130.8639
L68.8564 130.7687
" />
<path d="M68.8564 130.7687
L68.7612 130.5782
" />
<path d="M68.7612 130.5782
L68.6659 130.1973
" />
<path d="M68.6659 130.1973
L68.6659 129.7211
" />
<path d="M68.6659 129.7211
L68.7612 129.3401
" />
<path d="M68.7612 129.3401
L68.8564 129.1496
" />
<path d="M68.8564 129.1496
L68.9517 129.0544
" />
<path d="M68.9517 129.0544
L69.1421 128.9592
" />
<path d="M70.6659 130.7687
L70.7612 130.8639
" />
<path d="M70.7612 130.8639
L70.6659 130.9592
" />
<path d="M70.6659 130.9592
L70.5707 130.8639
" />
<path d="M70.5707 130.8639
L70.6659 130.7687
" />
<path d="M70.6659 130.7687
L70.6659 130.9592
" />
<path d="M71.9993 128.9592
L72.1898 128.9592
" />
<path d="M72.1898 128.9592
L72.3802 129.0544
" />
<path d="M72.3802 129.0544
L72.4755 129.1496
" />
<path d="M72.4755 129.1496
L72.5707 129.3401
" />
<path d="M72.5707 129.3401
L72.6660 129.7211
" />
<path d="M72.6660 129.7211
L72.6660 130.1973
" />
<path d="M72.6660 130.1973
L72.5707 130.5782
" />
<path d="M72.5707 130.5782
L72.4755 130.7687
" />
<path d="M72.4755 130.7687
L72.3802 130.8639
" />
<path d="M72.3802 130.8639
L72.1898 130.9592
" />
<path d="M72.1898 130.9592
L71.9993 130.9592
" />
<path d="M71.9993 130.9592
L71.8088 130.8639
" />
<path d="M71.8088 130.8639
L71.7136 130.7687
" />
<path d="M71.7136 130.7687
L71.6183 130.5782
" />
<path d="M71.6183 130.5782
L71.5231 130.1973
" />
<path d="M71.5231 130.1973
L71.5231 129.7211
" />
<path d="M71.5231 129.7211
L71.6183 129.3401
" />
<path d="M71.6183 129.3401
L71.7136 129.1496
" />
<path d="M71.7136 129.1496
L71.8088 129.0544
" />
<path d="M71.8088 129.0544
L71.9993 128.9592
" />
<path d="M73.3326 128.9592
L74.5707 128.9592
" />
<path d="M74.5707 128.9592
L73.9040 129.7211
" />
<path d="M73.9040 129.7211
L74.1898 129.7211
" />
<path d="M74.1898 129.7211
L74.3802 129.8163
" />
<path d="M74.3802 129.8163
L74.4755 129.9115
" />
<path d="M74.4755 129.9115
L74.5707 130.1020
" />
<path d="M74.5707 130.1020
L74.5707 130.5782
" />
<path d="M74.5707 130.5782
L74.4755 130.7687
" />
<path d="M74.4755 130.7687
L74.3802 130.8639
" />
<path d="M74.3802 130.8639
L74.1898 130.9592
" />
<path d="M74.1898 130.9592
L73.6183 130.9592
" />
<path d="M73.6183 130.9592
L73.4279 130.8639
" />
<path d="M73.4279 130.8639
L73.3326 130.7687
" />
<path d="M76.4755 130.9592
L75.3326 130.9592
" />
<path d="M75.9040 130.9592
L75.9040 128.9592
" />
<path d="M75.9040 128.9592
L75.7136 129.2449
" />
<path d="M75.7136 129.2449
L75.5231 129.4353
" />
<path d="M75.5231 129.4353
L75.3326 129.5306
" />
<path d="M78.2850 128.9592
L77.3326 128.9592
" />
<path d="M77.3326 128.9592
L77.2374 129.9115
" />
<path d="M77.2374 129.9115
L77.3326 129.8163
" />
<path d="M77.3326 129.8163
L77.5231 129.7211
" />
<path d="M77.5231 129.7211
L77.9993 129.7211
" />
<path d="M77.9993 129.7211
L78.1898 129.8163
" />
<path d="M78.1898 129.8163
L78.2850 129.9115
" />
<path d="M78.2850 129.9115
L78.3802 130.1020
" />
<path d="M78.3802 130.1020
L78.3802 130.5782
" />
<path d="M78.3802 130.5782
L78.2850 130.7687
" />
<path d="M78.2850 130.7687
L78.1898 130.8639
" />
<path d="M78.1898 130.8639
L77.9993 130.9592
" />
<path d="M77.9993 130.9592
L77.5231 130.9592
" />
<path d="M77.5231 130.9592
L77.3326 130.8639
" />
<path d="M77.3326 130.8639
L77.2374 130.7687
" />
<path d="M79.1421 128.9592
L79.1421 129.3401
" />
<path d="M79.9040 128.9592
L79.9040 129.3401
" />
<path d="M82.8564 131.7211
L82.7612 131.6258
" />
<path d="M82.7612 131.6258
L82.5707 131.3401
" />
<path d="M82.5707 131.3401
L82.4755 131.1496
" />
<path d="M82.4755 131.1496
L82.3802 130.8639
" />
<path d="M82.3802 130.8639
L82.2850 130.3877
" />
<path d="M82.2850 130.3877
L82.2850 130.0068
" />
<path d="M82.2850 130.0068
L82.3802 129.5306
" />
<path d="M82.3802 129.5306
L82.4755 129.2449
" />
<path d="M82.4755 129.2449
L82.5707 129.0544
" />
<path d="M82.5707 129.0544
L82.7612 128.7687
" />
<path d="M82.7612 128.7687
L82.8564 128.6734
" />
<path d="M84.6660 130.9592
L83.5231 130.9592
" />
<path d="M84.0945 130.9592
L84.0945 128.9592
" />
<path d="M84.0945 128.9592
L83.9040 129.2449
" />
<path d="M83.9040 129.2449
L83.7136 129.4353
" />
<path d="M83.7136 129.4353
L83.5231 129.5306
" />
<path d="M86.5707 130.9592
L85.4279 130.9592
" />
<path d="M85.9993 130.9592
L85.9993 128.9592
" />
<path d="M85.9993 128.9592
L85.8088 129.2449
" />
<path d="M85.8088 129.2449
L85.6183 129.4353
" />
<path d="M85.6183 129.4353
L85.4279 129.5306
" />
<path d="M88.9517 130.9592
L88.9517 128.9592
" />
<path d="M89.8088 130.9592
L89.8088 129.9115
" />
<path d="M89.8088 129.9115
L89.7136 129.7211
" />
<path d="M89.7136 129.7211
L89.5231 129.6258
" />
<path d="M89.5231 129.6258
L89.2374 129.6258
" />
<path d="M89.2374 129.6258
L89.0469 129.7211
" />
<path d="M89.0469 129.7211
L88.9517 129.8163
" />
<path d="M91.0469 130.9592
L90.8564 130.8639
" />
<path d="M90.8564 130.8639
L90.7612 130.7687
" />
<path d="M90.7612 130.7687
L90.6660 130.5782
" />
<path d="M90.6660 130.5782
L90.6660 130.0068
" />
<path d="M90.6660 130.0068
L90.7612 129.8163
" />
<path d="M90.7612 129.8163
L90.8564 129.7211
" />
<path d="M90.8564 129.7211
L91.0469 129.6258
" />
<path d="M91.0469 129.6258
L91.3326 129.6258
" />
<path d="M91.3326 129.6258
L91.5231 129.7211
" />
<path d="M91.5231 129.7211
L91.6183 129.8163
" />
<path d="M91.6183 129.8163
L91.7136 130.0068
" />
<path d="M91.7136 130.0068
L91.7136 130.5782
" />
<path d="M91.7136 130.5782
L91.6183 130.7687
" />
<path d="M91.6183 130.7687
L91.5231 130.8639
" />
<path d="M91.5231 130.8639
L91.3326 130.9592
" />
<path d="M91.3326 130.9592
L91.0469 130.9592
" />
<path d="M92.8564 130.9592
L92.6660 130.8639
" />
<path d="M92.6660 130.8639
L92.5707 130.6734
" />
<path d="M92.5707 130.6734
L92.5707 128.9592
" />
<path d="M94.3802 130.8639
L94.1898 130.9592
" />
<path d="M94.1898 130.9592
L93.8088 130.9592
" />
<path d="M93.8088 130.9592
L93.6183 130.8639
" />
<path d="M93.6183 130.8639
L93.5231 130.6734
" />
<path d="M93.5231 130.6734
L93.5231 129.9115
" />
<path d="M93.5231 129.9115
L93.6183 129.7211
" />
<path d="M93.6183 129.7211
L93.8088 129.6258
" />
<path d="M93.8088 129.6258
L94.1898 129.6258
" />
<path d="M94.1898 129.6258
L94.3802 129.7211
" />
<path d="M94.3802 129.7211
L94.4755 129.9115
" />
<path d="M94.4755 129.9115
L94.4755 130.1020
" />
<path d="M94.4755 130.1020
L93.5231 130.2925
" />
<path d="M95.2374 130.8639
L95.4279 130.9592
" />
<path d="M95.4279 130.9592
L95.8088 130.9592
" />
<path d="M95.8088 130.9592
L95.9993 130.8639
" />
<path d="M95.9993 130.8639
L96.0945 130.6734
" />
<path d="M96.0945 130.6734
L96.0945 130.5782
" />
<path d="M96.0945 130.5782
L95.9993 130.3877
" />
<path d="M95.9993 130.3877
L95.8088 130.2925
" />
<path d="M95.8088 130.2925
L95.5231 130.2925
" />
<path d="M95.5231 130.2925
L95.3326 130.1973
" />
<path d="M95.3326 130.1973
L95.2374 130.0068
" />
<path d="M95.2374 130.0068
L95.2374 129.9115
" />
<path d="M95.2374 129.9115
L95.3326 129.7211
" />
<path d="M95.3326 129.7211
L95.5231 129.6258
" />
<path d="M95.5231 129.6258
L95.8088 129.6258
" />
<path d="M95.8088 129.6258
L95.9993 129.7211
" />
<path d="M96.7612 131.7211
L96.8564 131.6258
" />
<path d="M96.8564 131.6258
L97.0469 131.3401
" />
<path d="M97.0469 131.3401
L97.1421 131.1496
" />
<path d="M97.1421 131.1496
L97.2374 130.8639
" />
<path d="M97.2374 130.8639
L97.3326 130.3877
" />
<path d="M97.3326 130.3877
L97.3326 130.0068
" />
<path d="M97.3326 130.0068
L97.2374 129.5306
" />
<path d="M97.2374 129.5306
L97.1421 129.2449
" />
<path d="M97.1421 129.2449
L97.0469 129.0544
" />
<path d="M97.0469 129.0544
L96.8564 128.7687
" />
<path d="M96.8564 128.7687
L96.7612 128.6734
" />
</g></g>
<g style="fill:none; 
stroke:#000000; stroke-width:0.1446; stroke-opacity:1; 
stroke-linecap:round; stroke-linejoin:round;">
<path d="M46.3826 131.9611
L46.3826 133.4075
" />
<path d="M45.6594 132.6843
L47.1058 132.6843
" />
</g>
<g style="fill:none; 
stroke:#000000; stroke-width:0.2000; stroke-opacity:1; 
stroke-linecap:round; stroke-linejoin:round;">
<text x="49.1058" y="133.6843"
textLength="46.8667" font-size="2.6667" lengthAdjust="spacingAndGlyphs"
text-anchor="start" opacity="0" stroke-opacity="0">1.000mm / 0.0394" (2 holes)</text>
<g class="stroked-text"><desc>1.000mm / 0.0394" (2 holes)</desc>
<path d="M50.7612 133.5992
L49.6183 133.5992
" />
<path d="M50.1898 133.5992
L50.1898 131.5992
" />
<path d="M50.1898 131.5992
L49.9993 131.8849
" />
<path d="M49.9993 131.8849
L49.8088 132.0754
" />
<path d="M49.8088 132.0754
L49.6183 132.1706
" />
<path d="M51.6183 133.4087
L51.7136 133.5039
" />
<path d="M51.7136 133.5039
L51.6183 133.5992
" />
<path d="M51.6183 133.5992
L51.5231 133.5039
" />
<path d="M51.5231 133.5039
L51.6183 133.4087
" />
<path d="M51.6183 133.4087
L51.6183 133.5992
" />
<path d="M52.9517 131.5992
L53.1421 131.5992
" />
<path d="M53.1421 131.5992
L53.3326 131.6944
" />
<path d="M53.3326 131.6944
L53.4279 131.7896
" />
<path d="M53.4279 131.7896
L53.5231 131.9801
" />
<path d="M53.5231 131.9801
L53.6183 132.3611
" />
<path d="M53.6183 132.3611
L53.6183 132.8373
" />
<path d="M53.6183 132.8373
L53.5231 133.2182
" />
<path d="M53.5231 133.2182
L53.4279 133.4087
" />
<path d="M53.4279 133.4087
L53.3326 133.5039
" />
<path d="M53.3326 133.5039
L53.1421 133.5992
" />
<path d="M53.1421 133.5992
L52.9517 133.5992
" />
<path d="M52.9517 133.5992
L52.7612 133.5039
" />
<path d="M52.7612 133.5039
L52.6660 133.4087
" />
<path d="M52.6660 133.4087
L52.5707 133.2182
" />
<path d="M52.5707 133.2182
L52.4755 132.8373
" />
<path d="M52.4755 132.8373
L52.4755 132.3611
" />
<path d="M52.4755 132.3611
L52.5707 131.9801
" />
<path d="M52.5707 131.9801
L52.6660 131.7896
" />
<path d="M52.6660 131.7896
L52.7612 131.6944
" />
<path d="M52.7612 131.6944
L52.9517 131.5992
" />
<path d="M54.8564 131.5992
L55.0469 131.5992
" />
<path d="M55.0469 131.5992
L55.2374 131.6944
" />
<path d="M55.2374 131.6944
L55.3326 131.7896
" />
<path d="M55.3326 131.7896
L55.4279 131.9801
" />
<path d="M55.4279 131.9801
L55.5231 132.3611
" />
<path d="M55.5231 132.3611
L55.5231 132.8373
" />
<path d="M55.5231 132.8373
L55.4279 133.2182
" />
<path d="M55.4279 133.2182
L55.3326 133.4087
" />
<path d="M55.3326 133.4087
L55.2374 133.5039
" />
<path d="M55.2374 133.5039
L55.0469 133.5992
" />
<path d="M55.0469 133.5992
L54.8564 133.5992
" />
<path d="M54.8564 133.5992
L54.6660 133.5039
" />
<path d="M54.6660 133.5039
L54.5707 133.4087
" />
<path d="M54.5707 133.4087
L54.4755 133.2182
" />
<path d="M54.4755 133.2182
L54.3802 132.8373
" />
<path d="M54.3802 132.8373
L54.3802 132.3611
" />
<path d="M54.3802 132.3611
L54.4755 131.9801
" />
<path d="M54.4755 131.9801
L54.5707 131.7896
" />
<path d="M54.5707 131.7896
L54.6660 131.6944
" />
<path d="M54.6660 131.6944
L54.8564 131.5992
" />
<path d="M56.7612 131.5992
L56.9517 131.5992
" />
<path d="M56.9517 131.5992
L57.1421 131.6944
" />
<path d="M57.1421 131.6944
L57.2374 131.7896
" />
<path d="M57.2374 131.7896
L57.3326 131.9801
" />
<path d="M57.3326 131.9801
L57.4279 132.3611
" />
<path d="M57.4279 132.3611
L57.4279 132.8373
" />
<path d="M57.4279 132.8373
L57.3326 133.2182
" />
<path d="M57.3326 133.2182
L57.2374 133.4087
" />
<path d="M57.2374 133.4087
L57.1421 133.5039
" />
<path d="M57.1421 133.5039
L56.9517 133.5992
" />
<path d="M56.9517 133.5992
L56.7612 133.5992
" />
<path d="M56.7612 133.5992
L56.5707 133.5039
" />
<path d="M56.5707 133.5039
L56.4755 133.4087
" />
<path d="M56.4755 133.4087
L56.3802 133.2182
" />
<path d="M56.3802 133.2182
L56.2850 132.8373
" />
<path d="M56.2850 132.8373
L56.2850 132.3611
" />
<path d="M56.2850 132.3611
L56.3802 131.9801
" />
<path d="M56.3802 131.9801
L56.4755 131.7896
" />
<path d="M56.4755 131.7896
L56.5707 131.6944
" />
<path d="M56.5707 131.6944
L56.7612 131.5992
" />
<path d="M58.2850 133.5992
L58.2850 132.2658
" />
<path d="M58.2850 132.4563
L58.3802 132.3611
" />
<path d="M58.3802 132.3611
L58.5707 132.2658
" />
<path d="M58.5707 132.2658
L58.8564 132.2658
" />
<path d="M58.8564 132.2658
L59.0469 132.3611
" />
<path d="M59.0469 132.3611
L59.1421 132.5515
" />
<path d="M59.1421 132.5515
L59.1421 133.5992
" />
<path d="M59.1421 132.5515
L59.2374 132.3611
" />
<path d="M59.2374 132.3611
L59.4279 132.2658
" />
<path d="M59.4279 132.2658
L59.7136 132.2658
" />
<path d="M59.7136 132.2658
L59.9040 132.3611
" />
<path d="M59.9040 132.3611
L59.9993 132.5515
" />
<path d="M59.9993 132.5515
L59.9993 133.5992
" />
<path d="M60.9517 133.5992
L60.9517 132.2658
" />
<path d="M60.9517 132.4563
L61.0469 132.3611
" />
<path d="M61.0469 132.3611
L61.2374 132.2658
" />
<path d="M61.2374 132.2658
L61.5231 132.2658
" />
<path d="M61.5231 132.2658
L61.7136 132.3611
" />
<path d="M61.7136 132.3611
L61.8088 132.5515
" />
<path d="M61.8088 132.5515
L61.8088 133.5992
" />
<path d="M61.8088 132.5515
L61.9040 132.3611
" />
<path d="M61.9040 132.3611
L62.0945 132.2658
" />
<path d="M62.0945 132.2658
L62.3802 132.2658
" />
<path d="M62.3802 132.2658
L62.5707 132.3611
" />
<path d="M62.5707 132.3611
L62.6660 132.5515
" />
<path d="M62.6660 132.5515
L62.6660 133.5992
" />
<path d="M66.5707 131.5039
L64.8564 134.0754
" />
<path d="M69.1421 131.5992
L69.3326 131.5992
" />
<path d="M69.3326 131.5992
L69.5231 131.6944
" />
<path d="M69.5231 131.6944
L69.6183 131.7896
" />
<path d="M69.6183 131.7896
L69.7136 131.9801
" />
<path d="M69.7136 131.9801
L69.8088 132.3611
" />
<path d="M69.8088 132.3611
L69.8088 132.8373
" />
<path d="M69.8088 132.8373
L69.7136 133.2182
" />
<path d="M69.7136 133.2182
L69.6183 133.4087
" />
<path d="M69.6183 133.4087
L69.5231 133.5039
" />
<path d="M69.5231 133.5039
L69.3326 133.5992
" />
<path d="M69.3326 133.5992
L69.1421 133.5992
" />
<path d="M69.1421 133.5992
L68.9517 133.5039
" />
<path d="M68.9517 133.5039
L68.8564 133.4087
" />
<path d="M68.8564 133.4087
L68.7612 133.2182
" />
<path d="M68.7612 133.2182
L68.6659 132.8373
" />
<path d="M68.6659 132.8373
L68.6659 132.3611
" />
<path d="M68.6659 132.3611
L68.7612 131.9801
" />
<path d="M68.7612 131.9801
L68.8564 131.7896
" />
<path d="M68.8564 131.7896
L68.9517 131.6944
" />
<path d="M68.9517 131.6944
L69.1421 131.5992
" />
<path d="M70.6659 133.4087
L70.7612 133.5039
" />
<path d="M70.7612 133.5039
L70.6659 133.5992
" />
<path d="M70.6659 133.5992
L70.5707 133.5039
" />
<path d="M70.5707 133.5039
L70.6659 133.4087
" />
<path d="M70.6659 133.4087
L70.6659 133.5992
" />
<path d="M71.9993 131.5992
L72.1898 131.5992
" />
<path d="M72.1898 131.5992
L72.3802 131.6944
" />
<path d="M72.3802 131.6944
L72.4755 131.7896
" />
<path d="M72.4755 131.7896
L72.5707 131.9801
" />
<path d="M72.5707 131.9801
L72.6660 132.3611
" />
<path d="M72.6660 132.3611
L72.6660 132.8373
" />
<path d="M72.6660 132.8373
L72.5707 133.2182
" />
<path d="M72.5707 133.2182
L72.4755 133.4087
" />
<path d="M72.4755 133.4087
L72.3802 133.5039
" />
<path d="M72.3802 133.5039
L72.1898 133.5992
" />
<path d="M72.1898 133.5992
L71.9993 133.5992
" />
<path d="M71.9993 133.5992
L71.8088 133.5039
" />
<path d="M71.8088 133.5039
L71.7136 133.4087
" />
<path d="M71.7136 133.4087
L71.6183 133.2182
" />
<path d="M71.6183 133.2182
L71.5231 132.8373
" />
<path d="M71.5231 132.8373
L71.5231 132.3611
" />
<path d="M71.5231 132.3611
L71.6183 131.9801
" />
<path d="M71.6183 131.9801
L71.7136 131.7896
" />
<path d="M71.7136 131.7896
L71.8088 131.6944
" />
<path d="M71.8088 131.6944
L71.9993 131.5992
" />
<path d="M73.3326 131.5992
L74.5707 131.5992
" />
<path d="M74.5707 131.5992
L73.9040 132.3611
" />
<path d="M73.9040 132.3611
L74.1898 132.3611
" />
<path d="M74.1898 132.3611
L74.3802 132.4563
" />
<path d="M74.3802 132.4563
L74.4755 132.5515
" />
<path d="M74.4755 132.5515
L74.5707 132.7420
" />
<path d="M74.5707 132.7420
L74.5707 133.2182
" />
<path d="M74.5707 133.2182
L74.4755 133.4087
" />
<path d="M74.4755 133.4087
L74.3802 133.5039
" />
<path d="M74.3802 133.5039
L74.1898 133.5992
" />
<path d="M74.1898 133.5992
L73.6183 133.5992
" />
<path d="M73.6183 133.5992
L73.4279 133.5039
" />
<path d="M73.4279 133.5039
L73.3326 133.4087
" />
<path d="M75.5231 133.5992
L75.9040 133.5992
" />
<path d="M75.9040 133.5992
L76.0945 133.5039
" />
<path d="M76.0945 133.5039
L76.1898 133.4087
" />
<path d="M76.1898 133.4087
L76.3802 133.1230
" />
<path d="M76.3802 133.1230
L76.4755 132.7420
" />
<path d="M76.4755 132.7420
L76.4755 131.9801
" />
<path d="M76.4755 131.9801
L76.3802 131.7896
" />
<path d="M76.3802 131.7896
L76.2850 131.6944
" />
<path d="M76.2850 131.6944
L76.0945 131.5992
" />
<path d="M76.0945 131.5992
L75.7136 131.5992
" />
<path d="M75.7136 131.5992
L75.5231 131.6944
" />
<path d="M75.5231 131.6944
L75.4279 131.7896
" />
<path d="M75.4279 131.7896
L75.3326 131.9801
" />
<path d="M75.3326 131.9801
L75.3326 132.4563
" />
<path d="M75.3326 132.4563
L75.4279 132.6468
" />
<path d="M75.4279 132.6468
L75.5231 132.7420
" />
<path d="M75.5231 132.7420
L75.7136 132.8373
" />
<path d="M75.7136 132.8373
L76.0945 132.8373
" />
<path d="M76.0945 132.8373
L76.2850 132.7420
" />
<path d="M76.2850 132.7420
L76.3802 132.6468
" />
<path d="M76.3802 132.6468
L76.4755 132.4563
" />
<path d="M78.1898 132.2658
L78.1898 133.5992
" />
<path d="M77.7136 131.5039
L77.2374 132.9325
" />
<path d="M77.2374 132.9325
L78.4755 132.9325
" />
<path d="M79.1421 131.5992
L79.1421 131.9801
" />
<path d="M79.9040 131.5992
L79.9040 131.9801
" />
<path d="M82.8564 134.3611
L82.7612 134.2658
" />
<path d="M82.7612 134.2658
L82.5707 133.9801
" />
<path d="M82.5707 133.9801
L82.4755 133.7896
" />
<path d="M82.4755 133.7896
L82.3802 133.5039
" />
<path d="M82.3802 133.5039
L82.2850 133.0277
" />
<path d="M82.2850 133.0277
L82.2850 132.6468
" />
<path d="M82.2850 132.6468
L82.3802 132.1706
" />
<path d="M82.3802 132.1706
L82.4755 131.8849
" />
<path d="M82.4755 131.8849
L82.5707 131.6944
" />
<path d="M82.5707 131.6944
L82.7612 131.4087
" />
<path d="M82.7612 131.4087
L82.8564 131.3134
" />
<path d="M83.5231 131.7896
L83.6183 131.6944
" />
<path d="M83.6183 131.6944
L83.8088 131.5992
" />
<path d="M83.8088 131.5992
L84.2850 131.5992
" />
<path d="M84.2850 131.5992
L84.4755 131.6944
" />
<path d="M84.4755 131.6944
L84.5707 131.7896
" />
<path d="M84.5707 131.7896
L84.6660 131.9801
" />
<path d="M84.6660 131.9801
L84.6660 132.1706
" />
<path d="M84.6660 132.1706
L84.5707 132.4563
" />
<path d="M84.5707 132.4563
L83.4279 133.5992
" />
<path d="M83.4279 133.5992
L84.6660 133.5992
" />
<path d="M87.0469 133.5992
L87.0469 131.5992
" />
<path d="M87.9040 133.5992
L87.9040 132.5515
" />
<path d="M87.9040 132.5515
L87.8088 132.3611
" />
<path d="M87.8088 132.3611
L87.6183 132.2658
" />
<path d="M87.6183 132.2658
L87.3326 132.2658
" />
<path d="M87.3326 132.2658
L87.1421 132.3611
" />
<path d="M87.1421 132.3611
L87.0469 132.4563
" />
<path d="M89.1421 133.5992
L88.9517 133.5039
" />
<path d="M88.9517 133.5039
L88.8564 133.4087
" />
<path d="M88.8564 133.4087
L88.7612 133.2182
" />
<path d="M88.7612 133.2182
L88.7612 132.6468
" />
<path d="M88.7612 132.6468
L88.8564 132.4563
" />
<path d="M88.8564 132.4563
L88.9517 132.3611
" />
<path d="M88.9517 132.3611
L89.1421 132.2658
" />
<path d="M89.1421 132.2658
L89.4279 132.2658
" />
<path d="M89.4279 132.2658
L89.6183 132.3611
" />
<path d="M89.6183 132.3611
L89.7136 132.4563
" />
<path d="M89.7136 132.4563
L89.8088 132.6468
" />
<path d="M89.8088 132.6468
L89.8088 133.2182
" />
<path d="M89.8088 133.2182
L89.7136 133.4087
" />
<path d="M89.7136 133.4087
L89.6183 133.5039
" />
<path d="M89.6183 133.5039
L89.4279 133.5992
" />
<path d="M89.4279 133.5992
L89.1421 133.5992
" />
<path d="M90.9517 133.5992
L90.7612 133.5039
" />
<path d="M90.7612 133.5039
L90.6660 133.3134
" />
<path d="M90.6660 133.3134
L90.6660 131.5992
" />
<path d="M92.4755 133.5039
L92.2850 133.5992
" />
<path d="M92.2850 133.5992
L91.9040 133.5992
" />
<path d="M91.9040 133.5992
L91.7136 133.5039
" />
<path d="M91.7136 133.5039
L91.6183 133.3134
" />
<path d="M91.6183 133.3134
L91.6183 132.5515
" />
<path d="M91.6183 132.5515
L91.7136 132.3611
" />
<path d="M91.7136 132.3611
L91.9040 132.2658
" />
<path d="M91.9040 132.2658
L92.2850 132.2658
" />
<path d="M92.2850 132.2658
L92.4755 132.3611
" />
<path d="M92.4755 132.3611
L92.5707 132.5515
" />
<path d="M92.5707 132.5515
L92.5707 132.7420
" />
<path d="M92.5707 132.7420
L91.6183 132.9325
" />
<path d="M93.3326 133.5039
L93.5231 133.5992
" />
<path d="M93.5231 133.5992
L93.9040 133.5992
" />
<path d="M93.9040 133.5992
L94.0945 133.5039
" />
<path d="M94.0945 133.5039
L94.1898 133.3134
" />
<path d="M94.1898 133.3134
L94.1898 133.2182
" />
<path d="M94.1898 133.2182
L94.0945 133.0277
" />
<path d="M94.0945 133.0277
L93.9040 132.9325
" />
<path d="M93.9040 132.9325
L93.6183 132.9325
" />
<path d="M93.6183 132.9325
L93.4279 132.8373
" />
<path d="M93.4279 132.8373
L93.3326 132.6468
" />
<path d="M93.3326 132.6468
L93.3326 132.5515
" />
<path d="M93.3326 132.5515
L93.4279 132.3611
" />
<path d="M93.4279 132.3611
L93.6183 132.2658
" />
<path d="M93.6183 132.2658
L93.9040 132.2658
" />
<path d="M93.9040 132.2658
L94.0945 132.3611
" />
<path d="M94.8564 134.3611
L94.9517 134.2658
" />
<path d="M94.9517 134.2658
L95.1421 133.9801
" />
<path d="M95.1421 133.9801
L95.2374 133.7896
" />
<path d="M95.2374 133.7896
L95.3326 133.5039
" />
<path d="M95.3326 133.5039
L95.4279 133.0277
" />
<path d="M95.4279 133.0277
L95.4279 132.6468
" />
<path d="M95.4279 132.6468
L95.3326 132.1706
" />
<path d="M95.3326 132.1706
L95.2374 131.8849
" />
<path d="M95.2374 131.8849
L95.1421 131.6944
" />
<path d="M95.1421 131.6944
L94.9517 131.4087
" />
<path d="M94.9517 131.4087
L94.8564 131.3134
" />
</g><path style="fill:none; 
stroke:#000000; stroke-width:0.1736; stroke-opacity:1; 
stroke-linecap:round; stroke-linejoin:round;fill:none"
d="M 46.8516,135.9444
46.8516,134.7171
45.6243,134.7171
45.6243,135.9444
Z" /> 
</g>
<g style="fill:none; 
stroke:#000000; stroke-width:0.2000; stroke-opacity:1; 
stroke-linecap:round; stroke-linejoin:round;">
<text x="49.1058" y="136.3308"
textLength="46.8667" font-size="2.6667" lengthAdjust="spacingAndGlyphs"
text-anchor="start" opacity="0" stroke-opacity="0">1.200mm / 0.0472" (4 holes)</text>
<g class="stroked-text"><desc>1.200mm / 0.0472" (4 holes)</desc>
<path d="M50.7612 136.2456
L49.6183 136.2456
" />
<path d="M50.1898 136.2456
L50.1898 134.2456
" />
<path d="M50.1898 134.2456
L49.9993 134.5313
" />
<path d="M49.9993 134.5313
L49.8088 134.7218
" />
<path d="M49.8088 134.7218
L49.6183 134.8170
" />
<path d="M51.6183 136.0551
L51.7136 136.1504
" />
<path d="M51.7136 136.1504
L51.6183 136.2456
" />
<path d="M51.6183 136.2456
L51.5231 136.1504
" />
<path d="M51.5231 136.1504
L51.6183 136.0551
" />
<path d="M51.6183 136.0551
L51.6183 136.2456
" />
<path d="M52.4755 134.4361
L52.5707 134.3408
" />
<path d="M52.5707 134.3408
L52.7612 134.2456
" />
<path d="M52.7612 134.2456
L53.2374 134.2456
" />
<path d="M53.2374 134.2456
L53.4279 134.3408
" />
<path d="M53.4279 134.3408
L53.5231 134.4361
" />
<path d="M53.5231 134.4361
L53.6183 134.6265
" />
<path d="M53.6183 134.6265
L53.6183 134.8170
" />
<path d="M53.6183 134.8170
L53.5231 135.1027
" />
<path d="M53.5231 135.1027
L52.3802 136.2456
" />
<path d="M52.3802 136.2456
L53.6183 136.2456
" />
<path d="M54.8564 134.2456
L55.0469 134.2456
" />
<path d="M55.0469 134.2456
L55.2374 134.3408
" />
<path d="M55.2374 134.3408
L55.3326 134.4361
" />
<path d="M55.3326 134.4361
L55.4279 134.6265
" />
<path d="M55.4279 134.6265
L55.5231 135.0075
" />
<path d="M55.5231 135.0075
L55.5231 135.4837
" />
<path d="M55.5231 135.4837
L55.4279 135.8646
" />
<path d="M55.4279 135.8646
L55.3326 136.0551
" />
<path d="M55.3326 136.0551
L55.2374 136.1504
" />
<path d="M55.2374 136.1504
L55.0469 136.2456
" />
<path d="M55.0469 136.2456
L54.8564 136.2456
" />
<path d="M54.8564 136.2456
L54.6660 136.1504
" />
<path d="M54.6660 136.1504
L54.5707 136.0551
" />
<path d="M54.5707 136.0551
L54.4755 135.8646
" />
<path d="M54.4755 135.8646
L54.3802 135.4837
" />
<path d="M54.3802 135.4837
L54.3802 135.0075
" />
<path d="M54.3802 135.0075
L54.4755 134.6265
" />
<path d="M54.4755 134.6265
L54.5707 134.4361
" />
<path d="M54.5707 134.4361
L54.6660 134.3408
" />
<path d="M54.6660 134.3408
L54.8564 134.2456
" />
<path d="M56.7612 134.2456
L56.9517 134.2456
" />
<path d="M56.9517 134.2456
L57.1421 134.3408
" />
<path d="M57.1421 134.3408
L57.2374 134.4361
" />
<path d="M57.2374 134.4361
L57.3326 134.6265
" />
<path d="M57.3326 134.6265
L57.4279 135.0075
" />
<path d="M57.4279 135.0075
L57.4279 135.4837
" />
<path d="M57.4279 135.4837
L57.3326 135.8646
" />
<path d="M57.3326 135.8646
L57.2374 136.0551
" />
<path d="M57.2374 136.0551
L57.1421 136.1504
" />
<path d="M57.1421 136.1504
L56.9517 136.2456
" />
<path d="M56.9517 136.2456
L56.7612 136.2456
" />
<path d="M56.7612 136.2456
L56.5707 136.1504
" />
<path d="M56.5707 136.1504
L56.4755 136.0551
" />
<path d="M56.4755 136.0551
L56.3802 135.8646
" />
<path d="M56.3802 135.8646
L56.2850 135.4837
" />
<path d="M56.2850 135.4837
L56.2850 135.0075
" />
<path d="M56.2850 135.0075
L56.3802 134.6265
" />
<path d="M56.3802 134.6265
L56.4755 134.4361
" />
<path d="M56.4755 134.4361
L56.5707 134.3408
" />
<path d="M56.5707 134.3408
L56.7612 134.2456
" />
<path d="M58.2850 136.2456
L58.2850 134.9123
" />
<path d="M58.2850 135.1027
L58.3802 135.0075
" />
<path d="M58.3802 135.0075
L58.5707 134.9123
" />
<path d="M58.5707 134.9123
L58.8564 134.9123
" />
<path d="M58.8564 134.9123
L59.0469 135.0075
" />
<path d="M59.0469 135.0075
L59.1421 135.1980
" />
<path d="M59.1421 135.1980
L59.1421 136.2456
" />
<path d="M59.1421 135.1980
L59.2374 135.0075
" />
<path d="M59.2374 135.0075
L59.4279 134.9123
" />
<path d="M59.4279 134.9123
L59.7136 134.9123
" />
<path d="M59.7136 134.9123
L59.9040 135.0075
" />
<path d="M59.9040 135.0075
L59.9993 135.1980
" />
<path d="M59.9993 135.1980
L59.9993 136.2456
" />
<path d="M60.9517 136.2456
L60.9517 134.9123
" />
<path d="M60.9517 135.1027
L61.0469 135.0075
" />
<path d="M61.0469 135.0075
L61.2374 134.9123
" />
<path d="M61.2374 134.9123
L61.5231 134.9123
" />
<path d="M61.5231 134.9123
L61.7136 135.0075
" />
<path d="M61.7136 135.0075
L61.8088 135.1980
" />
<path d="M61.8088 135.1980
L61.8088 136.2456
" />
<path d="M61.8088 135.1980
L61.9040 135.0075
" />
<path d="M61.9040 135.0075
L62.0945 134.9123
" />
<path d="M62.0945 134.9123
L62.3802 134.9123
" />
<path d="M62.3802 134.9123
L62.5707 135.0075
" />
<path d="M62.5707 135.0075
L62.6660 135.1980
" />
<path d="M62.6660 135.1980
L62.6660 136.2456
" />
<path d="M66.5707 134.1504
L64.8564 136.7218
" />
<path d="M69.1421 134.2456
L69.3326 134.2456
" />
<path d="M69.3326 134.2456
L69.5231 134.3408
" />
<path d="M69.5231 134.3408
L69.6183 134.4361
" />
<path d="M69.6183 134.4361
L69.7136 134.6265
" />
<path d="M69.7136 134.6265
L69.8088 135.0075
" />
<path d="M69.8088 135.0075
L69.8088 135.4837
" />
<path d="M69.8088 135.4837
L69.7136 135.8646
" />
<path d="M69.7136 135.8646
L69.6183 136.0551
" />
<path d="M69.6183 136.0551
L69.5231 136.1504
" />
<path d="M69.5231 136.1504
L69.3326 136.2456
" />
<path d="M69.3326 136.2456
L69.1421 136.2456
" />
<path d="M69.1421 136.2456
L68.9517 136.1504
" />
<path d="M68.9517 136.1504
L68.8564 136.0551
" />
<path d="M68.8564 136.0551
L68.7612 135.8646
" />
<path d="M68.7612 135.8646
L68.6659 135.4837
" />
<path d="M68.6659 135.4837
L68.6659 135.0075
" />
<path d="M68.6659 135.0075
L68.7612 134.6265
" />
<path d="M68.7612 134.6265
L68.8564 134.4361
" />
<path d="M68.8564 134.4361
L68.9517 134.3408
" />
<path d="M68.9517 134.3408
L69.1421 134.2456
" />
<path d="M70.6659 136.0551
L70.7612 136.1504
" />
<path d="M70.7612 136.1504
L70.6659 136.2456
" />
<path d="M70.6659 136.2456
L70.5707 136.1504
" />
<path d="M70.5707 136.1504
L70.6659 136.0551
" />
<path d="M70.6659 136.0551
L70.6659 136.2456
" />
<path d="M71.9993 134.2456
L72.1898 134.2456
" />
<path d="M72.1898 134.2456
L72.3802 134.3408
" />
<path d="M72.3802 134.3408
L72.4755 134.4361
" />
<path d="M72.4755 134.4361
L72.5707 134.6265
" />
<path d="M72.5707 134.6265
L72.6660 135.0075
" />
<path d="M72.6660 135.0075
L72.6660 135.4837
" />
<path d="M72.6660 135.4837
L72.5707 135.8646
" />
<path d="M72.5707 135.8646
L72.4755 136.0551
" />
<path d="M72.4755 136.0551
L72.3802 136.1504
" />
<path d="M72.3802 136.1504
L72.1898 136.2456
" />
<path d="M72.1898 136.2456
L71.9993 136.2456
" />
<path d="M71.9993 136.2456
L71.8088 136.1504
" />
<path d="M71.8088 136.1504
L71.7136 136.0551
" />
<path d="M71.7136 136.0551
L71.6183 135.8646
" />
<path d="M71.6183 135.8646
L71.5231 135.4837
" />
<path d="M71.5231 135.4837
L71.5231 135.0075
" />
<path d="M71.5231 135.0075
L71.6183 134.6265
" />
<path d="M71.6183 134.6265
L71.7136 134.4361
" />
<path d="M71.7136 134.4361
L71.8088 134.3408
" />
<path d="M71.8088 134.3408
L71.9993 134.2456
" />
<path d="M74.3802 134.9123
L74.3802 136.2456
" />
<path d="M73.9040 134.1504
L73.4279 135.5789
" />
<path d="M73.4279 135.5789
L74.6660 135.5789
" />
<path d="M75.2374 134.2456
L76.5707 134.2456
" />
<path d="M76.5707 134.2456
L75.7136 136.2456
" />
<path d="M77.2374 134.4361
L77.3326 134.3408
" />
<path d="M77.3326 134.3408
L77.5231 134.2456
" />
<path d="M77.5231 134.2456
L77.9993 134.2456
" />
<path d="M77.9993 134.2456
L78.1898 134.3408
" />
<path d="M78.1898 134.3408
L78.2850 134.4361
" />
<path d="M78.2850 134.4361
L78.3802 134.6265
" />
<path d="M78.3802 134.6265
L78.3802 134.8170
" />
<path d="M78.3802 134.8170
L78.2850 135.1027
" />
<path d="M78.2850 135.1027
L77.1421 136.2456
" />
<path d="M77.1421 136.2456
L78.3802 136.2456
" />
<path d="M79.1421 134.2456
L79.1421 134.6265
" />
<path d="M79.9040 134.2456
L79.9040 134.6265
" />
<path d="M82.8564 137.0075
L82.7612 136.9123
" />
<path d="M82.7612 136.9123
L82.5707 136.6265
" />
<path d="M82.5707 136.6265
L82.4755 136.4361
" />
<path d="M82.4755 136.4361
L82.3802 136.1504
" />
<path d="M82.3802 136.1504
L82.2850 135.6742
" />
<path d="M82.2850 135.6742
L82.2850 135.2932
" />
<path d="M82.2850 135.2932
L82.3802 134.8170
" />
<path d="M82.3802 134.8170
L82.4755 134.5313
" />
<path d="M82.4755 134.5313
L82.5707 134.3408
" />
<path d="M82.5707 134.3408
L82.7612 134.0551
" />
<path d="M82.7612 134.0551
L82.8564 133.9599
" />
<path d="M84.4755 134.9123
L84.4755 136.2456
" />
<path d="M83.9993 134.1504
L83.5231 135.5789
" />
<path d="M83.5231 135.5789
L84.7612 135.5789
" />
<path d="M87.0469 136.2456
L87.0469 134.2456
" />
<path d="M87.9040 136.2456
L87.9040 135.1980
" />
<path d="M87.9040 135.1980
L87.8088 135.0075
" />
<path d="M87.8088 135.0075
L87.6183 134.9123
" />
<path d="M87.6183 134.9123
L87.3326 134.9123
" />
<path d="M87.3326 134.9123
L87.1421 135.0075
" />
<path d="M87.1421 135.0075
L87.0469 135.1027
" />
<path d="M89.1421 136.2456
L88.9517 136.1504
" />
<path d="M88.9517 136.1504
L88.8564 136.0551
" />
<path d="M88.8564 136.0551
L88.7612 135.8646
" />
<path d="M88.7612 135.8646
L88.7612 135.2932
" />
<path d="M88.7612 135.2932
L88.8564 135.1027
" />
<path d="M88.8564 135.1027
L88.9517 135.0075
" />
<path d="M88.9517 135.0075
L89.1421 134.9123
" />
<path d="M89.1421 134.9123
L89.4279 134.9123
" />
<path d="M89.4279 134.9123
L89.6183 135.0075
" />
<path d="M89.6183 135.0075
L89.7136 135.1027
" />
<path d="M89.7136 135.1027
L89.8088 135.2932
" />
<path d="M89.8088 135.2932
L89.8088 135.8646
" />
<path d="M89.8088 135.8646
L89.7136 136.0551
" />
<path d="M89.7136 136.0551
L89.6183 136.1504
" />
<path d="M89.6183 136.1504
L89.4279 136.2456
" />
<path d="M89.4279 136.2456
L89.1421 136.2456
" />
<path d="M90.9517 136.2456
L90.7612 136.1504
" />
<path d="M90.7612 136.1504
L90.6660 135.9599
" />
<path d="M90.6660 135.9599
L90.6660 134.2456
" />
<path d="M92.4755 136.1504
L92.2850 136.2456
" />
<path d="M92.2850 136.2456
L91.9040 136.2456
" />
<path d="M91.9040 136.2456
L91.7136 136.1504
" />
<path d="M91.7136 136.1504
L91.6183 135.9599
" />
<path d="M91.6183 135.9599
L91.6183 135.1980
" />
<path d="M91.6183 135.1980
L91.7136 135.0075
" />
<path d="M91.7136 135.0075
L91.9040 134.9123
" />
<path d="M91.9040 134.9123
L92.2850 134.9123
" />
<path d="M92.2850 134.9123
L92.4755 135.0075
" />
<path d="M92.4755 135.0075
L92.5707 135.1980
" />
<path d="M92.5707 135.1980
L92.5707 135.3885
" />
<path d="M92.5707 135.3885
L91.6183 135.5789
" />
<path d="M93.3326 136.1504
L93.5231 136.2456
" />
<path d="M93.5231 136.2456
L93.9040 136.2456
" />
<path d="M93.9040 136.2456
L94.0945 136.1504
" />
<path d="M94.0945 136.1504
L94.1898 135.9599
" />
<path d="M94.1898 135.9599
L94.1898 135.8646
" />
<path d="M94.1898 135.8646
L94.0945 135.6742
" />
<path d="M94.0945 135.6742
L93.9040 135.5789
" />
<path d="M93.9040 135.5789
L93.6183 135.5789
" />
<path d="M93.6183 135.5789
L93.4279 135.4837
" />
<path d="M93.4279 135.4837
L93.3326 135.2932
" />
<path d="M93.3326 135.2932
L93.3326 135.1980
" />
<path d="M93.3326 135.1980
L93.4279 135.0075
" />
<path d="M93.4279 135.0075
L93.6183 134.9123
" />
<path d="M93.6183 134.9123
L93.9040 134.9123
" />
<path d="M93.9040 134.9123
L94.0945 135.0075
" />
<path d="M94.8564 137.0075
L94.9517 136.9123
" />
<path d="M94.9517 136.9123
L95.1421 136.6265
" />
<path d="M95.1421 136.6265
L95.2374 136.4361
" />
<path d="M95.2374 136.4361
L95.3326 136.1504
" />
<path d="M95.3326 136.1504
L95.4279 135.6742
" />
<path d="M95.4279 135.6742
L95.4279 135.2932
" />
<path d="M95.4279 135.2932
L95.3326 134.8170
" />
<path d="M95.3326 134.8170
L95.2374 134.5313
" />
<path d="M95.2374 134.5313
L95.1421 134.3408
" />
<path d="M95.1421 134.3408
L94.9517 134.0551
" />
<path d="M94.9517 134.0551
L94.8564 133.9599
" />
</g><path style="fill:none; 
stroke:#000000; stroke-width:0.1880; stroke-opacity:1; 
stroke-linecap:round; stroke-linejoin:round;fill:none"
d="M 46.1656,139.2067
47.1058,138.2665
46.1656,137.3263
45.2254,138.2665
Z" /> 
</g>
<g style="fill:none; 
stroke:#000000; stroke-width:0.2000; stroke-opacity:1; 
stroke-linecap:round; stroke-linejoin:round;">
<text x="49.1058" y="139.2665"
textLength="48.7714" font-size="2.6667" lengthAdjust="spacingAndGlyphs"
text-anchor="start" opacity="0" stroke-opacity="0">1.300mm / 0.0512" (12 holes)</text>
<g class="stroked-text"><desc>1.300mm / 0.0512" (12 holes)</desc>
<path d="M50.7612 139.1813
L49.6183 139.1813
" />
<path d="M50.1898 139.1813
L50.1898 137.1813
" />
<path d="M50.1898 137.1813
L49.9993 137.4670
" />
<path d="M49.9993 137.4670
L49.8088 137.6575
" />
<path d="M49.8088 137.6575
L49.6183 137.7528
" />
<path d="M51.6183 138.9908
L51.7136 139.0861
" />
<path d="M51.7136 139.0861
L51.6183 139.1813
" />
<path d="M51.6183 139.1813
L51.5231 139.0861
" />
<path d="M51.5231 139.0861
L51.6183 138.9908
" />
<path d="M51.6183 138.9908
L51.6183 139.1813
" />
<path d="M52.3802 137.1813
L53.6183 137.1813
" />
<path d="M53.6183 137.1813
L52.9517 137.9432
" />
<path d="M52.9517 137.9432
L53.2374 137.9432
" />
<path d="M53.2374 137.9432
L53.4279 138.0385
" />
<path d="M53.4279 138.0385
L53.5231 138.1337
" />
<path d="M53.5231 138.1337
L53.6183 138.3242
" />
<path d="M53.6183 138.3242
L53.6183 138.8004
" />
<path d="M53.6183 138.8004
L53.5231 138.9908
" />
<path d="M53.5231 138.9908
L53.4279 139.0861
" />
<path d="M53.4279 139.0861
L53.2374 139.1813
" />
<path d="M53.2374 139.1813
L52.6660 139.1813
" />
<path d="M52.6660 139.1813
L52.4755 139.0861
" />
<path d="M52.4755 139.0861
L52.3802 138.9908
" />
<path d="M54.8564 137.1813
L55.0469 137.1813
" />
<path d="M55.0469 137.1813
L55.2374 137.2766
" />
<path d="M55.2374 137.2766
L55.3326 137.3718
" />
<path d="M55.3326 137.3718
L55.4279 137.5623
" />
<path d="M55.4279 137.5623
L55.5231 137.9432
" />
<path d="M55.5231 137.9432
L55.5231 138.4194
" />
<path d="M55.5231 138.4194
L55.4279 138.8004
" />
<path d="M55.4279 138.8004
L55.3326 138.9908
" />
<path d="M55.3326 138.9908
L55.2374 139.0861
" />
<path d="M55.2374 139.0861
L55.0469 139.1813
" />
<path d="M55.0469 139.1813
L54.8564 139.1813
" />
<path d="M54.8564 139.1813
L54.6660 139.0861
" />
<path d="M54.6660 139.0861
L54.5707 138.9908
" />
<path d="M54.5707 138.9908
L54.4755 138.8004
" />
<path d="M54.4755 138.8004
L54.3802 138.4194
" />
<path d="M54.3802 138.4194
L54.3802 137.9432
" />
<path d="M54.3802 137.9432
L54.4755 137.5623
" />
<path d="M54.4755 137.5623
L54.5707 137.3718
" />
<path d="M54.5707 137.3718
L54.6660 137.2766
" />
<path d="M54.6660 137.2766
L54.8564 137.1813
" />
<path d="M56.7612 137.1813
L56.9517 137.1813
" />
<path d="M56.9517 137.1813
L57.1421 137.2766
" />
<path d="M57.1421 137.2766
L57.2374 137.3718
" />
<path d="M57.2374 137.3718
L57.3326 137.5623
" />
<path d="M57.3326 137.5623
L57.4279 137.9432
" />
<path d="M57.4279 137.9432
L57.4279 138.4194
" />
<path d="M57.4279 138.4194
L57.3326 138.8004
" />
<path d="M57.3326 138.8004
L57.2374 138.9908
" />
<path d="M57.2374 138.9908
L57.1421 139.0861
" />
<path d="M57.1421 139.0861
L56.9517 139.1813
" />
<path d="M56.9517 139.1813
L56.7612 139.1813
" />
<path d="M56.7612 139.1813
L56.5707 139.0861
" />
<path d="M56.5707 139.0861
L56.4755 138.9908
" />
<path d="M56.4755 138.9908
L56.3802 138.8004
" />
<path d="M56.3802 138.8004
L56.2850 138.4194
" />
<path d="M56.2850 138.4194
L56.2850 137.9432
" />
<path d="M56.2850 137.9432
L56.3802 137.5623
" />
<path d="M56.3802 137.5623
L56.4755 137.3718
" />
<path d="M56.4755 137.3718
L56.5707 137.2766
" />
<path d="M56.5707 137.2766
L56.7612 137.1813
" />
<path d="M58.2850 139.1813
L58.2850 137.8480
" />
<path d="M58.2850 138.0385
L58.3802 137.9432
" />
<path d="M58.3802 137.9432
L58.5707 137.8480
" />
<path d="M58.5707 137.8480
L58.8564 137.8480
" />
<path d="M58.8564 137.8480
L59.0469 137.9432
" />
<path d="M59.0469 137.9432
L59.1421 138.1337
" />
<path d="M59.1421 138.1337
L59.1421 139.1813
" />
<path d="M59.1421 138.1337
L59.2374 137.9432
" />
<path d="M59.2374 137.9432
L59.4279 137.8480
" />
<path d="M59.4279 137.8480
L59.7136 137.8480
" />
<path d="M59.7136 137.8480
L59.9040 137.9432
" />
<path d="M59.9040 137.9432
L59.9993 138.1337
" />
<path d="M59.9993 138.1337
L59.9993 139.1813
" />
<path d="M60.9517 139.1813
L60.9517 137.8480
" />
<path d="M60.9517 138.0385
L61.0469 137.9432
" />
<path d="M61.0469 137.9432
L61.2374 137.8480
" />
<path d="M61.2374 137.8480
L61.5231 137.8480
" />
<path d="M61.5231 137.8480
L61.7136 137.9432
" />
<path d="M61.7136 137.9432
L61.8088 138.1337
" />
<path d="M61.8088 138.1337
L61.8088 139.1813
" />
<path d="M61.8088 138.1337
L61.9040 137.9432
" />
<path d="M61.9040 137.9432
L62.0945 137.8480
" />
<path d="M62.0945 137.8480
L62.3802 137.8480
" />
<path d="M62.3802 137.8480
L62.5707 137.9432
" />
<path d="M62.5707 137.9432
L62.6660 138.1337
" />
<path d="M62.6660 138.1337
L62.6660 139.1813
" />
<path d="M66.5707 137.0861
L64.8564 139.6575
" />
<path d="M69.1421 137.1813
L69.3326 137.1813
" />
<path d="M69.3326 137.1813
L69.5231 137.2766
" />
<path d="M69.5231 137.2766
L69.6183 137.3718
" />
<path d="M69.6183 137.3718
L69.7136 137.5623
" />
<path d="M69.7136 137.5623
L69.8088 137.9432
" />
<path d="M69.8088 137.9432
L69.8088 138.4194
" />
<path d="M69.8088 138.4194
L69.7136 138.8004
" />
<path d="M69.7136 138.8004
L69.6183 138.9908
" />
<path d="M69.6183 138.9908
L69.5231 139.0861
" />
<path d="M69.5231 139.0861
L69.3326 139.1813
" />
<path d="M69.3326 139.1813
L69.1421 139.1813
" />
<path d="M69.1421 139.1813
L68.9517 139.0861
" />
<path d="M68.9517 139.0861
L68.8564 138.9908
" />
<path d="M68.8564 138.9908
L68.7612 138.8004
" />
<path d="M68.7612 138.8004
L68.6659 138.4194
" />
<path d="M68.6659 138.4194
L68.6659 137.9432
" />
<path d="M68.6659 137.9432
L68.7612 137.5623
" />
<path d="M68.7612 137.5623
L68.8564 137.3718
" />
<path d="M68.8564 137.3718
L68.9517 137.2766
" />
<path d="M68.9517 137.2766
L69.1421 137.1813
" />
<path d="M70.6659 138.9908
L70.7612 139.0861
" />
<path d="M70.7612 139.0861
L70.6659 139.1813
" />
<path d="M70.6659 139.1813
L70.5707 139.0861
" />
<path d="M70.5707 139.0861
L70.6659 138.9908
" />
<path d="M70.6659 138.9908
L70.6659 139.1813
" />
<path d="M71.9993 137.1813
L72.1898 137.1813
" />
<path d="M72.1898 137.1813
L72.3802 137.2766
" />
<path d="M72.3802 137.2766
L72.4755 137.3718
" />
<path d="M72.4755 137.3718
L72.5707 137.5623
" />
<path d="M72.5707 137.5623
L72.6660 137.9432
" />
<path d="M72.6660 137.9432
L72.6660 138.4194
" />
<path d="M72.6660 138.4194
L72.5707 138.8004
" />
<path d="M72.5707 138.8004
L72.4755 138.9908
" />
<path d="M72.4755 138.9908
L72.3802 139.0861
" />
<path d="M72.3802 139.0861
L72.1898 139.1813
" />
<path d="M72.1898 139.1813
L71.9993 139.1813
" />
<path d="M71.9993 139.1813
L71.8088 139.0861
" />
<path d="M71.8088 139.0861
L71.7136 138.9908
" />
<path d="M71.7136 138.9908
L71.6183 138.8004
" />
<path d="M71.6183 138.8004
L71.5231 138.4194
" />
<path d="M71.5231 138.4194
L71.5231 137.9432
" />
<path d="M71.5231 137.9432
L71.6183 137.5623
" />
<path d="M71.6183 137.5623
L71.7136 137.3718
" />
<path d="M71.7136 137.3718
L71.8088 137.2766
" />
<path d="M71.8088 137.2766
L71.9993 137.1813
" />
<path d="M74.4755 137.1813
L73.5231 137.1813
" />
<path d="M73.5231 137.1813
L73.4279 138.1337
" />
<path d="M73.4279 138.1337
L73.5231 138.0385
" />
<path d="M73.5231 138.0385
L73.7136 137.9432
" />
<path d="M73.7136 137.9432
L74.1898 137.9432
" />
<path d="M74.1898 137.9432
L74.3802 138.0385
" />
<path d="M74.3802 138.0385
L74.4755 138.1337
" />
<path d="M74.4755 138.1337
L74.5707 138.3242
" />
<path d="M74.5707 138.3242
L74.5707 138.8004
" />
<path d="M74.5707 138.8004
L74.4755 138.9908
" />
<path d="M74.4755 138.9908
L74.3802 139.0861
" />
<path d="M74.3802 139.0861
L74.1898 139.1813
" />
<path d="M74.1898 139.1813
L73.7136 139.1813
" />
<path d="M73.7136 139.1813
L73.5231 139.0861
" />
<path d="M73.5231 139.0861
L73.4279 138.9908
" />
<path d="M76.4755 139.1813
L75.3326 139.1813
" />
<path d="M75.9040 139.1813
L75.9040 137.1813
" />
<path d="M75.9040 137.1813
L75.7136 137.4670
" />
<path d="M75.7136 137.4670
L75.5231 137.6575
" />
<path d="M75.5231 137.6575
L75.3326 137.7528
" />
<path d="M77.2374 137.3718
L77.3326 137.2766
" />
<path d="M77.3326 137.2766
L77.5231 137.1813
" />
<path d="M77.5231 137.1813
L77.9993 137.1813
" />
<path d="M77.9993 137.1813
L78.1898 137.2766
" />
<path d="M78.1898 137.2766
L78.2850 137.3718
" />
<path d="M78.2850 137.3718
L78.3802 137.5623
" />
<path d="M78.3802 137.5623
L78.3802 137.7528
" />
<path d="M78.3802 137.7528
L78.2850 138.0385
" />
<path d="M78.2850 138.0385
L77.1421 139.1813
" />
<path d="M77.1421 139.1813
L78.3802 139.1813
" />
<path d="M79.1421 137.1813
L79.1421 137.5623
" />
<path d="M79.9040 137.1813
L79.9040 137.5623
" />
<path d="M82.8564 139.9432
L82.7612 139.8480
" />
<path d="M82.7612 139.8480
L82.5707 139.5623
" />
<path d="M82.5707 139.5623
L82.4755 139.3718
" />
<path d="M82.4755 139.3718
L82.3802 139.0861
" />
<path d="M82.3802 139.0861
L82.2850 138.6099
" />
<path d="M82.2850 138.6099
L82.2850 138.2289
" />
<path d="M82.2850 138.2289
L82.3802 137.7528
" />
<path d="M82.3802 137.7528
L82.4755 137.4670
" />
<path d="M82.4755 137.4670
L82.5707 137.2766
" />
<path d="M82.5707 137.2766
L82.7612 136.9908
" />
<path d="M82.7612 136.9908
L82.8564 136.8956
" />
<path d="M84.6660 139.1813
L83.5231 139.1813
" />
<path d="M84.0945 139.1813
L84.0945 137.1813
" />
<path d="M84.0945 137.1813
L83.9040 137.4670
" />
<path d="M83.9040 137.4670
L83.7136 137.6575
" />
<path d="M83.7136 137.6575
L83.5231 137.7528
" />
<path d="M85.4279 137.3718
L85.5231 137.2766
" />
<path d="M85.5231 137.2766
L85.7136 137.1813
" />
<path d="M85.7136 137.1813
L86.1898 137.1813
" />
<path d="M86.1898 137.1813
L86.3802 137.2766
" />
<path d="M86.3802 137.2766
L86.4755 137.3718
" />
<path d="M86.4755 137.3718
L86.5707 137.5623
" />
<path d="M86.5707 137.5623
L86.5707 137.7528
" />
<path d="M86.5707 137.7528
L86.4755 138.0385
" />
<path d="M86.4755 138.0385
L85.3326 139.1813
" />
<path d="M85.3326 139.1813
L86.5707 139.1813
" />
<path d="M88.9517 139.1813
L88.9517 137.1813
" />
<path d="M89.8088 139.1813
L89.8088 138.1337
" />
<path d="M89.8088 138.1337
L89.7136 137.9432
" />
<path d="M89.7136 137.9432
L89.5231 137.8480
" />
<path d="M89.5231 137.8480
L89.2374 137.8480
" />
<path d="M89.2374 137.8480
L89.0469 137.9432
" />
<path d="M89.0469 137.9432
L88.9517 138.0385
" />
<path d="M91.0469 139.1813
L90.8564 139.0861
" />
<path d="M90.8564 139.0861
L90.7612 138.9908
" />
<path d="M90.7612 138.9908
L90.6660 138.8004
" />
<path d="M90.6660 138.8004
L90.6660 138.2289
" />
<path d="M90.6660 138.2289
L90.7612 138.0385
" />
<path d="M90.7612 138.0385
L90.8564 137.9432
" />
<path d="M90.8564 137.9432
L91.0469 137.8480
" />
<path d="M91.0469 137.8480
L91.3326 137.8480
" />
<path d="M91.3326 137.8480
L91.5231 137.9432
" />
<path d="M91.5231 137.9432
L91.6183 138.0385
" />
<path d="M91.6183 138.0385
L91.7136 138.2289
" />
<path d="M91.7136 138.2289
L91.7136 138.8004
" />
<path d="M91.7136 138.8004
L91.6183 138.9908
" />
<path d="M91.6183 138.9908
L91.5231 139.0861
" />
<path d="M91.5231 139.0861
L91.3326 139.1813
" />
<path d="M91.3326 139.1813
L91.0469 139.1813
" />
<path d="M92.8564 139.1813
L92.6660 139.0861
" />
<path d="M92.6660 139.0861
L92.5707 138.8956
" />
<path d="M92.5707 138.8956
L92.5707 137.1813
" />
<path d="M94.3802 139.0861
L94.1898 139.1813
" />
<path d="M94.1898 139.1813
L93.8088 139.1813
" />
<path d="M93.8088 139.1813
L93.6183 139.0861
" />
<path d="M93.6183 139.0861
L93.5231 138.8956
" />
<path d="M93.5231 138.8956
L93.5231 138.1337
" />
<path d="M93.5231 138.1337
L93.6183 137.9432
" />
<path d="M93.6183 137.9432
L93.8088 137.8480
" />
<path d="M93.8088 137.8480
L94.1898 137.8480
" />
<path d="M94.1898 137.8480
L94.3802 137.9432
" />
<path d="M94.3802 137.9432
L94.4755 138.1337
" />
<path d="M94.4755 138.1337
L94.4755 138.3242
" />
<path d="M94.4755 138.3242
L93.5231 138.5147
" />
<path d="M95.2374 139.0861
L95.4279 139.1813
" />
<path d="M95.4279 139.1813
L95.8088 139.1813
" />
<path d="M95.8088 139.1813
L95.9993 139.0861
" />
<path d="M95.9993 139.0861
L96.0945 138.8956
" />
<path d="M96.0945 138.8956
L96.0945 138.8004
" />
<path d="M96.0945 138.8004
L95.9993 138.6099
" />
<path d="M95.9993 138.6099
L95.8088 138.5147
" />
<path d="M95.8088 138.5147
L95.5231 138.5147
" />
<path d="M95.5231 138.5147
L95.3326 138.4194
" />
<path d="M95.3326 138.4194
L95.2374 138.2289
" />
<path d="M95.2374 138.2289
L95.2374 138.1337
" />
<path d="M95.2374 138.1337
L95.3326 137.9432
" />
<path d="M95.3326 137.9432
L95.5231 137.8480
" />
<path d="M95.5231 137.8480
L95.8088 137.8480
" />
<path d="M95.8088 137.8480
L95.9993 137.9432
" />
<path d="M96.7612 139.9432
L96.8564 139.8480
" />
<path d="M96.8564 139.8480
L97.0469 139.5623
" />
<path d="M97.0469 139.5623
L97.1421 139.3718
" />
<path d="M97.1421 139.3718
L97.2374 139.0861
" />
<path d="M97.2374 139.0861
L97.3326 138.6099
" />
<path d="M97.3326 138.6099
L97.3326 138.2289
" />
<path d="M97.3326 138.2289
L97.2374 137.7528
" />
<path d="M97.2374 137.7528
L97.1421 137.4670
" />
<path d="M97.1421 137.4670
L97.0469 137.2766
" />
<path d="M97.0469 137.2766
L96.8564 136.9908
" />
<path d="M96.8564 136.9908
L96.7612 136.8956
" />
</g></g> 
</svg>
