<?xml version="1.0" standalone="no"?>
 <!DOCTYPE svg PUBLIC "-//W3C//DTD SVG 1.1//EN" 
 "http://www.w3.org/Graphics/SVG/1.1/DTD/svg11.dtd"> 
<svg
  xmlns:svg="http://www.w3.org/2000/svg"
  xmlns="http://www.w3.org/2000/svg"
  xmlns:xlink="http://www.w3.org/1999/xlink"
  xmlns:inkscape="http://www.inkscape.org/namespaces/inkscape"
  version="1.1"
  width="297.0022mm" height="210.0072mm" viewBox="0.0000 0.0000 297.0022 210.0072">
<title>SVG Image created as pcb-psu-led-NPTH-drl_map.svg date 2026-07-16T20:52:49 </title>
  <desc>Image generated by PCBNEW </desc>
<g style="fill:#000000; fill-opacity:1.0000;stroke:#000000; stroke-opacity:1.0000;
stroke-linecap:round; stroke-linejoin:round;"
 transform="translate(0 0) scale(1 1)">
</g>
<g style="fill:none; 
stroke:#000000; stroke-width:0.2893; stroke-opacity:1; 
stroke-linecap:round; stroke-linejoin:round;">
<path d="M50.1433 5.1446
L246.8589 5.1446
" />
<path d="M249.7518 8.0375 A2.8929 2.8929 0.0 0 0 246.8589 5.1446" />
<path d="M249.7518 8.0375
L249.7518 117.9668
" />
<path d="M246.8589 120.8597 A2.8929 2.8929 0.0 0 0 249.7518 117.9668" />
<path d="M246.8589 120.8597
L50.1433 120.8597
" />
<path d="M47.2504 117.9668 A2.8929 2.8929 0.0 0 0 50.1433 120.8597" />
<path d="M47.2504 117.9668
L47.2504 8.0375
" />
<path d="M50.1433 5.1446 A2.8929 2.8929 0.0 0 0 47.2504 8.0375" />
</g>
<g style="fill:none; 
stroke:#000000; stroke-width:0.3905; stroke-opacity:1; 
stroke-linecap:round; stroke-linejoin:round;">
<path d="M213.4462 35.0136
L217.3515 38.9190
" />
<path d="M217.3515 35.0136
L213.4462 38.9190
" />
</g>
<g style="fill:none; 
stroke:#000000; stroke-width:0.4629; stroke-opacity:1; 
stroke-linecap:round; stroke-linejoin:round;">
<circle cx="58.0987" cy="15.9929" r="2.3143" /> 
<circle cx="58.0987" cy="110.0114" r="2.3143" /> 
<circle cx="238.9035" cy="15.9929" r="2.3143" /> 
<circle cx="238.9035" cy="110.0114" r="2.3143" /> 
</g>
<g style="fill:none; 
stroke:#000000; stroke-width:0.6220; stroke-opacity:1; 
stroke-linecap:round; stroke-linejoin:round;">
<path d="M155.7333 59.8923
L155.7333 66.1120
" />
<path d="M152.6234 63.0022
L158.8431 63.0022
" />
</g>
<g style="fill:none; 
stroke:#000000; stroke-width:0.2000; stroke-opacity:1; 
stroke-linecap:round; stroke-linejoin:round;">
<text x="49.1058" y="124.2043"
textLength="14.8667" font-size="2.6667" lengthAdjust="spacingAndGlyphs"
text-anchor="start" opacity="0" stroke-opacity="0">Drill Map:</text>
<g class="stroked-text"><desc>Drill Map:</desc>
<path d="M49.7136 124.1192
L49.7136 122.1192
" />
<path d="M49.7136 122.1192
L50.1898 122.1192
" />
<path d="M50.1898 122.1192
L50.4755 122.2144
" />
<path d="M50.4755 122.2144
L50.6660 122.4049
" />
<path d="M50.6660 122.4049
L50.7612 122.5953
" />
<path d="M50.7612 122.5953
L50.8564 122.9763
" />
<path d="M50.8564 122.9763
L50.8564 123.2620
" />
<path d="M50.8564 123.2620
L50.7612 123.6430
" />
<path d="M50.7612 123.6430
L50.6660 123.8334
" />
<path d="M50.6660 123.8334
L50.4755 124.0239
" />
<path d="M50.4755 124.0239
L50.1898 124.1192
" />
<path d="M50.1898 124.1192
L49.7136 124.1192
" />
<path d="M51.7136 124.1192
L51.7136 122.7858
" />
<path d="M51.7136 123.1668
L51.8088 122.9763
" />
<path d="M51.8088 122.9763
L51.9040 122.8811
" />
<path d="M51.9040 122.8811
L52.0945 122.7858
" />
<path d="M52.0945 122.7858
L52.2850 122.7858
" />
<path d="M52.9517 124.1192
L52.9517 122.7858
" />
<path d="M52.9517 122.1192
L52.8564 122.2144
" />
<path d="M52.8564 122.2144
L52.9517 122.3096
" />
<path d="M52.9517 122.3096
L53.0469 122.2144
" />
<path d="M53.0469 122.2144
L52.9517 122.1192
" />
<path d="M52.9517 122.1192
L52.9517 122.3096
" />
<path d="M54.1898 124.1192
L53.9993 124.0239
" />
<path d="M53.9993 124.0239
L53.9040 123.8334
" />
<path d="M53.9040 123.8334
L53.9040 122.1192
" />
<path d="M55.2374 124.1192
L55.0469 124.0239
" />
<path d="M55.0469 124.0239
L54.9517 123.8334
" />
<path d="M54.9517 123.8334
L54.9517 122.1192
" />
<path d="M57.5231 124.1192
L57.5231 122.1192
" />
<path d="M57.5231 122.1192
L58.1898 123.5477
" />
<path d="M58.1898 123.5477
L58.8564 122.1192
" />
<path d="M58.8564 122.1192
L58.8564 124.1192
" />
<path d="M60.6660 124.1192
L60.6660 123.0715
" />
<path d="M60.6660 123.0715
L60.5707 122.8811
" />
<path d="M60.5707 122.8811
L60.3802 122.7858
" />
<path d="M60.3802 122.7858
L59.9993 122.7858
" />
<path d="M59.9993 122.7858
L59.8088 122.8811
" />
<path d="M60.6660 124.0239
L60.4755 124.1192
" />
<path d="M60.4755 124.1192
L59.9993 124.1192
" />
<path d="M59.9993 124.1192
L59.8088 124.0239
" />
<path d="M59.8088 124.0239
L59.7136 123.8334
" />
<path d="M59.7136 123.8334
L59.7136 123.6430
" />
<path d="M59.7136 123.6430
L59.8088 123.4525
" />
<path d="M59.8088 123.4525
L59.9993 123.3573
" />
<path d="M59.9993 123.3573
L60.4755 123.3573
" />
<path d="M60.4755 123.3573
L60.6660 123.2620
" />
<path d="M61.6183 122.7858
L61.6183 124.7858
" />
<path d="M61.6183 122.8811
L61.8088 122.7858
" />
<path d="M61.8088 122.7858
L62.1898 122.7858
" />
<path d="M62.1898 122.7858
L62.3802 122.8811
" />
<path d="M62.3802 122.8811
L62.4755 122.9763
" />
<path d="M62.4755 122.9763
L62.5707 123.1668
" />
<path d="M62.5707 123.1668
L62.5707 123.7382
" />
<path d="M62.5707 123.7382
L62.4755 123.9287
" />
<path d="M62.4755 123.9287
L62.3802 124.0239
" />
<path d="M62.3802 124.0239
L62.1898 124.1192
" />
<path d="M62.1898 124.1192
L61.8088 124.1192
" />
<path d="M61.8088 124.1192
L61.6183 124.0239
" />
<path d="M63.4279 123.9287
L63.5231 124.0239
" />
<path d="M63.5231 124.0239
L63.4279 124.1192
" />
<path d="M63.4279 124.1192
L63.3326 124.0239
" />
<path d="M63.3326 124.0239
L63.4279 123.9287
" />
<path d="M63.4279 123.9287
L63.4279 124.1192
" />
<path d="M63.4279 122.8811
L63.5231 122.9763
" />
<path d="M63.5231 122.9763
L63.4279 123.0715
" />
<path d="M63.4279 123.0715
L63.3326 122.9763
" />
<path d="M63.3326 122.9763
L63.4279 122.8811
" />
<path d="M63.4279 122.8811
L63.4279 123.0715
" />
</g></g>
<g style="fill:none; 
stroke:#000000; stroke-width:0.2000; stroke-opacity:1; 
stroke-linecap:round; stroke-linejoin:round;">
<path d="M45.1058 126.4043
L47.1058 128.4043
" />
<path d="M47.1058 126.4043
L45.1058 128.4043
" />
</g>
<g style="fill:none; 
stroke:#000000; stroke-width:0.2000; stroke-opacity:1; 
stroke-linecap:round; stroke-linejoin:round;">
<text x="49.1058" y="128.4043"
textLength="65.0571" font-size="2.6667" lengthAdjust="spacingAndGlyphs"
text-anchor="start" opacity="0" stroke-opacity="0">2.700mm / 0.1063" (1 hole) (not plated)</text>
<g class="stroked-text"><desc>2.700mm / 0.1063" (1 hole) (not plated)</desc>
<path d="M49.6183 126.5096
L49.7136 126.4144
" />
<path d="M49.7136 126.4144
L49.9040 126.3192
" />
<path d="M49.9040 126.3192
L50.3802 126.3192
" />
<path d="M50.3802 126.3192
L50.5707 126.4144
" />
<path d="M50.5707 126.4144
L50.6660 126.5096
" />
<path d="M50.6660 126.5096
L50.7612 126.7001
" />
<path d="M50.7612 126.7001
L50.7612 126.8906
" />
<path d="M50.7612 126.8906
L50.6660 127.1763
" />
<path d="M50.6660 127.1763
L49.5231 128.3192
" />
<path d="M49.5231 128.3192
L50.7612 128.3192
" />
<path d="M51.6183 128.1287
L51.7136 128.2239
" />
<path d="M51.7136 128.2239
L51.6183 128.3192
" />
<path d="M51.6183 128.3192
L51.5231 128.2239
" />
<path d="M51.5231 128.2239
L51.6183 128.1287
" />
<path d="M51.6183 128.1287
L51.6183 128.3192
" />
<path d="M52.3802 126.3192
L53.7136 126.3192
" />
<path d="M53.7136 126.3192
L52.8564 128.3192
" />
<path d="M54.8564 126.3192
L55.0469 126.3192
" />
<path d="M55.0469 126.3192
L55.2374 126.4144
" />
<path d="M55.2374 126.4144
L55.3326 126.5096
" />
<path d="M55.3326 126.5096
L55.4279 126.7001
" />
<path d="M55.4279 126.7001
L55.5231 127.0811
" />
<path d="M55.5231 127.0811
L55.5231 127.5573
" />
<path d="M55.5231 127.5573
L55.4279 127.9382
" />
<path d="M55.4279 127.9382
L55.3326 128.1287
" />
<path d="M55.3326 128.1287
L55.2374 128.2239
" />
<path d="M55.2374 128.2239
L55.0469 128.3192
" />
<path d="M55.0469 128.3192
L54.8564 128.3192
" />
<path d="M54.8564 128.3192
L54.6660 128.2239
" />
<path d="M54.6660 128.2239
L54.5707 128.1287
" />
<path d="M54.5707 128.1287
L54.4755 127.9382
" />
<path d="M54.4755 127.9382
L54.3802 127.5573
" />
<path d="M54.3802 127.5573
L54.3802 127.0811
" />
<path d="M54.3802 127.0811
L54.4755 126.7001
" />
<path d="M54.4755 126.7001
L54.5707 126.5096
" />
<path d="M54.5707 126.5096
L54.6660 126.4144
" />
<path d="M54.6660 126.4144
L54.8564 126.3192
" />
<path d="M56.7612 126.3192
L56.9517 126.3192
" />
<path d="M56.9517 126.3192
L57.1421 126.4144
" />
<path d="M57.1421 126.4144
L57.2374 126.5096
" />
<path d="M57.2374 126.5096
L57.3326 126.7001
" />
<path d="M57.3326 126.7001
L57.4279 127.0811
" />
<path d="M57.4279 127.0811
L57.4279 127.5573
" />
<path d="M57.4279 127.5573
L57.3326 127.9382
" />
<path d="M57.3326 127.9382
L57.2374 128.1287
" />
<path d="M57.2374 128.1287
L57.1421 128.2239
" />
<path d="M57.1421 128.2239
L56.9517 128.3192
" />
<path d="M56.9517 128.3192
L56.7612 128.3192
" />
<path d="M56.7612 128.3192
L56.5707 128.2239
" />
<path d="M56.5707 128.2239
L56.4755 128.1287
" />
<path d="M56.4755 128.1287
L56.3802 127.9382
" />
<path d="M56.3802 127.9382
L56.2850 127.5573
" />
<path d="M56.2850 127.5573
L56.2850 127.0811
" />
<path d="M56.2850 127.0811
L56.3802 126.7001
" />
<path d="M56.3802 126.7001
L56.4755 126.5096
" />
<path d="M56.4755 126.5096
L56.5707 126.4144
" />
<path d="M56.5707 126.4144
L56.7612 126.3192
" />
<path d="M58.2850 128.3192
L58.2850 126.9858
" />
<path d="M58.2850 127.1763
L58.3802 127.0811
" />
<path d="M58.3802 127.0811
L58.5707 126.9858
" />
<path d="M58.5707 126.9858
L58.8564 126.9858
" />
<path d="M58.8564 126.9858
L59.0469 127.0811
" />
<path d="M59.0469 127.0811
L59.1421 127.2715
" />
<path d="M59.1421 127.2715
L59.1421 128.3192
" />
<path d="M59.1421 127.2715
L59.2374 127.0811
" />
<path d="M59.2374 127.0811
L59.4279 126.9858
" />
<path d="M59.4279 126.9858
L59.7136 126.9858
" />
<path d="M59.7136 126.9858
L59.9040 127.0811
" />
<path d="M59.9040 127.0811
L59.9993 127.2715
" />
<path d="M59.9993 127.2715
L59.9993 128.3192
" />
<path d="M60.9517 128.3192
L60.9517 126.9858
" />
<path d="M60.9517 127.1763
L61.0469 127.0811
" />
<path d="M61.0469 127.0811
L61.2374 126.9858
" />
<path d="M61.2374 126.9858
L61.5231 126.9858
" />
<path d="M61.5231 126.9858
L61.7136 127.0811
" />
<path d="M61.7136 127.0811
L61.8088 127.2715
" />
<path d="M61.8088 127.2715
L61.8088 128.3192
" />
<path d="M61.8088 127.2715
L61.9040 127.0811
" />
<path d="M61.9040 127.0811
L62.0945 126.9858
" />
<path d="M62.0945 126.9858
L62.3802 126.9858
" />
<path d="M62.3802 126.9858
L62.5707 127.0811
" />
<path d="M62.5707 127.0811
L62.6660 127.2715
" />
<path d="M62.6660 127.2715
L62.6660 128.3192
" />
<path d="M66.5707 126.2239
L64.8564 128.7953
" />
<path d="M69.1421 126.3192
L69.3326 126.3192
" />
<path d="M69.3326 126.3192
L69.5231 126.4144
" />
<path d="M69.5231 126.4144
L69.6183 126.5096
" />
<path d="M69.6183 126.5096
L69.7136 126.7001
" />
<path d="M69.7136 126.7001
L69.8088 127.0811
" />
<path d="M69.8088 127.0811
L69.8088 127.5573
" />
<path d="M69.8088 127.5573
L69.7136 127.9382
" />
<path d="M69.7136 127.9382
L69.6183 128.1287
" />
<path d="M69.6183 128.1287
L69.5231 128.2239
" />
<path d="M69.5231 128.2239
L69.3326 128.3192
" />
<path d="M69.3326 128.3192
L69.1421 128.3192
" />
<path d="M69.1421 128.3192
L68.9517 128.2239
" />
<path d="M68.9517 128.2239
L68.8564 128.1287
" />
<path d="M68.8564 128.1287
L68.7612 127.9382
" />
<path d="M68.7612 127.9382
L68.6659 127.5573
" />
<path d="M68.6659 127.5573
L68.6659 127.0811
" />
<path d="M68.6659 127.0811
L68.7612 126.7001
" />
<path d="M68.7612 126.7001
L68.8564 126.5096
" />
<path d="M68.8564 126.5096
L68.9517 126.4144
" />
<path d="M68.9517 126.4144
L69.1421 126.3192
" />
<path d="M70.6659 128.1287
L70.7612 128.2239
" />
<path d="M70.7612 128.2239
L70.6659 128.3192
" />
<path d="M70.6659 128.3192
L70.5707 128.2239
" />
<path d="M70.5707 128.2239
L70.6659 128.1287
" />
<path d="M70.6659 128.1287
L70.6659 128.3192
" />
<path d="M72.6660 128.3192
L71.5231 128.3192
" />
<path d="M72.0945 128.3192
L72.0945 126.3192
" />
<path d="M72.0945 126.3192
L71.9040 126.6049
" />
<path d="M71.9040 126.6049
L71.7136 126.7953
" />
<path d="M71.7136 126.7953
L71.5231 126.8906
" />
<path d="M73.9040 126.3192
L74.0945 126.3192
" />
<path d="M74.0945 126.3192
L74.2850 126.4144
" />
<path d="M74.2850 126.4144
L74.3802 126.5096
" />
<path d="M74.3802 126.5096
L74.4755 126.7001
" />
<path d="M74.4755 126.7001
L74.5707 127.0811
" />
<path d="M74.5707 127.0811
L74.5707 127.5573
" />
<path d="M74.5707 127.5573
L74.4755 127.9382
" />
<path d="M74.4755 127.9382
L74.3802 128.1287
" />
<path d="M74.3802 128.1287
L74.2850 128.2239
" />
<path d="M74.2850 128.2239
L74.0945 128.3192
" />
<path d="M74.0945 128.3192
L73.9040 128.3192
" />
<path d="M73.9040 128.3192
L73.7136 128.2239
" />
<path d="M73.7136 128.2239
L73.6183 128.1287
" />
<path d="M73.6183 128.1287
L73.5231 127.9382
" />
<path d="M73.5231 127.9382
L73.4279 127.5573
" />
<path d="M73.4279 127.5573
L73.4279 127.0811
" />
<path d="M73.4279 127.0811
L73.5231 126.7001
" />
<path d="M73.5231 126.7001
L73.6183 126.5096
" />
<path d="M73.6183 126.5096
L73.7136 126.4144
" />
<path d="M73.7136 126.4144
L73.9040 126.3192
" />
<path d="M76.2850 126.3192
L75.9040 126.3192
" />
<path d="M75.9040 126.3192
L75.7136 126.4144
" />
<path d="M75.7136 126.4144
L75.6183 126.5096
" />
<path d="M75.6183 126.5096
L75.4279 126.7953
" />
<path d="M75.4279 126.7953
L75.3326 127.1763
" />
<path d="M75.3326 127.1763
L75.3326 127.9382
" />
<path d="M75.3326 127.9382
L75.4279 128.1287
" />
<path d="M75.4279 128.1287
L75.5231 128.2239
" />
<path d="M75.5231 128.2239
L75.7136 128.3192
" />
<path d="M75.7136 128.3192
L76.0945 128.3192
" />
<path d="M76.0945 128.3192
L76.2850 128.2239
" />
<path d="M76.2850 128.2239
L76.3802 128.1287
" />
<path d="M76.3802 128.1287
L76.4755 127.9382
" />
<path d="M76.4755 127.9382
L76.4755 127.4620
" />
<path d="M76.4755 127.4620
L76.3802 127.2715
" />
<path d="M76.3802 127.2715
L76.2850 127.1763
" />
<path d="M76.2850 127.1763
L76.0945 127.0811
" />
<path d="M76.0945 127.0811
L75.7136 127.0811
" />
<path d="M75.7136 127.0811
L75.5231 127.1763
" />
<path d="M75.5231 127.1763
L75.4279 127.2715
" />
<path d="M75.4279 127.2715
L75.3326 127.4620
" />
<path d="M77.1421 126.3192
L78.3802 126.3192
" />
<path d="M78.3802 126.3192
L77.7136 127.0811
" />
<path d="M77.7136 127.0811
L77.9993 127.0811
" />
<path d="M77.9993 127.0811
L78.1898 127.1763
" />
<path d="M78.1898 127.1763
L78.2850 127.2715
" />
<path d="M78.2850 127.2715
L78.3802 127.4620
" />
<path d="M78.3802 127.4620
L78.3802 127.9382
" />
<path d="M78.3802 127.9382
L78.2850 128.1287
" />
<path d="M78.2850 128.1287
L78.1898 128.2239
" />
<path d="M78.1898 128.2239
L77.9993 128.3192
" />
<path d="M77.9993 128.3192
L77.4279 128.3192
" />
<path d="M77.4279 128.3192
L77.2374 128.2239
" />
<path d="M77.2374 128.2239
L77.1421 128.1287
" />
<path d="M79.1421 126.3192
L79.1421 126.7001
" />
<path d="M79.9040 126.3192
L79.9040 126.7001
" />
<path d="M82.8564 129.0811
L82.7612 128.9858
" />
<path d="M82.7612 128.9858
L82.5707 128.7001
" />
<path d="M82.5707 128.7001
L82.4755 128.5096
" />
<path d="M82.4755 128.5096
L82.3802 128.2239
" />
<path d="M82.3802 128.2239
L82.2850 127.7477
" />
<path d="M82.2850 127.7477
L82.2850 127.3668
" />
<path d="M82.2850 127.3668
L82.3802 126.8906
" />
<path d="M82.3802 126.8906
L82.4755 126.6049
" />
<path d="M82.4755 126.6049
L82.5707 126.4144
" />
<path d="M82.5707 126.4144
L82.7612 126.1287
" />
<path d="M82.7612 126.1287
L82.8564 126.0334
" />
<path d="M84.6660 128.3192
L83.5231 128.3192
" />
<path d="M84.0945 128.3192
L84.0945 126.3192
" />
<path d="M84.0945 126.3192
L83.9040 126.6049
" />
<path d="M83.9040 126.6049
L83.7136 126.7953
" />
<path d="M83.7136 126.7953
L83.5231 126.8906
" />
<path d="M87.0469 128.3192
L87.0469 126.3192
" />
<path d="M87.9040 128.3192
L87.9040 127.2715
" />
<path d="M87.9040 127.2715
L87.8088 127.0811
" />
<path d="M87.8088 127.0811
L87.6183 126.9858
" />
<path d="M87.6183 126.9858
L87.3326 126.9858
" />
<path d="M87.3326 126.9858
L87.1421 127.0811
" />
<path d="M87.1421 127.0811
L87.0469 127.1763
" />
<path d="M89.1421 128.3192
L88.9517 128.2239
" />
<path d="M88.9517 128.2239
L88.8564 128.1287
" />
<path d="M88.8564 128.1287
L88.7612 127.9382
" />
<path d="M88.7612 127.9382
L88.7612 127.3668
" />
<path d="M88.7612 127.3668
L88.8564 127.1763
" />
<path d="M88.8564 127.1763
L88.9517 127.0811
" />
<path d="M88.9517 127.0811
L89.1421 126.9858
" />
<path d="M89.1421 126.9858
L89.4279 126.9858
" />
<path d="M89.4279 126.9858
L89.6183 127.0811
" />
<path d="M89.6183 127.0811
L89.7136 127.1763
" />
<path d="M89.7136 127.1763
L89.8088 127.3668
" />
<path d="M89.8088 127.3668
L89.8088 127.9382
" />
<path d="M89.8088 127.9382
L89.7136 128.1287
" />
<path d="M89.7136 128.1287
L89.6183 128.2239
" />
<path d="M89.6183 128.2239
L89.4279 128.3192
" />
<path d="M89.4279 128.3192
L89.1421 128.3192
" />
<path d="M90.9517 128.3192
L90.7612 128.2239
" />
<path d="M90.7612 128.2239
L90.6660 128.0334
" />
<path d="M90.6660 128.0334
L90.6660 126.3192
" />
<path d="M92.4755 128.2239
L92.2850 128.3192
" />
<path d="M92.2850 128.3192
L91.9040 128.3192
" />
<path d="M91.9040 128.3192
L91.7136 128.2239
" />
<path d="M91.7136 128.2239
L91.6183 128.0334
" />
<path d="M91.6183 128.0334
L91.6183 127.2715
" />
<path d="M91.6183 127.2715
L91.7136 127.0811
" />
<path d="M91.7136 127.0811
L91.9040 126.9858
" />
<path d="M91.9040 126.9858
L92.2850 126.9858
" />
<path d="M92.2850 126.9858
L92.4755 127.0811
" />
<path d="M92.4755 127.0811
L92.5707 127.2715
" />
<path d="M92.5707 127.2715
L92.5707 127.4620
" />
<path d="M92.5707 127.4620
L91.6183 127.6525
" />
<path d="M93.2374 129.0811
L93.3326 128.9858
" />
<path d="M93.3326 128.9858
L93.5231 128.7001
" />
<path d="M93.5231 128.7001
L93.6183 128.5096
" />
<path d="M93.6183 128.5096
L93.7136 128.2239
" />
<path d="M93.7136 128.2239
L93.8088 127.7477
" />
<path d="M93.8088 127.7477
L93.8088 127.3668
" />
<path d="M93.8088 127.3668
L93.7136 126.8906
" />
<path d="M93.7136 126.8906
L93.6183 126.6049
" />
<path d="M93.6183 126.6049
L93.5231 126.4144
" />
<path d="M93.5231 126.4144
L93.3326 126.1287
" />
<path d="M93.3326 126.1287
L93.2374 126.0334
" />
<path d="M96.8564 129.0811
L96.7612 128.9858
" />
<path d="M96.7612 128.9858
L96.5707 128.7001
" />
<path d="M96.5707 128.7001
L96.4755 128.5096
" />
<path d="M96.4755 128.5096
L96.3802 128.2239
" />
<path d="M96.3802 128.2239
L96.2850 127.7477
" />
<path d="M96.2850 127.7477
L96.2850 127.3668
" />
<path d="M96.2850 127.3668
L96.3802 126.8906
" />
<path d="M96.3802 126.8906
L96.4755 126.6049
" />
<path d="M96.4755 126.6049
L96.5707 126.4144
" />
<path d="M96.5707 126.4144
L96.7612 126.1287
" />
<path d="M96.7612 126.1287
L96.8564 126.0334
" />
<path d="M97.6183 126.9858
L97.6183 128.3192
" />
<path d="M97.6183 127.1763
L97.7136 127.0811
" />
<path d="M97.7136 127.0811
L97.9040 126.9858
" />
<path d="M97.9040 126.9858
L98.1898 126.9858
" />
<path d="M98.1898 126.9858
L98.3802 127.0811
" />
<path d="M98.3802 127.0811
L98.4755 127.2715
" />
<path d="M98.4755 127.2715
L98.4755 128.3192
" />
<path d="M99.7136 128.3192
L99.5231 128.2239
" />
<path d="M99.5231 128.2239
L99.4279 128.1287
" />
<path d="M99.4279 128.1287
L99.3326 127.9382
" />
<path d="M99.3326 127.9382
L99.3326 127.3668
" />
<path d="M99.3326 127.3668
L99.4279 127.1763
" />
<path d="M99.4279 127.1763
L99.5231 127.0811
" />
<path d="M99.5231 127.0811
L99.7136 126.9858
" />
<path d="M99.7136 126.9858
L99.9993 126.9858
" />
<path d="M99.9993 126.9858
L100.1898 127.0811
" />
<path d="M100.1898 127.0811
L100.2850 127.1763
" />
<path d="M100.2850 127.1763
L100.3802 127.3668
" />
<path d="M100.3802 127.3668
L100.3802 127.9382
" />
<path d="M100.3802 127.9382
L100.2850 128.1287
" />
<path d="M100.2850 128.1287
L100.1898 128.2239
" />
<path d="M100.1898 128.2239
L99.9993 128.3192
" />
<path d="M99.9993 128.3192
L99.7136 128.3192
" />
<path d="M100.9517 126.9858
L101.7136 126.9858
" />
<path d="M101.2374 126.3192
L101.2374 128.0334
" />
<path d="M101.2374 128.0334
L101.3326 128.2239
" />
<path d="M101.3326 128.2239
L101.5231 128.3192
" />
<path d="M101.5231 128.3192
L101.7136 128.3192
" />
<path d="M103.9040 126.9858
L103.9040 128.9858
" />
<path d="M103.9040 127.0811
L104.0945 126.9858
" />
<path d="M104.0945 126.9858
L104.4755 126.9858
" />
<path d="M104.4755 126.9858
L104.6660 127.0811
" />
<path d="M104.6660 127.0811
L104.7612 127.1763
" />
<path d="M104.7612 127.1763
L104.8564 127.3668
" />
<path d="M104.8564 127.3668
L104.8564 127.9382
" />
<path d="M104.8564 127.9382
L104.7612 128.1287
" />
<path d="M104.7612 128.1287
L104.6660 128.2239
" />
<path d="M104.6660 128.2239
L104.4755 128.3192
" />
<path d="M104.4755 128.3192
L104.0945 128.3192
" />
<path d="M104.0945 128.3192
L103.9040 128.2239
" />
<path d="M105.9993 128.3192
L105.8088 128.2239
" />
<path d="M105.8088 128.2239
L105.7136 128.0334
" />
<path d="M105.7136 128.0334
L105.7136 126.3192
" />
<path d="M107.6183 128.3192
L107.6183 127.2715
" />
<path d="M107.6183 127.2715
L107.5231 127.0811
" />
<path d="M107.5231 127.0811
L107.3326 126.9858
" />
<path d="M107.3326 126.9858
L106.9517 126.9858
" />
<path d="M106.9517 126.9858
L106.7612 127.0811
" />
<path d="M107.6183 128.2239
L107.4279 128.3192
" />
<path d="M107.4279 128.3192
L106.9517 128.3192
" />
<path d="M106.9517 128.3192
L106.7612 128.2239
" />
<path d="M106.7612 128.2239
L106.6660 128.0334
" />
<path d="M106.6660 128.0334
L106.6660 127.8430
" />
<path d="M106.6660 127.8430
L106.7612 127.6525
" />
<path d="M106.7612 127.6525
L106.9517 127.5573
" />
<path d="M106.9517 127.5573
L107.4279 127.5573
" />
<path d="M107.4279 127.5573
L107.6183 127.4620
" />
<path d="M108.2850 126.9858
L109.0469 126.9858
" />
<path d="M108.5707 126.3192
L108.5707 128.0334
" />
<path d="M108.5707 128.0334
L108.6660 128.2239
" />
<path d="M108.6660 128.2239
L108.8564 128.3192
" />
<path d="M108.8564 128.3192
L109.0469 128.3192
" />
<path d="M110.4755 128.2239
L110.2850 128.3192
" />
<path d="M110.2850 128.3192
L109.9040 128.3192
" />
<path d="M109.9040 128.3192
L109.7136 128.2239
" />
<path d="M109.7136 128.2239
L109.6183 128.0334
" />
<path d="M109.6183 128.0334
L109.6183 127.2715
" />
<path d="M109.6183 127.2715
L109.7136 127.0811
" />
<path d="M109.7136 127.0811
L109.9040 126.9858
" />
<path d="M109.9040 126.9858
L110.2850 126.9858
" />
<path d="M110.2850 126.9858
L110.4755 127.0811
" />
<path d="M110.4755 127.0811
L110.5707 127.2715
" />
<path d="M110.5707 127.2715
L110.5707 127.4620
" />
<path d="M110.5707 127.4620
L109.6183 127.6525
" />
<path d="M112.2850 128.3192
L112.2850 126.3192
" />
<path d="M112.2850 128.2239
L112.0945 128.3192
" />
<path d="M112.0945 128.3192
L111.7136 128.3192
" />
<path d="M111.7136 128.3192
L111.5231 128.2239
" />
<path d="M111.5231 128.2239
L111.4279 128.1287
" />
<path d="M111.4279 128.1287
L111.3326 127.9382
" />
<path d="M111.3326 127.9382
L111.3326 127.3668
" />
<path d="M111.3326 127.3668
L111.4279 127.1763
" />
<path d="M111.4279 127.1763
L111.5231 127.0811
" />
<path d="M111.5231 127.0811
L111.7136 126.9858
" />
<path d="M111.7136 126.9858
L112.0945 126.9858
" />
<path d="M112.0945 126.9858
L112.2850 127.0811
" />
<path d="M113.0469 129.0811
L113.1421 128.9858
" />
<path d="M113.1421 128.9858
L113.3326 128.7001
" />
<path d="M113.3326 128.7001
L113.4279 128.5096
" />
<path d="M113.4279 128.5096
L113.5231 128.2239
" />
<path d="M113.5231 128.2239
L113.6183 127.7477
" />
<path d="M113.6183 127.7477
L113.6183 127.3668
" />
<path d="M113.6183 127.3668
L113.5231 126.8906
" />
<path d="M113.5231 126.8906
L113.4279 126.6049
" />
<path d="M113.4279 126.6049
L113.3326 126.4144
" />
<path d="M113.3326 126.4144
L113.1421 126.1287
" />
<path d="M113.1421 126.1287
L113.0469 126.0334
" />
</g></g>
<g style="fill:none; 
stroke:#000000; stroke-width:0.2000; stroke-opacity:1; 
stroke-linecap:round; stroke-linejoin:round;">
<circle cx="46.1058" cy="130.6043" r="1.0000" /> 
</g>
<g style="fill:none; 
stroke:#000000; stroke-width:0.2000; stroke-opacity:1; 
stroke-linecap:round; stroke-linejoin:round;">
<text x="49.1058" y="131.6043"
textLength="66.6762" font-size="2.6667" lengthAdjust="spacingAndGlyphs"
text-anchor="start" opacity="0" stroke-opacity="0">3.200mm / 0.1260" (4 holes) (not plated)</text>
<g class="stroked-text"><desc>3.200mm / 0.1260" (4 holes) (not plated)</desc>
<path d="M49.5231 129.5192
L50.7612 129.5192
" />
<path d="M50.7612 129.5192
L50.0945 130.2811
" />
<path d="M50.0945 130.2811
L50.3802 130.2811
" />
<path d="M50.3802 130.2811
L50.5707 130.3763
" />
<path d="M50.5707 130.3763
L50.6660 130.4715
" />
<path d="M50.6660 130.4715
L50.7612 130.6620
" />
<path d="M50.7612 130.6620
L50.7612 131.1382
" />
<path d="M50.7612 131.1382
L50.6660 131.3287
" />
<path d="M50.6660 131.3287
L50.5707 131.4239
" />
<path d="M50.5707 131.4239
L50.3802 131.5192
" />
<path d="M50.3802 131.5192
L49.8088 131.5192
" />
<path d="M49.8088 131.5192
L49.6183 131.4239
" />
<path d="M49.6183 131.4239
L49.5231 131.3287
" />
<path d="M51.6183 131.3287
L51.7136 131.4239
" />
<path d="M51.7136 131.4239
L51.6183 131.5192
" />
<path d="M51.6183 131.5192
L51.5231 131.4239
" />
<path d="M51.5231 131.4239
L51.6183 131.3287
" />
<path d="M51.6183 131.3287
L51.6183 131.5192
" />
<path d="M52.4755 129.7096
L52.5707 129.6144
" />
<path d="M52.5707 129.6144
L52.7612 129.5192
" />
<path d="M52.7612 129.5192
L53.2374 129.5192
" />
<path d="M53.2374 129.5192
L53.4279 129.6144
" />
<path d="M53.4279 129.6144
L53.5231 129.7096
" />
<path d="M53.5231 129.7096
L53.6183 129.9001
" />
<path d="M53.6183 129.9001
L53.6183 130.0906
" />
<path d="M53.6183 130.0906
L53.5231 130.3763
" />
<path d="M53.5231 130.3763
L52.3802 131.5192
" />
<path d="M52.3802 131.5192
L53.6183 131.5192
" />
<path d="M54.8564 129.5192
L55.0469 129.5192
" />
<path d="M55.0469 129.5192
L55.2374 129.6144
" />
<path d="M55.2374 129.6144
L55.3326 129.7096
" />
<path d="M55.3326 129.7096
L55.4279 129.9001
" />
<path d="M55.4279 129.9001
L55.5231 130.2811
" />
<path d="M55.5231 130.2811
L55.5231 130.7573
" />
<path d="M55.5231 130.7573
L55.4279 131.1382
" />
<path d="M55.4279 131.1382
L55.3326 131.3287
" />
<path d="M55.3326 131.3287
L55.2374 131.4239
" />
<path d="M55.2374 131.4239
L55.0469 131.5192
" />
<path d="M55.0469 131.5192
L54.8564 131.5192
" />
<path d="M54.8564 131.5192
L54.6660 131.4239
" />
<path d="M54.6660 131.4239
L54.5707 131.3287
" />
<path d="M54.5707 131.3287
L54.4755 131.1382
" />
<path d="M54.4755 131.1382
L54.3802 130.7573
" />
<path d="M54.3802 130.7573
L54.3802 130.2811
" />
<path d="M54.3802 130.2811
L54.4755 129.9001
" />
<path d="M54.4755 129.9001
L54.5707 129.7096
" />
<path d="M54.5707 129.7096
L54.6660 129.6144
" />
<path d="M54.6660 129.6144
L54.8564 129.5192
" />
<path d="M56.7612 129.5192
L56.9517 129.5192
" />
<path d="M56.9517 129.5192
L57.1421 129.6144
" />
<path d="M57.1421 129.6144
L57.2374 129.7096
" />
<path d="M57.2374 129.7096
L57.3326 129.9001
" />
<path d="M57.3326 129.9001
L57.4279 130.2811
" />
<path d="M57.4279 130.2811
L57.4279 130.7573
" />
<path d="M57.4279 130.7573
L57.3326 131.1382
" />
<path d="M57.3326 131.1382
L57.2374 131.3287
" />
<path d="M57.2374 131.3287
L57.1421 131.4239
" />
<path d="M57.1421 131.4239
L56.9517 131.5192
" />
<path d="M56.9517 131.5192
L56.7612 131.5192
" />
<path d="M56.7612 131.5192
L56.5707 131.4239
" />
<path d="M56.5707 131.4239
L56.4755 131.3287
" />
<path d="M56.4755 131.3287
L56.3802 131.1382
" />
<path d="M56.3802 131.1382
L56.2850 130.7573
" />
<path d="M56.2850 130.7573
L56.2850 130.2811
" />
<path d="M56.2850 130.2811
L56.3802 129.9001
" />
<path d="M56.3802 129.9001
L56.4755 129.7096
" />
<path d="M56.4755 129.7096
L56.5707 129.6144
" />
<path d="M56.5707 129.6144
L56.7612 129.5192
" />
<path d="M58.2850 131.5192
L58.2850 130.1858
" />
<path d="M58.2850 130.3763
L58.3802 130.2811
" />
<path d="M58.3802 130.2811
L58.5707 130.1858
" />
<path d="M58.5707 130.1858
L58.8564 130.1858
" />
<path d="M58.8564 130.1858
L59.0469 130.2811
" />
<path d="M59.0469 130.2811
L59.1421 130.4715
" />
<path d="M59.1421 130.4715
L59.1421 131.5192
" />
<path d="M59.1421 130.4715
L59.2374 130.2811
" />
<path d="M59.2374 130.2811
L59.4279 130.1858
" />
<path d="M59.4279 130.1858
L59.7136 130.1858
" />
<path d="M59.7136 130.1858
L59.9040 130.2811
" />
<path d="M59.9040 130.2811
L59.9993 130.4715
" />
<path d="M59.9993 130.4715
L59.9993 131.5192
" />
<path d="M60.9517 131.5192
L60.9517 130.1858
" />
<path d="M60.9517 130.3763
L61.0469 130.2811
" />
<path d="M61.0469 130.2811
L61.2374 130.1858
" />
<path d="M61.2374 130.1858
L61.5231 130.1858
" />
<path d="M61.5231 130.1858
L61.7136 130.2811
" />
<path d="M61.7136 130.2811
L61.8088 130.4715
" />
<path d="M61.8088 130.4715
L61.8088 131.5192
" />
<path d="M61.8088 130.4715
L61.9040 130.2811
" />
<path d="M61.9040 130.2811
L62.0945 130.1858
" />
<path d="M62.0945 130.1858
L62.3802 130.1858
" />
<path d="M62.3802 130.1858
L62.5707 130.2811
" />
<path d="M62.5707 130.2811
L62.6660 130.4715
" />
<path d="M62.6660 130.4715
L62.6660 131.5192
" />
<path d="M66.5707 129.4239
L64.8564 131.9953
" />
<path d="M69.1421 129.5192
L69.3326 129.5192
" />
<path d="M69.3326 129.5192
L69.5231 129.6144
" />
<path d="M69.5231 129.6144
L69.6183 129.7096
" />
<path d="M69.6183 129.7096
L69.7136 129.9001
" />
<path d="M69.7136 129.9001
L69.8088 130.2811
" />
<path d="M69.8088 130.2811
L69.8088 130.7573
" />
<path d="M69.8088 130.7573
L69.7136 131.1382
" />
<path d="M69.7136 131.1382
L69.6183 131.3287
" />
<path d="M69.6183 131.3287
L69.5231 131.4239
" />
<path d="M69.5231 131.4239
L69.3326 131.5192
" />
<path d="M69.3326 131.5192
L69.1421 131.5192
" />
<path d="M69.1421 131.5192
L68.9517 131.4239
" />
<path d="M68.9517 131.4239
L68.8564 131.3287
" />
<path d="M68.8564 131.3287
L68.7612 131.1382
" />
<path d="M68.7612 131.1382
L68.6659 130.7573
" />
<path d="M68.6659 130.7573
L68.6659 130.2811
" />
<path d="M68.6659 130.2811
L68.7612 129.9001
" />
<path d="M68.7612 129.9001
L68.8564 129.7096
" />
<path d="M68.8564 129.7096
L68.9517 129.6144
" />
<path d="M68.9517 129.6144
L69.1421 129.5192
" />
<path d="M70.6659 131.3287
L70.7612 131.4239
" />
<path d="M70.7612 131.4239
L70.6659 131.5192
" />
<path d="M70.6659 131.5192
L70.5707 131.4239
" />
<path d="M70.5707 131.4239
L70.6659 131.3287
" />
<path d="M70.6659 131.3287
L70.6659 131.5192
" />
<path d="M72.6660 131.5192
L71.5231 131.5192
" />
<path d="M72.0945 131.5192
L72.0945 129.5192
" />
<path d="M72.0945 129.5192
L71.9040 129.8049
" />
<path d="M71.9040 129.8049
L71.7136 129.9953
" />
<path d="M71.7136 129.9953
L71.5231 130.0906
" />
<path d="M73.4279 129.7096
L73.5231 129.6144
" />
<path d="M73.5231 129.6144
L73.7136 129.5192
" />
<path d="M73.7136 129.5192
L74.1898 129.5192
" />
<path d="M74.1898 129.5192
L74.3802 129.6144
" />
<path d="M74.3802 129.6144
L74.4755 129.7096
" />
<path d="M74.4755 129.7096
L74.5707 129.9001
" />
<path d="M74.5707 129.9001
L74.5707 130.0906
" />
<path d="M74.5707 130.0906
L74.4755 130.3763
" />
<path d="M74.4755 130.3763
L73.3326 131.5192
" />
<path d="M73.3326 131.5192
L74.5707 131.5192
" />
<path d="M76.2850 129.5192
L75.9040 129.5192
" />
<path d="M75.9040 129.5192
L75.7136 129.6144
" />
<path d="M75.7136 129.6144
L75.6183 129.7096
" />
<path d="M75.6183 129.7096
L75.4279 129.9953
" />
<path d="M75.4279 129.9953
L75.3326 130.3763
" />
<path d="M75.3326 130.3763
L75.3326 131.1382
" />
<path d="M75.3326 131.1382
L75.4279 131.3287
" />
<path d="M75.4279 131.3287
L75.5231 131.4239
" />
<path d="M75.5231 131.4239
L75.7136 131.5192
" />
<path d="M75.7136 131.5192
L76.0945 131.5192
" />
<path d="M76.0945 131.5192
L76.2850 131.4239
" />
<path d="M76.2850 131.4239
L76.3802 131.3287
" />
<path d="M76.3802 131.3287
L76.4755 131.1382
" />
<path d="M76.4755 131.1382
L76.4755 130.6620
" />
<path d="M76.4755 130.6620
L76.3802 130.4715
" />
<path d="M76.3802 130.4715
L76.2850 130.3763
" />
<path d="M76.2850 130.3763
L76.0945 130.2811
" />
<path d="M76.0945 130.2811
L75.7136 130.2811
" />
<path d="M75.7136 130.2811
L75.5231 130.3763
" />
<path d="M75.5231 130.3763
L75.4279 130.4715
" />
<path d="M75.4279 130.4715
L75.3326 130.6620
" />
<path d="M77.7136 129.5192
L77.9040 129.5192
" />
<path d="M77.9040 129.5192
L78.0945 129.6144
" />
<path d="M78.0945 129.6144
L78.1898 129.7096
" />
<path d="M78.1898 129.7096
L78.2850 129.9001
" />
<path d="M78.2850 129.9001
L78.3802 130.2811
" />
<path d="M78.3802 130.2811
L78.3802 130.7573
" />
<path d="M78.3802 130.7573
L78.2850 131.1382
" />
<path d="M78.2850 131.1382
L78.1898 131.3287
" />
<path d="M78.1898 131.3287
L78.0945 131.4239
" />
<path d="M78.0945 131.4239
L77.9040 131.5192
" />
<path d="M77.9040 131.5192
L77.7136 131.5192
" />
<path d="M77.7136 131.5192
L77.5231 131.4239
" />
<path d="M77.5231 131.4239
L77.4279 131.3287
" />
<path d="M77.4279 131.3287
L77.3326 131.1382
" />
<path d="M77.3326 131.1382
L77.2374 130.7573
" />
<path d="M77.2374 130.7573
L77.2374 130.2811
" />
<path d="M77.2374 130.2811
L77.3326 129.9001
" />
<path d="M77.3326 129.9001
L77.4279 129.7096
" />
<path d="M77.4279 129.7096
L77.5231 129.6144
" />
<path d="M77.5231 129.6144
L77.7136 129.5192
" />
<path d="M79.1421 129.5192
L79.1421 129.9001
" />
<path d="M79.9040 129.5192
L79.9040 129.9001
" />
<path d="M82.8564 132.2811
L82.7612 132.1858
" />
<path d="M82.7612 132.1858
L82.5707 131.9001
" />
<path d="M82.5707 131.9001
L82.4755 131.7096
" />
<path d="M82.4755 131.7096
L82.3802 131.4239
" />
<path d="M82.3802 131.4239
L82.2850 130.9477
" />
<path d="M82.2850 130.9477
L82.2850 130.5668
" />
<path d="M82.2850 130.5668
L82.3802 130.0906
" />
<path d="M82.3802 130.0906
L82.4755 129.8049
" />
<path d="M82.4755 129.8049
L82.5707 129.6144
" />
<path d="M82.5707 129.6144
L82.7612 129.3287
" />
<path d="M82.7612 129.3287
L82.8564 129.2334
" />
<path d="M84.4755 130.1858
L84.4755 131.5192
" />
<path d="M83.9993 129.4239
L83.5231 130.8525
" />
<path d="M83.5231 130.8525
L84.7612 130.8525
" />
<path d="M87.0469 131.5192
L87.0469 129.5192
" />
<path d="M87.9040 131.5192
L87.9040 130.4715
" />
<path d="M87.9040 130.4715
L87.8088 130.2811
" />
<path d="M87.8088 130.2811
L87.6183 130.1858
" />
<path d="M87.6183 130.1858
L87.3326 130.1858
" />
<path d="M87.3326 130.1858
L87.1421 130.2811
" />
<path d="M87.1421 130.2811
L87.0469 130.3763
" />
<path d="M89.1421 131.5192
L88.9517 131.4239
" />
<path d="M88.9517 131.4239
L88.8564 131.3287
" />
<path d="M88.8564 131.3287
L88.7612 131.1382
" />
<path d="M88.7612 131.1382
L88.7612 130.5668
" />
<path d="M88.7612 130.5668
L88.8564 130.3763
" />
<path d="M88.8564 130.3763
L88.9517 130.2811
" />
<path d="M88.9517 130.2811
L89.1421 130.1858
" />
<path d="M89.1421 130.1858
L89.4279 130.1858
" />
<path d="M89.4279 130.1858
L89.6183 130.2811
" />
<path d="M89.6183 130.2811
L89.7136 130.3763
" />
<path d="M89.7136 130.3763
L89.8088 130.5668
" />
<path d="M89.8088 130.5668
L89.8088 131.1382
" />
<path d="M89.8088 131.1382
L89.7136 131.3287
" />
<path d="M89.7136 131.3287
L89.6183 131.4239
" />
<path d="M89.6183 131.4239
L89.4279 131.5192
" />
<path d="M89.4279 131.5192
L89.1421 131.5192
" />
<path d="M90.9517 131.5192
L90.7612 131.4239
" />
<path d="M90.7612 131.4239
L90.6660 131.2334
" />
<path d="M90.6660 131.2334
L90.6660 129.5192
" />
<path d="M92.4755 131.4239
L92.2850 131.5192
" />
<path d="M92.2850 131.5192
L91.9040 131.5192
" />
<path d="M91.9040 131.5192
L91.7136 131.4239
" />
<path d="M91.7136 131.4239
L91.6183 131.2334
" />
<path d="M91.6183 131.2334
L91.6183 130.4715
" />
<path d="M91.6183 130.4715
L91.7136 130.2811
" />
<path d="M91.7136 130.2811
L91.9040 130.1858
" />
<path d="M91.9040 130.1858
L92.2850 130.1858
" />
<path d="M92.2850 130.1858
L92.4755 130.2811
" />
<path d="M92.4755 130.2811
L92.5707 130.4715
" />
<path d="M92.5707 130.4715
L92.5707 130.6620
" />
<path d="M92.5707 130.6620
L91.6183 130.8525
" />
<path d="M93.3326 131.4239
L93.5231 131.5192
" />
<path d="M93.5231 131.5192
L93.9040 131.5192
" />
<path d="M93.9040 131.5192
L94.0945 131.4239
" />
<path d="M94.0945 131.4239
L94.1898 131.2334
" />
<path d="M94.1898 131.2334
L94.1898 131.1382
" />
<path d="M94.1898 131.1382
L94.0945 130.9477
" />
<path d="M94.0945 130.9477
L93.9040 130.8525
" />
<path d="M93.9040 130.8525
L93.6183 130.8525
" />
<path d="M93.6183 130.8525
L93.4279 130.7573
" />
<path d="M93.4279 130.7573
L93.3326 130.5668
" />
<path d="M93.3326 130.5668
L93.3326 130.4715
" />
<path d="M93.3326 130.4715
L93.4279 130.2811
" />
<path d="M93.4279 130.2811
L93.6183 130.1858
" />
<path d="M93.6183 130.1858
L93.9040 130.1858
" />
<path d="M93.9040 130.1858
L94.0945 130.2811
" />
<path d="M94.8564 132.2811
L94.9517 132.1858
" />
<path d="M94.9517 132.1858
L95.1421 131.9001
" />
<path d="M95.1421 131.9001
L95.2374 131.7096
" />
<path d="M95.2374 131.7096
L95.3326 131.4239
" />
<path d="M95.3326 131.4239
L95.4279 130.9477
" />
<path d="M95.4279 130.9477
L95.4279 130.5668
" />
<path d="M95.4279 130.5668
L95.3326 130.0906
" />
<path d="M95.3326 130.0906
L95.2374 129.8049
" />
<path d="M95.2374 129.8049
L95.1421 129.6144
" />
<path d="M95.1421 129.6144
L94.9517 129.3287
" />
<path d="M94.9517 129.3287
L94.8564 129.2334
" />
<path d="M98.4755 132.2811
L98.3802 132.1858
" />
<path d="M98.3802 132.1858
L98.1898 131.9001
" />
<path d="M98.1898 131.9001
L98.0945 131.7096
" />
<path d="M98.0945 131.7096
L97.9993 131.4239
" />
<path d="M97.9993 131.4239
L97.9040 130.9477
" />
<path d="M97.9040 130.9477
L97.9040 130.5668
" />
<path d="M97.9040 130.5668
L97.9993 130.0906
" />
<path d="M97.9993 130.0906
L98.0945 129.8049
" />
<path d="M98.0945 129.8049
L98.1898 129.6144
" />
<path d="M98.1898 129.6144
L98.3802 129.3287
" />
<path d="M98.3802 129.3287
L98.4755 129.2334
" />
<path d="M99.2374 130.1858
L99.2374 131.5192
" />
<path d="M99.2374 130.3763
L99.3326 130.2811
" />
<path d="M99.3326 130.2811
L99.5231 130.1858
" />
<path d="M99.5231 130.1858
L99.8088 130.1858
" />
<path d="M99.8088 130.1858
L99.9993 130.2811
" />
<path d="M99.9993 130.2811
L100.0945 130.4715
" />
<path d="M100.0945 130.4715
L100.0945 131.5192
" />
<path d="M101.3326 131.5192
L101.1421 131.4239
" />
<path d="M101.1421 131.4239
L101.0469 131.3287
" />
<path d="M101.0469 131.3287
L100.9517 131.1382
" />
<path d="M100.9517 131.1382
L100.9517 130.5668
" />
<path d="M100.9517 130.5668
L101.0469 130.3763
" />
<path d="M101.0469 130.3763
L101.1421 130.2811
" />
<path d="M101.1421 130.2811
L101.3326 130.1858
" />
<path d="M101.3326 130.1858
L101.6183 130.1858
" />
<path d="M101.6183 130.1858
L101.8088 130.2811
" />
<path d="M101.8088 130.2811
L101.9040 130.3763
" />
<path d="M101.9040 130.3763
L101.9993 130.5668
" />
<path d="M101.9993 130.5668
L101.9993 131.1382
" />
<path d="M101.9993 131.1382
L101.9040 131.3287
" />
<path d="M101.9040 131.3287
L101.8088 131.4239
" />
<path d="M101.8088 131.4239
L101.6183 131.5192
" />
<path d="M101.6183 131.5192
L101.3326 131.5192
" />
<path d="M102.5707 130.1858
L103.3326 130.1858
" />
<path d="M102.8564 129.5192
L102.8564 131.2334
" />
<path d="M102.8564 131.2334
L102.9517 131.4239
" />
<path d="M102.9517 131.4239
L103.1421 131.5192
" />
<path d="M103.1421 131.5192
L103.3326 131.5192
" />
<path d="M105.5231 130.1858
L105.5231 132.1858
" />
<path d="M105.5231 130.2811
L105.7136 130.1858
" />
<path d="M105.7136 130.1858
L106.0945 130.1858
" />
<path d="M106.0945 130.1858
L106.2850 130.2811
" />
<path d="M106.2850 130.2811
L106.3802 130.3763
" />
<path d="M106.3802 130.3763
L106.4755 130.5668
" />
<path d="M106.4755 130.5668
L106.4755 131.1382
" />
<path d="M106.4755 131.1382
L106.3802 131.3287
" />
<path d="M106.3802 131.3287
L106.2850 131.4239
" />
<path d="M106.2850 131.4239
L106.0945 131.5192
" />
<path d="M106.0945 131.5192
L105.7136 131.5192
" />
<path d="M105.7136 131.5192
L105.5231 131.4239
" />
<path d="M107.6183 131.5192
L107.4279 131.4239
" />
<path d="M107.4279 131.4239
L107.3326 131.2334
" />
<path d="M107.3326 131.2334
L107.3326 129.5192
" />
<path d="M109.2374 131.5192
L109.2374 130.4715
" />
<path d="M109.2374 130.4715
L109.1421 130.2811
" />
<path d="M109.1421 130.2811
L108.9517 130.1858
" />
<path d="M108.9517 130.1858
L108.5707 130.1858
" />
<path d="M108.5707 130.1858
L108.3802 130.2811
" />
<path d="M109.2374 131.4239
L109.0469 131.5192
" />
<path d="M109.0469 131.5192
L108.5707 131.5192
" />
<path d="M108.5707 131.5192
L108.3802 131.4239
" />
<path d="M108.3802 131.4239
L108.2850 131.2334
" />
<path d="M108.2850 131.2334
L108.2850 131.0430
" />
<path d="M108.2850 131.0430
L108.3802 130.8525
" />
<path d="M108.3802 130.8525
L108.5707 130.7573
" />
<path d="M108.5707 130.7573
L109.0469 130.7573
" />
<path d="M109.0469 130.7573
L109.2374 130.6620
" />
<path d="M109.9040 130.1858
L110.6660 130.1858
" />
<path d="M110.1898 129.5192
L110.1898 131.2334
" />
<path d="M110.1898 131.2334
L110.2850 131.4239
" />
<path d="M110.2850 131.4239
L110.4755 131.5192
" />
<path d="M110.4755 131.5192
L110.6660 131.5192
" />
<path d="M112.0945 131.4239
L111.9040 131.5192
" />
<path d="M111.9040 131.5192
L111.5231 131.5192
" />
<path d="M111.5231 131.5192
L111.3326 131.4239
" />
<path d="M111.3326 131.4239
L111.2374 131.2334
" />
<path d="M111.2374 131.2334
L111.2374 130.4715
" />
<path d="M111.2374 130.4715
L111.3326 130.2811
" />
<path d="M111.3326 130.2811
L111.5231 130.1858
" />
<path d="M111.5231 130.1858
L111.9040 130.1858
" />
<path d="M111.9040 130.1858
L112.0945 130.2811
" />
<path d="M112.0945 130.2811
L112.1898 130.4715
" />
<path d="M112.1898 130.4715
L112.1898 130.6620
" />
<path d="M112.1898 130.6620
L111.2374 130.8525
" />
<path d="M113.9040 131.5192
L113.9040 129.5192
" />
<path d="M113.9040 131.4239
L113.7136 131.5192
" />
<path d="M113.7136 131.5192
L113.3326 131.5192
" />
<path d="M113.3326 131.5192
L113.1421 131.4239
" />
<path d="M113.1421 131.4239
L113.0469 131.3287
" />
<path d="M113.0469 131.3287
L112.9517 131.1382
" />
<path d="M112.9517 131.1382
L112.9517 130.5668
" />
<path d="M112.9517 130.5668
L113.0469 130.3763
" />
<path d="M113.0469 130.3763
L113.1421 130.2811
" />
<path d="M113.1421 130.2811
L113.3326 130.1858
" />
<path d="M113.3326 130.1858
L113.7136 130.1858
" />
<path d="M113.7136 130.1858
L113.9040 130.2811
" />
<path d="M114.6659 132.2811
L114.7612 132.1858
" />
<path d="M114.7612 132.1858
L114.9517 131.9001
" />
<path d="M114.9517 131.9001
L115.0469 131.7096
" />
<path d="M115.0469 131.7096
L115.1421 131.4239
" />
<path d="M115.1421 131.4239
L115.2374 130.9477
" />
<path d="M115.2374 130.9477
L115.2374 130.5668
" />
<path d="M115.2374 130.5668
L115.1421 130.0906
" />
<path d="M115.1421 130.0906
L115.0469 129.8049
" />
<path d="M115.0469 129.8049
L114.9517 129.6144
" />
<path d="M114.9517 129.6144
L114.7612 129.3287
" />
<path d="M114.7612 129.3287
L114.6659 129.2334
" />
</g></g>
<g style="fill:none; 
stroke:#000000; stroke-width:0.2000; stroke-opacity:1; 
stroke-linecap:round; stroke-linejoin:round;">
<path d="M46.1058 132.8043
L46.1058 134.8043
" />
<path d="M45.1058 133.8043
L47.1058 133.8043
" />
</g>
<g style="fill:none; 
stroke:#000000; stroke-width:0.2000; stroke-opacity:1; 
stroke-linecap:round; stroke-linejoin:round;">
<text x="49.1058" y="134.8043"
textLength="65.0571" font-size="2.6667" lengthAdjust="spacingAndGlyphs"
text-anchor="start" opacity="0" stroke-opacity="0">4.300mm / 0.1693" (1 hole) (not plated)</text>
<g class="stroked-text"><desc>4.300mm / 0.1693" (1 hole) (not plated)</desc>
<path d="M50.5707 133.3858
L50.5707 134.7192
" />
<path d="M50.0945 132.6239
L49.6183 134.0525
" />
<path d="M49.6183 134.0525
L50.8564 134.0525
" />
<path d="M51.6183 134.5287
L51.7136 134.6239
" />
<path d="M51.7136 134.6239
L51.6183 134.7192
" />
<path d="M51.6183 134.7192
L51.5231 134.6239
" />
<path d="M51.5231 134.6239
L51.6183 134.5287
" />
<path d="M51.6183 134.5287
L51.6183 134.7192
" />
<path d="M52.3802 132.7192
L53.6183 132.7192
" />
<path d="M53.6183 132.7192
L52.9517 133.4811
" />
<path d="M52.9517 133.4811
L53.2374 133.4811
" />
<path d="M53.2374 133.4811
L53.4279 133.5763
" />
<path d="M53.4279 133.5763
L53.5231 133.6715
" />
<path d="M53.5231 133.6715
L53.6183 133.8620
" />
<path d="M53.6183 133.8620
L53.6183 134.3382
" />
<path d="M53.6183 134.3382
L53.5231 134.5287
" />
<path d="M53.5231 134.5287
L53.4279 134.6239
" />
<path d="M53.4279 134.6239
L53.2374 134.7192
" />
<path d="M53.2374 134.7192
L52.6660 134.7192
" />
<path d="M52.6660 134.7192
L52.4755 134.6239
" />
<path d="M52.4755 134.6239
L52.3802 134.5287
" />
<path d="M54.8564 132.7192
L55.0469 132.7192
" />
<path d="M55.0469 132.7192
L55.2374 132.8144
" />
<path d="M55.2374 132.8144
L55.3326 132.9096
" />
<path d="M55.3326 132.9096
L55.4279 133.1001
" />
<path d="M55.4279 133.1001
L55.5231 133.4811
" />
<path d="M55.5231 133.4811
L55.5231 133.9573
" />
<path d="M55.5231 133.9573
L55.4279 134.3382
" />
<path d="M55.4279 134.3382
L55.3326 134.5287
" />
<path d="M55.3326 134.5287
L55.2374 134.6239
" />
<path d="M55.2374 134.6239
L55.0469 134.7192
" />
<path d="M55.0469 134.7192
L54.8564 134.7192
" />
<path d="M54.8564 134.7192
L54.6660 134.6239
" />
<path d="M54.6660 134.6239
L54.5707 134.5287
" />
<path d="M54.5707 134.5287
L54.4755 134.3382
" />
<path d="M54.4755 134.3382
L54.3802 133.9573
" />
<path d="M54.3802 133.9573
L54.3802 133.4811
" />
<path d="M54.3802 133.4811
L54.4755 133.1001
" />
<path d="M54.4755 133.1001
L54.5707 132.9096
" />
<path d="M54.5707 132.9096
L54.6660 132.8144
" />
<path d="M54.6660 132.8144
L54.8564 132.7192
" />
<path d="M56.7612 132.7192
L56.9517 132.7192
" />
<path d="M56.9517 132.7192
L57.1421 132.8144
" />
<path d="M57.1421 132.8144
L57.2374 132.9096
" />
<path d="M57.2374 132.9096
L57.3326 133.1001
" />
<path d="M57.3326 133.1001
L57.4279 133.4811
" />
<path d="M57.4279 133.4811
L57.4279 133.9573
" />
<path d="M57.4279 133.9573
L57.3326 134.3382
" />
<path d="M57.3326 134.3382
L57.2374 134.5287
" />
<path d="M57.2374 134.5287
L57.1421 134.6239
" />
<path d="M57.1421 134.6239
L56.9517 134.7192
" />
<path d="M56.9517 134.7192
L56.7612 134.7192
" />
<path d="M56.7612 134.7192
L56.5707 134.6239
" />
<path d="M56.5707 134.6239
L56.4755 134.5287
" />
<path d="M56.4755 134.5287
L56.3802 134.3382
" />
<path d="M56.3802 134.3382
L56.2850 133.9573
" />
<path d="M56.2850 133.9573
L56.2850 133.4811
" />
<path d="M56.2850 133.4811
L56.3802 133.1001
" />
<path d="M56.3802 133.1001
L56.4755 132.9096
" />
<path d="M56.4755 132.9096
L56.5707 132.8144
" />
<path d="M56.5707 132.8144
L56.7612 132.7192
" />
<path d="M58.2850 134.7192
L58.2850 133.3858
" />
<path d="M58.2850 133.5763
L58.3802 133.4811
" />
<path d="M58.3802 133.4811
L58.5707 133.3858
" />
<path d="M58.5707 133.3858
L58.8564 133.3858
" />
<path d="M58.8564 133.3858
L59.0469 133.4811
" />
<path d="M59.0469 133.4811
L59.1421 133.6715
" />
<path d="M59.1421 133.6715
L59.1421 134.7192
" />
<path d="M59.1421 133.6715
L59.2374 133.4811
" />
<path d="M59.2374 133.4811
L59.4279 133.3858
" />
<path d="M59.4279 133.3858
L59.7136 133.3858
" />
<path d="M59.7136 133.3858
L59.9040 133.4811
" />
<path d="M59.9040 133.4811
L59.9993 133.6715
" />
<path d="M59.9993 133.6715
L59.9993 134.7192
" />
<path d="M60.9517 134.7192
L60.9517 133.3858
" />
<path d="M60.9517 133.5763
L61.0469 133.4811
" />
<path d="M61.0469 133.4811
L61.2374 133.3858
" />
<path d="M61.2374 133.3858
L61.5231 133.3858
" />
<path d="M61.5231 133.3858
L61.7136 133.4811
" />
<path d="M61.7136 133.4811
L61.8088 133.6715
" />
<path d="M61.8088 133.6715
L61.8088 134.7192
" />
<path d="M61.8088 133.6715
L61.9040 133.4811
" />
<path d="M61.9040 133.4811
L62.0945 133.3858
" />
<path d="M62.0945 133.3858
L62.3802 133.3858
" />
<path d="M62.3802 133.3858
L62.5707 133.4811
" />
<path d="M62.5707 133.4811
L62.6660 133.6715
" />
<path d="M62.6660 133.6715
L62.6660 134.7192
" />
<path d="M66.5707 132.6239
L64.8564 135.1953
" />
<path d="M69.1421 132.7192
L69.3326 132.7192
" />
<path d="M69.3326 132.7192
L69.5231 132.8144
" />
<path d="M69.5231 132.8144
L69.6183 132.9096
" />
<path d="M69.6183 132.9096
L69.7136 133.1001
" />
<path d="M69.7136 133.1001
L69.8088 133.4811
" />
<path d="M69.8088 133.4811
L69.8088 133.9573
" />
<path d="M69.8088 133.9573
L69.7136 134.3382
" />
<path d="M69.7136 134.3382
L69.6183 134.5287
" />
<path d="M69.6183 134.5287
L69.5231 134.6239
" />
<path d="M69.5231 134.6239
L69.3326 134.7192
" />
<path d="M69.3326 134.7192
L69.1421 134.7192
" />
<path d="M69.1421 134.7192
L68.9517 134.6239
" />
<path d="M68.9517 134.6239
L68.8564 134.5287
" />
<path d="M68.8564 134.5287
L68.7612 134.3382
" />
<path d="M68.7612 134.3382
L68.6659 133.9573
" />
<path d="M68.6659 133.9573
L68.6659 133.4811
" />
<path d="M68.6659 133.4811
L68.7612 133.1001
" />
<path d="M68.7612 133.1001
L68.8564 132.9096
" />
<path d="M68.8564 132.9096
L68.9517 132.8144
" />
<path d="M68.9517 132.8144
L69.1421 132.7192
" />
<path d="M70.6659 134.5287
L70.7612 134.6239
" />
<path d="M70.7612 134.6239
L70.6659 134.7192
" />
<path d="M70.6659 134.7192
L70.5707 134.6239
" />
<path d="M70.5707 134.6239
L70.6659 134.5287
" />
<path d="M70.6659 134.5287
L70.6659 134.7192
" />
<path d="M72.6660 134.7192
L71.5231 134.7192
" />
<path d="M72.0945 134.7192
L72.0945 132.7192
" />
<path d="M72.0945 132.7192
L71.9040 133.0049
" />
<path d="M71.9040 133.0049
L71.7136 133.1953
" />
<path d="M71.7136 133.1953
L71.5231 133.2906
" />
<path d="M74.3802 132.7192
L73.9993 132.7192
" />
<path d="M73.9993 132.7192
L73.8088 132.8144
" />
<path d="M73.8088 132.8144
L73.7136 132.9096
" />
<path d="M73.7136 132.9096
L73.5231 133.1953
" />
<path d="M73.5231 133.1953
L73.4279 133.5763
" />
<path d="M73.4279 133.5763
L73.4279 134.3382
" />
<path d="M73.4279 134.3382
L73.5231 134.5287
" />
<path d="M73.5231 134.5287
L73.6183 134.6239
" />
<path d="M73.6183 134.6239
L73.8088 134.7192
" />
<path d="M73.8088 134.7192
L74.1898 134.7192
" />
<path d="M74.1898 134.7192
L74.3802 134.6239
" />
<path d="M74.3802 134.6239
L74.4755 134.5287
" />
<path d="M74.4755 134.5287
L74.5707 134.3382
" />
<path d="M74.5707 134.3382
L74.5707 133.8620
" />
<path d="M74.5707 133.8620
L74.4755 133.6715
" />
<path d="M74.4755 133.6715
L74.3802 133.5763
" />
<path d="M74.3802 133.5763
L74.1898 133.4811
" />
<path d="M74.1898 133.4811
L73.8088 133.4811
" />
<path d="M73.8088 133.4811
L73.6183 133.5763
" />
<path d="M73.6183 133.5763
L73.5231 133.6715
" />
<path d="M73.5231 133.6715
L73.4279 133.8620
" />
<path d="M75.5231 134.7192
L75.9040 134.7192
" />
<path d="M75.9040 134.7192
L76.0945 134.6239
" />
<path d="M76.0945 134.6239
L76.1898 134.5287
" />
<path d="M76.1898 134.5287
L76.3802 134.2430
" />
<path d="M76.3802 134.2430
L76.4755 133.8620
" />
<path d="M76.4755 133.8620
L76.4755 133.1001
" />
<path d="M76.4755 133.1001
L76.3802 132.9096
" />
<path d="M76.3802 132.9096
L76.2850 132.8144
" />
<path d="M76.2850 132.8144
L76.0945 132.7192
" />
<path d="M76.0945 132.7192
L75.7136 132.7192
" />
<path d="M75.7136 132.7192
L75.5231 132.8144
" />
<path d="M75.5231 132.8144
L75.4279 132.9096
" />
<path d="M75.4279 132.9096
L75.3326 133.1001
" />
<path d="M75.3326 133.1001
L75.3326 133.5763
" />
<path d="M75.3326 133.5763
L75.4279 133.7668
" />
<path d="M75.4279 133.7668
L75.5231 133.8620
" />
<path d="M75.5231 133.8620
L75.7136 133.9573
" />
<path d="M75.7136 133.9573
L76.0945 133.9573
" />
<path d="M76.0945 133.9573
L76.2850 133.8620
" />
<path d="M76.2850 133.8620
L76.3802 133.7668
" />
<path d="M76.3802 133.7668
L76.4755 133.5763
" />
<path d="M77.1421 132.7192
L78.3802 132.7192
" />
<path d="M78.3802 132.7192
L77.7136 133.4811
" />
<path d="M77.7136 133.4811
L77.9993 133.4811
" />
<path d="M77.9993 133.4811
L78.1898 133.5763
" />
<path d="M78.1898 133.5763
L78.2850 133.6715
" />
<path d="M78.2850 133.6715
L78.3802 133.8620
" />
<path d="M78.3802 133.8620
L78.3802 134.3382
" />
<path d="M78.3802 134.3382
L78.2850 134.5287
" />
<path d="M78.2850 134.5287
L78.1898 134.6239
" />
<path d="M78.1898 134.6239
L77.9993 134.7192
" />
<path d="M77.9993 134.7192
L77.4279 134.7192
" />
<path d="M77.4279 134.7192
L77.2374 134.6239
" />
<path d="M77.2374 134.6239
L77.1421 134.5287
" />
<path d="M79.1421 132.7192
L79.1421 133.1001
" />
<path d="M79.9040 132.7192
L79.9040 133.1001
" />
<path d="M82.8564 135.4811
L82.7612 135.3858
" />
<path d="M82.7612 135.3858
L82.5707 135.1001
" />
<path d="M82.5707 135.1001
L82.4755 134.9096
" />
<path d="M82.4755 134.9096
L82.3802 134.6239
" />
<path d="M82.3802 134.6239
L82.2850 134.1477
" />
<path d="M82.2850 134.1477
L82.2850 133.7668
" />
<path d="M82.2850 133.7668
L82.3802 133.2906
" />
<path d="M82.3802 133.2906
L82.4755 133.0049
" />
<path d="M82.4755 133.0049
L82.5707 132.8144
" />
<path d="M82.5707 132.8144
L82.7612 132.5287
" />
<path d="M82.7612 132.5287
L82.8564 132.4334
" />
<path d="M84.6660 134.7192
L83.5231 134.7192
" />
<path d="M84.0945 134.7192
L84.0945 132.7192
" />
<path d="M84.0945 132.7192
L83.9040 133.0049
" />
<path d="M83.9040 133.0049
L83.7136 133.1953
" />
<path d="M83.7136 133.1953
L83.5231 133.2906
" />
<path d="M87.0469 134.7192
L87.0469 132.7192
" />
<path d="M87.9040 134.7192
L87.9040 133.6715
" />
<path d="M87.9040 133.6715
L87.8088 133.4811
" />
<path d="M87.8088 133.4811
L87.6183 133.3858
" />
<path d="M87.6183 133.3858
L87.3326 133.3858
" />
<path d="M87.3326 133.3858
L87.1421 133.4811
" />
<path d="M87.1421 133.4811
L87.0469 133.5763
" />
<path d="M89.1421 134.7192
L88.9517 134.6239
" />
<path d="M88.9517 134.6239
L88.8564 134.5287
" />
<path d="M88.8564 134.5287
L88.7612 134.3382
" />
<path d="M88.7612 134.3382
L88.7612 133.7668
" />
<path d="M88.7612 133.7668
L88.8564 133.5763
" />
<path d="M88.8564 133.5763
L88.9517 133.4811
" />
<path d="M88.9517 133.4811
L89.1421 133.3858
" />
<path d="M89.1421 133.3858
L89.4279 133.3858
" />
<path d="M89.4279 133.3858
L89.6183 133.4811
" />
<path d="M89.6183 133.4811
L89.7136 133.5763
" />
<path d="M89.7136 133.5763
L89.8088 133.7668
" />
<path d="M89.8088 133.7668
L89.8088 134.3382
" />
<path d="M89.8088 134.3382
L89.7136 134.5287
" />
<path d="M89.7136 134.5287
L89.6183 134.6239
" />
<path d="M89.6183 134.6239
L89.4279 134.7192
" />
<path d="M89.4279 134.7192
L89.1421 134.7192
" />
<path d="M90.9517 134.7192
L90.7612 134.6239
" />
<path d="M90.7612 134.6239
L90.6660 134.4334
" />
<path d="M90.6660 134.4334
L90.6660 132.7192
" />
<path d="M92.4755 134.6239
L92.2850 134.7192
" />
<path d="M92.2850 134.7192
L91.9040 134.7192
" />
<path d="M91.9040 134.7192
L91.7136 134.6239
" />
<path d="M91.7136 134.6239
L91.6183 134.4334
" />
<path d="M91.6183 134.4334
L91.6183 133.6715
" />
<path d="M91.6183 133.6715
L91.7136 133.4811
" />
<path d="M91.7136 133.4811
L91.9040 133.3858
" />
<path d="M91.9040 133.3858
L92.2850 133.3858
" />
<path d="M92.2850 133.3858
L92.4755 133.4811
" />
<path d="M92.4755 133.4811
L92.5707 133.6715
" />
<path d="M92.5707 133.6715
L92.5707 133.8620
" />
<path d="M92.5707 133.8620
L91.6183 134.0525
" />
<path d="M93.2374 135.4811
L93.3326 135.3858
" />
<path d="M93.3326 135.3858
L93.5231 135.1001
" />
<path d="M93.5231 135.1001
L93.6183 134.9096
" />
<path d="M93.6183 134.9096
L93.7136 134.6239
" />
<path d="M93.7136 134.6239
L93.8088 134.1477
" />
<path d="M93.8088 134.1477
L93.8088 133.7668
" />
<path d="M93.8088 133.7668
L93.7136 133.2906
" />
<path d="M93.7136 133.2906
L93.6183 133.0049
" />
<path d="M93.6183 133.0049
L93.5231 132.8144
" />
<path d="M93.5231 132.8144
L93.3326 132.5287
" />
<path d="M93.3326 132.5287
L93.2374 132.4334
" />
<path d="M96.8564 135.4811
L96.7612 135.3858
" />
<path d="M96.7612 135.3858
L96.5707 135.1001
" />
<path d="M96.5707 135.1001
L96.4755 134.9096
" />
<path d="M96.4755 134.9096
L96.3802 134.6239
" />
<path d="M96.3802 134.6239
L96.2850 134.1477
" />
<path d="M96.2850 134.1477
L96.2850 133.7668
" />
<path d="M96.2850 133.7668
L96.3802 133.2906
" />
<path d="M96.3802 133.2906
L96.4755 133.0049
" />
<path d="M96.4755 133.0049
L96.5707 132.8144
" />
<path d="M96.5707 132.8144
L96.7612 132.5287
" />
<path d="M96.7612 132.5287
L96.8564 132.4334
" />
<path d="M97.6183 133.3858
L97.6183 134.7192
" />
<path d="M97.6183 133.5763
L97.7136 133.4811
" />
<path d="M97.7136 133.4811
L97.9040 133.3858
" />
<path d="M97.9040 133.3858
L98.1898 133.3858
" />
<path d="M98.1898 133.3858
L98.3802 133.4811
" />
<path d="M98.3802 133.4811
L98.4755 133.6715
" />
<path d="M98.4755 133.6715
L98.4755 134.7192
" />
<path d="M99.7136 134.7192
L99.5231 134.6239
" />
<path d="M99.5231 134.6239
L99.4279 134.5287
" />
<path d="M99.4279 134.5287
L99.3326 134.3382
" />
<path d="M99.3326 134.3382
L99.3326 133.7668
" />
<path d="M99.3326 133.7668
L99.4279 133.5763
" />
<path d="M99.4279 133.5763
L99.5231 133.4811
" />
<path d="M99.5231 133.4811
L99.7136 133.3858
" />
<path d="M99.7136 133.3858
L99.9993 133.3858
" />
<path d="M99.9993 133.3858
L100.1898 133.4811
" />
<path d="M100.1898 133.4811
L100.2850 133.5763
" />
<path d="M100.2850 133.5763
L100.3802 133.7668
" />
<path d="M100.3802 133.7668
L100.3802 134.3382
" />
<path d="M100.3802 134.3382
L100.2850 134.5287
" />
<path d="M100.2850 134.5287
L100.1898 134.6239
" />
<path d="M100.1898 134.6239
L99.9993 134.7192
" />
<path d="M99.9993 134.7192
L99.7136 134.7192
" />
<path d="M100.9517 133.3858
L101.7136 133.3858
" />
<path d="M101.2374 132.7192
L101.2374 134.4334
" />
<path d="M101.2374 134.4334
L101.3326 134.6239
" />
<path d="M101.3326 134.6239
L101.5231 134.7192
" />
<path d="M101.5231 134.7192
L101.7136 134.7192
" />
<path d="M103.9040 133.3858
L103.9040 135.3858
" />
<path d="M103.9040 133.4811
L104.0945 133.3858
" />
<path d="M104.0945 133.3858
L104.4755 133.3858
" />
<path d="M104.4755 133.3858
L104.6660 133.4811
" />
<path d="M104.6660 133.4811
L104.7612 133.5763
" />
<path d="M104.7612 133.5763
L104.8564 133.7668
" />
<path d="M104.8564 133.7668
L104.8564 134.3382
" />
<path d="M104.8564 134.3382
L104.7612 134.5287
" />
<path d="M104.7612 134.5287
L104.6660 134.6239
" />
<path d="M104.6660 134.6239
L104.4755 134.7192
" />
<path d="M104.4755 134.7192
L104.0945 134.7192
" />
<path d="M104.0945 134.7192
L103.9040 134.6239
" />
<path d="M105.9993 134.7192
L105.8088 134.6239
" />
<path d="M105.8088 134.6239
L105.7136 134.4334
" />
<path d="M105.7136 134.4334
L105.7136 132.7192
" />
<path d="M107.6183 134.7192
L107.6183 133.6715
" />
<path d="M107.6183 133.6715
L107.5231 133.4811
" />
<path d="M107.5231 133.4811
L107.3326 133.3858
" />
<path d="M107.3326 133.3858
L106.9517 133.3858
" />
<path d="M106.9517 133.3858
L106.7612 133.4811
" />
<path d="M107.6183 134.6239
L107.4279 134.7192
" />
<path d="M107.4279 134.7192
L106.9517 134.7192
" />
<path d="M106.9517 134.7192
L106.7612 134.6239
" />
<path d="M106.7612 134.6239
L106.6660 134.4334
" />
<path d="M106.6660 134.4334
L106.6660 134.2430
" />
<path d="M106.6660 134.2430
L106.7612 134.0525
" />
<path d="M106.7612 134.0525
L106.9517 133.9573
" />
<path d="M106.9517 133.9573
L107.4279 133.9573
" />
<path d="M107.4279 133.9573
L107.6183 133.8620
" />
<path d="M108.2850 133.3858
L109.0469 133.3858
" />
<path d="M108.5707 132.7192
L108.5707 134.4334
" />
<path d="M108.5707 134.4334
L108.6660 134.6239
" />
<path d="M108.6660 134.6239
L108.8564 134.7192
" />
<path d="M108.8564 134.7192
L109.0469 134.7192
" />
<path d="M110.4755 134.6239
L110.2850 134.7192
" />
<path d="M110.2850 134.7192
L109.9040 134.7192
" />
<path d="M109.9040 134.7192
L109.7136 134.6239
" />
<path d="M109.7136 134.6239
L109.6183 134.4334
" />
<path d="M109.6183 134.4334
L109.6183 133.6715
" />
<path d="M109.6183 133.6715
L109.7136 133.4811
" />
<path d="M109.7136 133.4811
L109.9040 133.3858
" />
<path d="M109.9040 133.3858
L110.2850 133.3858
" />
<path d="M110.2850 133.3858
L110.4755 133.4811
" />
<path d="M110.4755 133.4811
L110.5707 133.6715
" />
<path d="M110.5707 133.6715
L110.5707 133.8620
" />
<path d="M110.5707 133.8620
L109.6183 134.0525
" />
<path d="M112.2850 134.7192
L112.2850 132.7192
" />
<path d="M112.2850 134.6239
L112.0945 134.7192
" />
<path d="M112.0945 134.7192
L111.7136 134.7192
" />
<path d="M111.7136 134.7192
L111.5231 134.6239
" />
<path d="M111.5231 134.6239
L111.4279 134.5287
" />
<path d="M111.4279 134.5287
L111.3326 134.3382
" />
<path d="M111.3326 134.3382
L111.3326 133.7668
" />
<path d="M111.3326 133.7668
L111.4279 133.5763
" />
<path d="M111.4279 133.5763
L111.5231 133.4811
" />
<path d="M111.5231 133.4811
L111.7136 133.3858
" />
<path d="M111.7136 133.3858
L112.0945 133.3858
" />
<path d="M112.0945 133.3858
L112.2850 133.4811
" />
<path d="M113.0469 135.4811
L113.1421 135.3858
" />
<path d="M113.1421 135.3858
L113.3326 135.1001
" />
<path d="M113.3326 135.1001
L113.4279 134.9096
" />
<path d="M113.4279 134.9096
L113.5231 134.6239
" />
<path d="M113.5231 134.6239
L113.6183 134.1477
" />
<path d="M113.6183 134.1477
L113.6183 133.7668
" />
<path d="M113.6183 133.7668
L113.5231 133.2906
" />
<path d="M113.5231 133.2906
L113.4279 133.0049
" />
<path d="M113.4279 133.0049
L113.3326 132.8144
" />
<path d="M113.3326 132.8144
L113.1421 132.5287
" />
<path d="M113.1421 132.5287
L113.0469 132.4334
" />
</g></g> 
</svg>
